<?xml version="1.0" standalone="no"?>
<!DOCTYPE svg PUBLIC "-//W3C//DTD SVG 1.1//EN" "http://www.w3.org/Graphics/SVG/1.1/DTD/svg11.dtd" >
<svg xmlns="http://www.w3.org/2000/svg" xmlns:xlink="http://www.w3.org/1999/xlink" version="1.1">
<metadata>
Created by FontForge 20170731 at Thu Aug  8 19:30:06 2019
 By Aleksey,,,
Copyright (c) 2019 by Fontastica. All rights reserved.
</metadata>
<defs>
<font id="Jaquel-Light" horiz-adv-x="1241" >
  <font-face 
    font-family="Jaquel Light"
    font-weight="300"
    font-stretch="normal"
    units-per-em="2048"
    panose-1="0 0 4 0 0 0 0 0 0 0"
    ascent="1638"
    descent="-410"
    x-height="1553"
    cap-height="1557"
    bbox="79 -619 2355 1823"
    underline-thickness="50"
    underline-position="-200"
    unicode-range="U+000D-2212"
  />
<missing-glyph horiz-adv-x="1693" 
 />
    <glyph glyph-name=".notdef" horiz-adv-x="1693" 
 />
    <glyph glyph-name=".null" horiz-adv-x="0" 
 />
    <glyph glyph-name="nonmarkingreturn" horiz-adv-x="682" 
 />
    <glyph glyph-name="CR" unicode="&#xd;" horiz-adv-x="2069" 
 />
    <glyph glyph-name="space" unicode=" " horiz-adv-x="1234" 
 />
    <glyph glyph-name="exclam" unicode="!" horiz-adv-x="441" 
d="M196 544q-41 0 -68.5 27t-27.5 68v892q0 42 27.5 69.5t68.5 27.5h48q41 0 68.5 -27.5t27.5 -69.5v-892q0 -41 -27.5 -68t-68.5 -27h-48zM220 74q-50 0 -85 24t-35 58t35 58t85 24q51 0 85.5 -23.5t34.5 -58.5q0 -33 -35.5 -57.5t-84.5 -24.5z" />
    <glyph glyph-name="quotedbl" unicode="&#x22;" horiz-adv-x="849" 
d="M169 1372q-20 0 -35 23t-19 60l-13 126q-1 6 -1 18q0 40 20 66t52 26q30 0 49 -26.5t19 -67.5q0 -13 -1 -19l-15 -126q-4 -36 -19.5 -58t-36.5 -22zM678 1372q-21 0 -37 23.5t-19 59.5l-13 125q-1 5 -1 17q0 41 20 67.5t51 26.5t51 -26.5t20 -65.5q0 -7 -2 -21l-14 -126
q-4 -36 -20 -58t-36 -22z" />
    <glyph glyph-name="numbersign" unicode="#" horiz-adv-x="1656" 
d="M405 65q-47 0 -47 37q0 12 1 19l36 271l-223 -1q-4 2 -4 10v133q0 40 47 40l207 1l52 417h-214q-15 0 -15 12l-2 134q2 37 41 37h215l47 318v2q2 19 15.5 30.5t32.5 11.5h99q50 0 50 -40q0 -11 -1 -16l-41 -303h349l48 315v2q2 19 15.5 30.5t32.5 11.5h99q52 0 52 -41
q0 -12 -1 -18l-41 -297h215q12 0 12 -13l3 -133q0 -39 -39 -39l-218 -2l-52 -416h217q15 0 15 -15l2 -128q-2 -41 -41 -41h-216l-43 -286v-1q-3 -19 -16 -30.5t-33 -11.5h-104q-48 0 -48 37q0 5 2 19l36 271h-356l-35 -283q-6 -44 -51 -44h-100zM621 574l353 4l52 416
l-352 -2z" />
    <glyph glyph-name="dollar" unicode="$" horiz-adv-x="1346" 
d="M688 -209q-71 0 -111 109q-6 24 -6 53v47h-329q-31 0 -53 9q-78 41 -81 106q0 1 1 3l1 9q3 7 3 16q27 95 129 95h144v2h185v450q-159 5 -273 71q-195 149 -198 379q7 81 19 132q55 161 169 249t283 98v42q0 114 93 156q15 6 24 6h2q80 0 116 -120q5 -33 5 -86h176v-2h66
q101 0 132 -92q0 -4 1 -10.5t1.5 -11.5t0.5 -10q0 -75 -96 -112q-2 -1 -5 -1l-28 -3h-248v-446q130 -10 238 -72q194 -144 197 -378q-4 -62 -18 -135q-106 -307 -417 -344q0 -171 -101 -203q-6 -6 -20 -6h-2zM571 926v455l-43 -5q-28 -4 -44 -8q-144 -67 -144 -225v-13
q0 -180 231 -204zM811 230l53 21q142 61 142 224v11q0 166 -195 205v-461z" />
    <glyph glyph-name="percent" unicode="%" horiz-adv-x="1550" 
d="M497 1213q-97 0 -167 65t-70 162q0 96 69.5 161.5t167.5 65.5q96 0 167.5 -65.5t71.5 -161.5q0 -95 -71.5 -161t-167.5 -66zM1309 1534q0 -33 -19 -69l-762 -1369q-21 -41 -67 -41h-46q-56 0 -91 32.5t-35 79.5q0 36 19 70l760 1368q25 41 69 41h44q57 0 92.5 -32
t35.5 -80zM497 1324q42 0 81 37.5t39 78.5q0 40 -39.5 78t-80.5 38t-80 -38t-39 -78q0 -41 39 -78.5t80 -37.5zM1155 65q-97 0 -167 65t-70 162q0 96 69.5 161.5t167.5 65.5q96 0 167.5 -65.5t71.5 -161.5q0 -95 -71.5 -161t-167.5 -66zM1155 176q42 0 81 37.5t39 78.5
q0 40 -39.5 78t-80.5 38t-80 -38t-39 -78q0 -41 39 -78.5t80 -37.5z" />
    <glyph glyph-name="ampersand" unicode="&#x26;" horiz-adv-x="1530" 
d="M1273 384l125 -124q28 -30 28 -64q0 -45 -43 -77l-42 -29q-37 -27 -67 -27q-11 0 -16 5l-51 53l-12 -3l-119 132q-255 -197 -506 -197h-22l-8 1l-12 1q-154 21 -250 83t-151 196q-26 81 -26 141q0 91 37 162q94 164 288 301l-32 35q-21 23 -32 32q-36 36 -51 58
q0 13 -3 17t-13 5l-12 20q-18 29 -25 47q-30 63 -30 124q0 20 3 43q14 165 135.5 262.5t292.5 97.5q161 0 276 -116.5t116 -278.5v-5q-3 -69 -34.5 -137t-83.5 -115l-136 -125l341 -368l121 104q28 25 60 25q37 0 64 -29l10 -11q38 -37 38 -78q0 -36 -30 -61zM494 1368
l-18 -72l9 -61l44 -57l90 -90q94 53 141 110l29 40q14 25 14 53q0 40 -25 85l-28 31q-45 39 -107 39h-8q-61 -6 -93 -36zM308 1067v1v-1l1 -1h-1q2 -6 2 -11l-30 30h15l1 -2q4 -3 7 -8q1 -1 5 -7l-2 2zM311 1053q0 7 -2 13l2 -3v-10zM578 285q86 0 172.5 39t156.5 101
l-314 339q-45 -31 -77.5 -56t-75 -64.5t-65.5 -83t-23 -86.5q0 -34 12 -65q29 -53 57 -76q37 -34 121 -46h1q22 -2 35 -2zM1196 117h-3l2 1z" />
    <glyph glyph-name="quotesingle" unicode="'" horiz-adv-x="537" 
d="M219 1096q-51 0 -51 51v452q0 51 51 51h97q50 0 50 -51v-452q0 -51 -50 -51h-97z" />
    <glyph glyph-name="parenleft" unicode="(" horiz-adv-x="1085" 
d="M894 69q-5 0 -19 2q-218 39 -394.5 150.5t-278.5 276.5t-102 351q0 189 100.5 355t277.5 277.5t398 148.5q6 1 19 1q38 0 64 -25.5t26 -63.5v-26q0 -34 -22.5 -58t-58.5 -31q-231 -48 -380.5 -209t-149.5 -369t149.5 -369t380.5 -209q37 -7 59 -30.5t22 -58.5v-25
q0 -37 -26 -62.5t-65 -25.5z" />
    <glyph glyph-name="parenright" unicode=")" horiz-adv-x="1085" 
d="M192 69q-40 0 -66 29t-26 72v12q0 35 22 58.5t57 30.5q231 48 380 209t149 369q0 209 -148.5 369.5t-379.5 208.5q-36 7 -58 31t-22 58v15q0 43 25.5 71.5t64.5 28.5q12 0 18 -1q221 -37 398 -148.5t278 -278t101 -354.5q0 -142 -59 -273t-161.5 -232.5t-246.5 -173.5
t-310 -99q-10 -2 -16 -2z" />
    <glyph glyph-name="asterisk" unicode="*" horiz-adv-x="1086" 
d="M562 910l-6 1l-7 1q-23 2 -37 14t-14 32v166l-110 -111q-27 -25 -48 -25q-10 0 -17 7l-30 30q-8 8 -8 19q0 24 24 46l105 105h-147q-26 0 -42 9t-16 24v44q0 14 16 23.5t41 9.5h155l-115 117q-13 13 -13 29q0 17 15 39l4 4q9 12 25 12q21 0 37 -16l124 -122v174
q0 20 13.5 33t33.5 13h4q21 0 34 -13t13 -33l1 -162l110 107q24 24 46 24q10 0 19 -7l31 -29q7 -7 7 -17q0 -22 -25 -49l-104 -104h147q25 0 41 -9.5t17 -24.5l1 -44q-1 -14 -17.5 -23.5t-41.5 -9.5h-155l115 -116q16 -16 16 -33q0 -16 -16 -32l-4 -4q-15 -15 -34 -15
q-18 0 -31 14l-122 124v-177q-1 -18 -11 -31.5t-24 -13.5z" />
    <glyph glyph-name="plus" unicode="+" horiz-adv-x="1364" 
d="M646 236q-33 0 -55 32.5t-22 83.5v365h-373q-41 0 -68.5 27.5t-27.5 69.5v7q0 42 27.5 69t68.5 27l373 1v368q0 48 21 80.5t52 33.5h4l72 2q34 -1 55 -34t21 -84v-366h373q43 0 69.5 -26.5t26.5 -69.5v-8q0 -42 -26.5 -69.5t-67.5 -27.5h-375v-365q0 -51 -21 -83.5
t-55 -32.5h-72z" />
    <glyph glyph-name="comma" unicode="," horiz-adv-x="471" 
d="M245 -148q-6 0 -9 1q-34 10 -34 70q0 8 2 22l11 78q-51 19 -83 50.5t-32 63.5q0 5 2 15q10 32 44 51.5t76 19.5q55 0 102.5 -34.5t47.5 -87.5q0 -10 -3 -22q-3 -26 -12 -45l-46 -119q-24 -63 -66 -63z" />
    <glyph glyph-name="hyphen" unicode="-" horiz-adv-x="1142" 
d="M196 859q-41 0 -68.5 27t-27.5 68v10q0 41 27.5 68t68.5 27h751q41 0 68 -27t27 -68v-10q0 -41 -27 -68t-68 -27h-751z" />
    <glyph glyph-name="period" unicode="." horiz-adv-x="478" 
d="M241 55q-60 0 -100.5 30.5t-40.5 74.5q0 43 40 71.5t101 28.5q58 0 97 -28.5t39 -71.5q0 -44 -39 -74.5t-97 -30.5z" />
    <glyph glyph-name="slash" unicode="/" horiz-adv-x="1219" 
d="M227 55q-57 0 -92 32t-35 80q0 36 20 70l756 1368q25 41 70 41h46q56 0 91 -32t35 -80q0 -35 -19 -69l-759 -1368q-25 -42 -70 -42h-43z" />
    <glyph glyph-name="zero" unicode="0" horiz-adv-x="1413" 
d="M704 55q-165 0 -304 65.5t-219.5 178.5t-80.5 248v611q0 99 48 189t129 155.5t193 104.5t234 39q124 0 236.5 -39t194 -104.5t130 -156.5t48.5 -191v-608q0 -135 -81 -248t-221 -178.5t-307 -65.5zM704 255q138 0 235.5 85.5t97.5 206.5v604q0 121 -97.5 206.5
t-235.5 85.5q-139 0 -236 -84.5t-97 -203.5v-608q0 -121 97 -206.5t236 -85.5z" />
    <glyph glyph-name="one" unicode="1" horiz-adv-x="441" 
d="M216 0q-70 0 -109 85l-1 3q-6 20 -6 36v1367q0 87 91 120q15 4 25 4h4q80 0 116 -92q4 -20 4 -48v-1334q0 -109 -96 -136q-10 -5 -24 -5h-4z" />
    <glyph glyph-name="two" unicode="2" horiz-adv-x="1476" 
d="M255 46q-65 1 -110 42.5t-45 94.5q0 51 45 89l767 643v3l45 46l69 121v73q0 114 -101.5 201t-234.5 87q-94 0 -172 -43t-120 -115q-28 -51 -73 -51h-91q-46 0 -78 25.5t-32 60.5q0 20 12 41q77 126 231.5 204t341.5 78q160 0 298 -68t219 -184t81 -250q0 -136 -157 -305
q-128 -137 -460 -393q-79 -61 -261 -198l853 9q40 -1 66.5 -27.5t26.5 -66.5v-11q0 -43 -26.5 -70t-69.5 -27z" />
    <glyph glyph-name="three" unicode="3" horiz-adv-x="1328" 
d="M137 0q-14 0 -23.5 8t-9.5 20v184q0 12 9 20t22 8h652q168 0 199 166q5 20 5 44q0 164 -141 228q-32 13 -92 13h-406q-13 0 -22 8.5t-9 21.5v176q0 13 8.5 22t22.5 9h369q157 0 206 86q33 60 33 108v29q0 146 -139 219q-2 0 0 -2q-43 10 -71 10h-619q-12 0 -20.5 9
t-8.5 22l-2 181q1 12 9 20t21 8h591q337 0 458 -336q21 -86 21 -145q0 -148 -99 -289q-4 -4 -7 -16t-4 -22l-1 -9q139 -158 139 -336v-29q0 -211 -185 -356q-117 -80 -297 -80h-609z" />
    <glyph glyph-name="four" unicode="4" horiz-adv-x="1718" 
d="M1162 55q-41 0 -67.5 27t-26.5 70v276h-873q-41 0 -68 27.5t-27 68.5v139q0 27 16 46l770 911q23 26 54 26h306q41 0 67.5 -27t26.5 -68v-873h181q42 0 69 -27t27 -69v-11q0 -48 -28.5 -95.5t-67.5 -47.5h-181v-276q0 -43 -26.5 -70t-67.5 -27h-84zM374 678h694v770z" />
    <glyph glyph-name="five" unicode="5" horiz-adv-x="1482" 
d="M774 55q-206 0 -366.5 100.5t-215.5 257.5q-3 8 -3 16q0 19 15.5 31.5t38.5 12.5h166q41 0 70 -50q43 -70 122 -112t173 -42q138 0 234 84.5t96 206.5q0 119 -96.5 203.5t-233.5 84.5h-510q-42 0 -68.5 27t-26.5 69v607q0 41 26.5 68t68.5 27h971q42 0 69.5 -27t27.5 -68
v-11q0 -42 -27.5 -69.5t-69.5 -27.5h-683q-46 0 -77 -31t-31 -78v-190q0 -46 31 -77.5t77 -31.5h222q164 0 304 -65.5t221.5 -178t81.5 -244.5q0 -133 -81 -246.5t-221 -179.5t-305 -66z" />
    <glyph glyph-name="six" unicode="6" horiz-adv-x="1421" 
d="M711 55q-123 0 -236.5 39.5t-195.5 106t-130.5 158t-48.5 191.5q0 138 90 265l557 798q23 33 63 33h21q60 0 98 -35t38 -86q0 -41 -29 -84l-275 -395q178 -3 330 -71.5t240 -181.5t88 -243q0 -134 -81.5 -248t-222 -180.5t-306.5 -66.5zM711 257q139 0 236.5 85.5
t97.5 207.5q0 120 -98.5 207t-235.5 87t-234.5 -86.5t-97.5 -207.5q0 -122 97 -207.5t235 -85.5z" />
    <glyph glyph-name="seven" unicode="7" horiz-adv-x="1665" 
d="M592 55q-61 0 -99 34.5t-38 85.5q0 43 29 85l820 1182h-1108q-41 0 -68.5 27t-27.5 68v14q0 41 27.5 68t68.5 27h1273q41 0 68.5 -27t27.5 -68v-149q0 -22 -12 -41l-883 -1273q-21 -33 -63 -33h-15z" />
    <glyph glyph-name="eight" unicode="8" horiz-adv-x="1420" 
d="M581 0q-181 0 -296 80q-185 146 -185 356v29q0 178 142 341v22q-114 156 -114 309q0 57 20 145q121 336 458 336h209q334 0 456 -336q20 -88 20 -145q0 -157 -114 -309v-22q143 -166 143 -341v-29q0 -209 -184 -356q-117 -80 -297 -80h-258zM606 928h209q152 0 204 86
q32 58 32 108v29q0 151 -140 217q-38 10 -68 10h-265q-32 0 -69 -10q-141 -67 -141 -217v-29q0 -53 34 -109q48 -85 204 -85zM541 240h337q165 0 200 167q5 17 5 43q0 164 -140 228q-36 13 -93 13h-282q-62 0 -92 -14q-139 -66 -139 -227q0 -26 5 -43q32 -167 199 -167z" />
    <glyph glyph-name="nine" unicode="9" horiz-adv-x="1413" 
d="M582 55q-60 0 -97.5 35t-37.5 85q0 44 28 82l280 409q-177 1 -328.5 68t-239 180t-87.5 244q0 132 81.5 244.5t221.5 178t304 65.5t304 -65.5t221 -178t81 -244.5q0 -134 -83 -248l-570 -822q-20 -33 -62 -33h-16zM707 859q141 0 237 83t96 206q0 122 -97.5 208
t-235.5 86q-140 0 -236.5 -85t-96.5 -209q0 -122 96 -205.5t237 -83.5z" />
    <glyph glyph-name="colon" unicode=":" horiz-adv-x="481" 
d="M242 608q-58 0 -100 30.5t-42 72.5q0 43 41.5 73t100.5 30q58 0 99 -30.5t41 -72.5t-41.5 -72.5t-98.5 -30.5zM242 55q-58 0 -100 30t-42 72q0 43 42 73t100 30t99 -30t41 -73q0 -42 -41 -72t-99 -30z" />
    <glyph glyph-name="semicolon" unicode=";" horiz-adv-x="498" 
d="M259 608q-58 0 -100 30.5t-42 72.5q0 43 41.5 73t100.5 30q58 0 98.5 -30.5t40.5 -72.5t-41 -72.5t-98 -30.5zM244 -113q-5 0 -8 1q-33 9 -33 70q0 16 1 23l11 78q-50 19 -82.5 50t-32.5 62q0 39 39.5 63.5t80.5 24.5q55 0 103.5 -35t48.5 -88q0 -10 -3 -22
q-3 -25 -12 -45l-46 -119q-28 -63 -67 -63z" />
    <glyph glyph-name="less" unicode="&#x3c;" horiz-adv-x="1466" 
d="M215 988l846 359q18 8 33 8q27 0 41 -28l46 -94q9 -17 9 -33q-2 -29 -32 -44l-499 -216l-214 -98l213 -97l487 -212l9 -3q35 -17 35 -47v-5l-2 -18q-1 -5 -1 -7q-9 -12 -14 -22l-27 -62q-19 -38 -51 -38q-14 0 -33 8l-846 360q-39 21 -39 61v167q0 38 39 61z" />
    <glyph glyph-name="equal" unicode="=" horiz-adv-x="1142" 
d="M196 1012q-41 0 -68.5 27.5t-27.5 68.5v8q0 42 27 69.5t69 27.5h751q41 0 68 -27t27 -70v-8q0 -41 -27 -68.5t-68 -27.5h-751zM196 444q-41 0 -68.5 27t-27.5 68v10q0 41 27.5 68t68.5 27h751q41 0 68 -27t27 -68v-10q0 -41 -27 -68t-68 -27h-751z" />
    <glyph glyph-name="greater" unicode="&#x3e;" horiz-adv-x="1467" 
d="M1245 988q39 -23 39 -61v-167q0 -40 -39 -61l-846 -360q-19 -8 -33 -8q-32 0 -51 38l-27 62q-5 10 -14 22q0 2 -1 7l-2 18v5q0 30 35 47l9 3l487 212l213 97l-214 98l-499 216q-30 15 -32 44q0 16 9 33l46 94q14 28 41 28q15 0 33 -8z" />
    <glyph glyph-name="question" unicode="?" horiz-adv-x="1411" 
d="M641 508q-43 0 -70 27t-27 68v148q0 42 18.5 69.5t47.5 27.5h97q138 0 234.5 85.5t96.5 209.5q0 122 -96 205t-235 83q-115 0 -203.5 -63.5t-119.5 -159.5q-10 -38 -42 -38h-189q-21 0 -35.5 11.5t-14.5 29.5l1 7q33 179 205 303.5t398 124.5q164 0 303 -65.5t219.5 -178
t80.5 -244.5q0 -172 -138.5 -308.5t-354.5 -175.5v-71q0 -41 -27 -68t-69 -27h-80zM681 55q-62 0 -101.5 28.5t-39.5 72.5q0 42 39.5 69t101.5 27q59 0 95.5 -26.5t36.5 -69.5q0 -44 -37 -72.5t-95 -28.5z" />
    <glyph glyph-name="at" unicode="@" horiz-adv-x="2456" 
d="M1080 -619h-8q-201 32 -380 132.5t-309.5 247t-206.5 340t-76 402.5q0 185 56.5 358t160 313t240.5 245t307.5 162.5t351.5 57.5q234 0 445 -89.5t363 -241.5t241.5 -362t89.5 -443q0 -201 -67 -385.5t-195 -336.5q-17 -21 -37 -21q-16 0 -32 12l-512 357
q-143 -97 -286 -97q-99 0 -188 37.5t-152.5 102t-101 153.5t-37.5 188q0 199 139 337.5t340 138.5q96 0 190.5 -46t172.5 -131q0 65 21 108t52 43h25q31 0 51 -27.5t20 -68.5v-709l243 -151q145 229 145 496q0 191 -73.5 364.5t-197.5 298.5t-296.5 199t-362.5 74
q-148 0 -286.5 -47t-250 -133.5t-195.5 -201.5t-129.5 -258t-45.5 -296q0 -231 101 -430t278 -327.5t397 -162.5q30 -5 49 -30.5t19 -61.5v-18q0 -40 -20.5 -66t-52.5 -26zM1227 193q126 0 214.5 93.5t88.5 226.5t-88.5 227t-214.5 94q-124 0 -212 -94t-88 -227
q0 -134 87 -227t213 -93z" />
    <glyph glyph-name="A" unicode="A" horiz-adv-x="1704" 
d="M1512 328q86 -175 91 -214l-5 -28l-1 -5v3l-1 -3q-38 -81 -106 -81q-46 0 -84 39l-3 3q-17 27 -128 256q-12 22 -56 114l-736 -5q-151 -312 -184 -369q1 3 2 4l-3 -3q-38 -39 -84 -39q-72 0 -106 81l-1 3v-3l-1 5l-5 28v1q5 37 91 214q73 150 299 621l119 248
q76 160 96 201q23 42 32 58.5t25 42t27 34t26.5 16t33.5 7.5h4q38 0 62.5 -27.5t69.5 -109.5l12 -21q474 -992 514 -1071zM592 630h524q-35 58 -41 82q-32 66 -41 88l-38 78q-92 193 -142 302q-4 -8 -64.5 -132.5t-81.5 -169.5l-38 -78q-11 -25 -25 -54l-17 -35
q-4 -15 -36 -81zM1403 42q1 -1 1 -2v1z" />
    <glyph glyph-name="B" unicode="B" horiz-adv-x="1303" 
d="M211 0q-67 0 -104 81q-7 22 -7 38v1329q0 62 79 105q16 7 52 7h484q325 0 441 -324q20 -85 20 -139q0 -150 -111 -299v-22q138 -159 138 -328v-28q0 -202 -178 -343q-112 -77 -286 -77h-528zM330 893h385q152 0 200 84q31 57 31 105v28q0 147 -137 210q-37 10 -66 10
h-413v-437zM330 230h448q162 0 194 161q4 22 4 42q0 159 -137 221q-32 13 -89 13h-420v-437z" />
    <glyph glyph-name="C" unicode="C" horiz-adv-x="1684" 
d="M889 2l-34 1q-33 0 -50 1l-50 7q-189 29 -333.5 133.5t-226.5 262t-95 348.5q0 12 3 22q-3 13 -3 24q13 190 94.5 348t227 263t333.5 132l46 8q5 0 7 1h79q45 0 95 -3q87 -15 168 -43q147 -57 257.5 -159t173.5 -243q2 -6 2 -9l1 -13q0 -48 -29.5 -82.5t-76.5 -34.5
q-28 0 -58 13l-3 1h-1q-10 9 -20 13l-12 12q-31 59 -71 111l-5 4q-11 15 -20 24l-6 6l-25 26q-82 79 -196 121q-103 30 -195 30q-75 0 -139 -19l-48 -14q-94 -35 -190 -126l-4 -5q-107 -112 -144 -258q-14 -77 -14 -127q0 -48 14 -125q37 -150 146 -262l3 -3
q161 -159 377 -159q92 0 194 30q127 48 221 147q1 1 9 9.5t13 15.5q1 2 3 4l7 6q31 40 73 111q5 7 6 8l26 18q1 1 4 3q26 10 51 10q49 0 79.5 -34.5t30.5 -84.5l-1 -13q0 -1 -2 -9q-90 -195 -243 -298q-147 -113 -356 -145q-53 -5 -93 -5z" />
    <glyph glyph-name="D" unicode="D" horiz-adv-x="1549" 
d="M211 0q-37 0 -66 24q-19 15 -33 43l-5 16q-3 5 -5 17v4q-2 7 -2 15v1319q0 79 82 115l8 1q12 3 21 3h452q280 0 469 -133.5t280 -390.5q37 -140 37 -249q0 -324 -229 -575q-209 -209 -560 -209h-449zM330 228h376q346 0 483 353q30 101 30 194v17q0 337 -283 490
q-105 45 -227 45h-379v-1099z" />
    <glyph glyph-name="E" unicode="E" 
d="M1018 1327h-688v-434h454q62 0 98 -66q1 -3 2.5 -6.5t2 -6.5t2 -7t2.5 -7l2 -5v-6q0 -2 0.5 -5t0.5 -5v-4q0 -60 -62 -94l-21 -12h-5q-14 -3 -22 -3h-454v-438h682q95 0 123 -87l1 -8l1 -7q2 -10 4 -16q-3 -65 -78 -101q-21 -9 -51 -9h-801q-42 0 -71 30q-24 21 -37 56v6
q0 7 -2 15l-1 12v1327q0 74 88 108h2q12 3 21 3h801q88 0 120 -74l4 -12v-4q5 -17 5 -21v-8q0 -53 -53 -87q-5 -5 -15 -11h-2l-10 -5l-9 -3l-5 -2zM806 667l2 1q2 0 3 1h5z" />
    <glyph glyph-name="F" unicode="F" 
d="M1137 1467q4 -16 4 -29q0 -72 -92 -107q-2 -1 -5 -1l-27 -3h-687v-434h399q77 0 109 -94l1 -24q0 -43 -34 -76t-76 -33h-399v-531q0 -98 -77 -127q1 1 0 1h-3q-14 -9 -36 -9h-3q-68 0 -106 87l1 -4v-6l-1 9v-2v4v2q-5 20 -5 29v1326q0 24 12 50q17 33 73 57q4 2 7 2
q11 3 19 3h801q96 0 125 -90z" />
    <glyph glyph-name="G" unicode="G" horiz-adv-x="1714" 
d="M1584 730l2 -12v-188l-2 -74l-1 -2q-90 -198 -245 -302q-147 -113 -356 -145q-53 -5 -93 -5l-34 1q-33 0 -50 1l-50 7q-189 29 -333.5 133.5t-226.5 262t-95 348.5q0 12 3 22q-3 13 -3 24q13 190 94.5 348t227 263t333.5 132l46 8q5 0 7 1h79q45 0 95 -3q87 -15 168 -43
q147 -57 257.5 -159t173.5 -243q2 -6 2 -9t0.5 -7t0.5 -6q0 -48 -29.5 -82.5t-76.5 -34.5q-28 0 -58 13l-3 1h-1q-10 9 -20 13l-12 12q-31 59 -71 111l-5 4q-11 15 -20 24l-6 6l-25 26q-82 79 -196 121q-103 30 -195 30q-75 0 -139 -19l-48 -14q-94 -35 -190 -126l-4 -5
q-107 -112 -144 -258q-14 -77 -14 -127q0 -48 14 -125q37 -150 146 -262l3 -3q161 -159 377 -159q92 0 194 30q127 48 221 147q1 1 9 9.5t13 15.5q1 2 3 4l7 6q5 7 16 18v156h-431q-83 0 -115 83v1q-1 1 -1 2l1 -1l-1 8q-2 8 -2 11q0 65 95 94l11 2q5 1 12 1h573
q74 0 109 -75l3 -9v-2z" />
    <glyph glyph-name="H" unicode="H" horiz-adv-x="1376" 
d="M211 0q-71 0 -106 87l-1 5l-2 12q-2 16 -2 24v1303q0 90 80 122l6 1l13 2q12 3 20 3q73 0 106 -92q5 -16 5 -39v-534h716v546q0 77 81 114q18 5 30 5h3q79 0 113 -90v-1l1 -16q2 -22 2 -29v-1287q0 -99 -87 -133h-7l-14 -3h-11q-68 0 -103 81q-8 26 -8 38v548h-716v-537
q0 -94 -86 -127h-7l-21 -3h-5z" />
    <glyph glyph-name="I" unicode="I" horiz-adv-x="431" 
d="M211 0q-66 0 -105 81l-1 3q-5 22 -5 35v1319q0 83 87 115q20 4 24 4h3q78 0 112 -89q1 0 1 2q3 -24 3 -47v-1288q0 -104 -92 -131q-8 -4 -24 -4h-3z" />
    <glyph glyph-name="J" unicode="J" horiz-adv-x="1387" 
d="M694 0q-299 0 -492 234q-102 153 -102 334v208q0 79 86 113q6 2 29 4q73 0 111 -91l1 -1q2 -16 2 -20v-179q0 -197 95 -275q114 -99 271 -99q213 0 322 171q39 72 39 152v856q0 113 92 149h3l18 1h7q72 0 108 -88q3 -18 3 -39v-836q0 -204 -98.5 -346t-289.5 -217
q-115 -31 -201 -31h-4z" />
    <glyph glyph-name="K" unicode="K" horiz-adv-x="1346" 
d="M212 0q-68 0 -105 81q-7 22 -7 38v1319q0 80 88 116h2q12 3 22 3h2q80 0 113 -91q4 -32 4 -43l-4 -650l4 -638q0 -104 -93 -131q-10 -4 -24 -4h-2zM1130 0q-33 0 -72.5 24.5t-75.5 72.5l-655 676l147 154q512 533 597 612l7 5q27 13 55 13q72 0 108 -89l2 -10q1 -4 2 -10
t1 -8q0 -53 -105 -149q-444 -457 -486 -503q12 -35 564 -604q27 -44 27 -73q0 -40 -37 -75.5t-76 -35.5h-3z" />
    <glyph glyph-name="L" unicode="L" 
d="M211 0q-51 0 -83 44q-28 31 -28 71v1312q0 92 86 127h7q18 3 26 3q48 0 79.5 -38.5t31.5 -88.5v-1202h683q28 0 36 -3q92 -30 92 -106l-1 -10q-2 -10 -2 -17v-3q-34 -89 -126 -89h-801z" />
    <glyph glyph-name="M" unicode="M" horiz-adv-x="1655" 
d="M1552 1455q0 -2 1.5 -15t1.5 -19v-1288q0 -106 -92 -131q-10 -5 -25 -5h-1q-68 0 -106 81q-6 19 -6 39v974q-324 -438 -422 -560q-20 -22 -78 -29q-40 1 -70 20.5t-63 75.5l-353 473v-954q0 -78 -87 -110q-15 -7 -30 -7h-5q-76 0 -114 92l-1 6l-1 15q-1 2 -1 6v1316
q0 80 91 118h5q10 1 23 1q79 0 147 -119l461 -613q435 584 532 705l-4 -2q4 2 5 4l5 5q-1 -2 -3 -4q40 24 73 24h3q78 0 111 -85l1 -5q0 -2 0.5 -4.5t1.5 -4.5z" />
    <glyph glyph-name="N" unicode="N" horiz-adv-x="1596" 
d="M1494 1463l2 -23v-1325q0 -74 -88 -110l-2 -1h-1l-1 -1v1l-21 -3l-6 -1q-61 6 -128 97q-817 924 -919 1049v-1011q0 -104 -90 -130q-13 -5 -26 -5h-3q-67 0 -104 81q-7 22 -7 38v1326q0 46 34 76q17 17 47 31q17 5 30 5h9q58 -5 86 -50q27 -25 57 -67l904 -1021v1027
q0 44 35 76t80 35q73 -2 109 -87l2 -5q1 -1 1 -2z" />
    <glyph glyph-name="O" unicode="O" horiz-adv-x="1752" 
d="M1583 1097q59 -139 69 -296v-46q-10 -150 -61 -281l-6 -13l-1 -4q-89 -200 -246 -305q-194 -149 -463 -149q-108 0 -192 20.5t-181 70.5l-11 7q-47 26 -78 51q-147 98 -243 296l-1 3v9q-59 139 -69 295q0 12 3 22q-3 13 -3 24q10 157 69 296v4q82 190 244 303
q139 112 355 146q48 4 107 4q60 0 107 -4q82 -12 156 -40q50 -16 86 -37q64 -27 113 -69q155 -108 244 -294l2 -8v-5zM1261 388q162 160 162 390q0 226 -158 387l-5 4q-57 55 -115 90q-49 24 -84 38q-109 30 -194 30q-86 -3 -177 -30q-100 -37 -201 -129l-4 -5
q-107 -112 -144 -258q-14 -77 -14 -127q0 -48 14 -125q37 -150 146 -262l3 -3q60 -58 117 -91l16 -8q32 -16 67 -30q96 -27 177 -31q76 0 193 31q24 9 62 27l22 10q65 40 110 87q-2 -2 -6 -2zM1585 1097l-1 1l-1 4v4z" />
    <glyph glyph-name="P" unicode="P" horiz-adv-x="1337" 
d="M102 790v607l2 89v5q22 68 69 68h604q163 0 274.5 -84.5t167.5 -247.5q14 -65 18 -128q-2 -221 -190 -365q-117 -67 -245 -67h-471v-532q0 -44 -19 -80.5t-58 -46.5q-4 -2 -11 -2q-14 -6 -28 -6h-3q-64 0 -105 80l-2 5l-1 5q-2 16 -2 22q-2 12 -2 16v647zM331 893h446
q231 0 231 196v13q0 155 -140 218q-23 9 -66 9h-471v-436z" />
    <glyph glyph-name="Q" unicode="Q" horiz-adv-x="1752" 
d="M1585 461l-1 -4q-34 -77 -97 -166l110 -107l8 -11l4 -5h1q17 -39 17 -67q0 -40 -32 -72l-5 -6q-8 -9 -25 -16q-29 -14 -60 -14q-41 0 -73 33l-114 110q-200 -133 -443 -133q-108 0 -192 20.5t-181 70.5l-11 7q-47 26 -78 51q-147 98 -243 296l-1 3v9q-59 139 -69 295
q0 12 3 22q-3 13 -3 24q10 157 69 296v4q82 190 244 303q139 112 355 146q48 4 107 4q60 0 107 -4q82 -12 156 -40q50 -16 86 -37q64 -27 113 -69q155 -108 244 -294l2 -8v-5q59 -139 69 -296v-46q-10 -150 -61 -281zM1261 388q162 160 162 390q0 226 -158 387l-5 4
q-57 55 -115 90q-49 24 -84 38q-109 30 -194 30q-86 -3 -177 -30q-100 -37 -201 -129l-4 -5q-107 -112 -144 -258q-14 -77 -14 -127q0 -48 14 -125q37 -150 146 -262l3 -3q60 -58 117 -91l16 -8q32 -16 67 -30q96 -27 177 -31q76 0 193 31q24 9 62 27l22 10q65 40 110 87
q-2 -2 -6 -2zM1585 1097l-1 1l-1 4v4z" />
    <glyph glyph-name="R" unicode="R" horiz-adv-x="1401" 
d="M105 1130v267l2 90q21 72 68 72h673q159 0 270 -87.5t164 -244.5q13 -69 18 -128q-3 -224 -191 -365q-23 -14 -91 -44q249 -518 259 -555q5 -15 5 -23q0 -74 -89 -108l-4 -1l-25 -3q-85 2 -138 155l-244 512h-447v-532q0 -45 -20.5 -82t-60.5 -45q-4 -2 -5 -2
q-18 -6 -31 -6h-6q-70 0 -101 80q-2 6 -4 10l-3 21q0 2 -2 8l2 4v403zM867 906q162 0 191 171v39q0 144 -129 204q-26 9 -63 9h-531v-423h532zM100 97q1 -1 2.5 -2t2.5 -2.5t2 -2.5v-1q-1 2 -7 8zM109 85q-1 -1 -1 -3l-1 7z" />
    <glyph glyph-name="S" unicode="S" horiz-adv-x="1304" 
d="M954 1557h65q96 0 126 -89q3 -27 3 -30q0 -72 -92 -107q-1 -1 -4 -1l-27 -3l-490 2q-39 0 -66 -9q-139 -64 -139 -218v-13q0 -196 231 -196h209q127 0 244 -67q188 -141 190 -365q-4 -61 -18 -130q-56 -163 -167.5 -247t-274.5 -84h-508q-29 0 -51 9q-74 39 -78 101
q1 1 1 2l2 9q2 13 3 16q25 91 123 91l534 2q33 0 66 10q138 59 138 217v11q0 199 -230 199h-209q-126 0 -245 67q-187 144 -190 365q6 76 19 128q56 163 167.5 247.5t274.5 84.5h393v-2z" />
    <glyph glyph-name="T" unicode="T" horiz-adv-x="1423" 
d="M1237 1542q87 -31 87 -96q0 -4 -2 -14l-1 -6q-25 -82 -101 -82h-394v-1235l-1 -8q-1 -2 -1 -7l-2 -4q-6 -33 -28 -54q-32 -36 -79 -36h-6q-47 0 -80 36q-20 19 -28 51l-1 3l-2 11q0 2 -0.5 4.5t-0.5 3.5v1235h-393q-78 0 -101 82l-1 6q-2 10 -2 14q0 66 84 96l-1 -1l6 1
q6 1 15 1h1024q6 0 9 -1zM1236 1543h-1h1zM1240 1542h-3l-1 1zM826 98l-3 -11l1 7z" />
    <glyph glyph-name="U" unicode="U" horiz-adv-x="1390" 
d="M697 0q-299 0 -492 234q-99 149 -102 334l-3 874q1 49 34 80.5t82 36.5q73 -1 110 -94q1 0 1 2q2 -18 2 -22l2 -843q1 -194 96 -275q114 -99 271 -99q212 0 322 171q40 74 40 152v856q0 113 91 149h3l18 1h7q72 0 108 -91v3q3 -18 3 -39v-836q0 -411 -389 -563
q-114 -31 -200 -31h-4z" />
    <glyph glyph-name="V" unicode="V" horiz-adv-x="1606" 
d="M799 0q-89 5 -128 132q-562 1260 -562 1280q-7 10 -9 22v6q3 65 78 104q21 8 35 9h5q86 -3 130 -137l191 -430l44 -97q26 -57 50 -110t34.5 -76.5t19.5 -42.5t19 -43t17.5 -40.5t31 -72.5t44.5 -104q52 119 108.5 242.5t104.5 225.5t55 118q64 141 108 242l84 188
q44 136 132 137q11 -1 37 -9l1 -1q77 -39 77 -105q-2 -15 -8 -31q0 -16 -563 -1275q-39 -127 -127 -132h-9z" />
    <glyph glyph-name="W" unicode="W" horiz-adv-x="2082" 
d="M1981 1447l-1 -8v5q-21 -75 -102 -338l-90 -295q-28 -108 -227 -746q0 -2 -2 -4q-43 -61 -102 -61h-5q-49 0 -92 52l-1 1q-33 86 -318 1011q-32 -106 -172.5 -557.5t-145.5 -455.5q-43 -51 -94 -51h-3q-61 0 -102 59l-5 9q-170 544 -226 743l-92 303q-90 291 -99 327
l-1 6q-1 2 -1 6q4 63 79 100l13 2q18 4 20 4q77 0 112 -87l289 -957q8 80 314 951q31 93 109 93h11q75 0 109 -93q237 -764 303 -959l300 965q34 87 110 87q5 0 19 -3l11 -2h1v-1l6 -2q74 -39 75 -104z" />
    <glyph glyph-name="X" unicode="X" horiz-adv-x="1442" 
d="M1228 1557q79 0 113 -105q-1 0 -1 -7q0 -52 -84 -151l-384 -512l384 -519q84 -97 84 -149q0 -16 -2 -18q-30 -96 -110 -96h-7q-37 0 -75 34l-4 4l-413 552l-419 -555l-2 -2q-38 -33 -75 -33h-4q-80 0 -112 96l-1 2q0 2 -0.5 7t-1.5 9v2q1 49 86 147l382 519l-382 512
q-85 100 -86 149q1 3 0 4.5t-4 1.5t-10 -2l19 20q28 90 110 90h4q39 0 79 -37l48 -63q104 -140 369 -488q307 411 413 550l-2 -1q1 0 2 1l2 2l2 3v-1l-1 -1q43 35 76 35h7zM1140 1518l-1 -1z" />
    <glyph glyph-name="Y" unicode="Y" horiz-adv-x="1418" 
d="M709 0q-73 0 -109 80l-3 9l-1 13q-2 12 -2 15v615l-424 579q-70 88 -70 129v6l1 5q0 2 0.5 7t0.5 9l1 7q36 85 108 85q43 0 83 -37q27 -30 416 -564q391 536 414 564q38 37 85 37q71 0 106 -85l2 -10q0 -2 0.5 -5t0.5 -5v-14q0 -39 -67 -129l-427 -579v-615q0 -13 -3 -29
l-2 -8q-36 -80 -109 -80h-1z" />
    <glyph glyph-name="Z" unicode="Z" horiz-adv-x="1426" 
d="M219 6q-83 0 -112 81q-7 17 -7 30v2q0 54 82 145l800 1063h-749q-94 0 -126 87q-1 1 -1 6q-4 26 -6 32q6 57 73 94q22 11 49 11h984q79 0 111 -81q8 -19 8 -30v-1q0 -26 -25 -66q-53 -85 -480 -647q-92 -123 -343 -452l-39 -46h754q94 0 126 -86v-3q3 -21 6 -33
q-6 -61 -72 -95q-27 -11 -49 -11h-984z" />
    <glyph glyph-name="bracketleft" unicode="[" horiz-adv-x="695" 
d="M195 55q-41 0 -68 27t-27 70v1399q0 41 27 68t68 27h306q41 0 67.5 -27t26.5 -68v-4q0 -42 -23 -69.5t-59 -27.5h-141v-1190h129q41 0 67.5 -27t26.5 -69v-12q0 -43 -26.5 -70t-67.5 -27h-306z" />
    <glyph glyph-name="backslash" unicode="\" horiz-adv-x="1236" 
d="M958 55q-45 0 -68 41l-762 1369q-28 53 -28 100q0 35 17 58t46 23h119q47 0 69 -41l758 -1368q29 -53 29 -102q0 -35 -16 -57.5t-44 -22.5h-120z" />
    <glyph glyph-name="bracketright" unicode="]" horiz-adv-x="695" 
d="M195 55q-41 0 -68 27t-27 70v12q0 42 23 69t58 27h141v1190h-127q-41 0 -68 28t-27 69v4q0 41 27 68t68 27h306q41 0 67.5 -27t26.5 -68v-1399q0 -43 -26.5 -70t-67.5 -27h-306z" />
    <glyph glyph-name="asciicircum" unicode="^" horiz-adv-x="1520" 
d="M1248 698l-94 -42q-15 -7 -31 -7q-30 0 -50 39l-223 482l-91 203l-97 -203l-224 -483q-19 -38 -50 -38q-17 0 -32 7l-103 47q-31 15 -31 43q0 15 9 33l373 804q18 35 55 35h194q36 0 54 -36l376 -801q8 -21 8 -35q0 -29 -41 -47z" />
    <glyph glyph-name="underscore" unicode="_" horiz-adv-x="1142" 
d="M196 -315q-41 0 -68.5 27.5t-27.5 68.5v7q0 42 27 69.5t69 27.5h751q41 0 68 -27t27 -70v-7q0 -41 -27 -68.5t-68 -27.5h-751z" />
    <glyph glyph-name="a" unicode="a" horiz-adv-x="1703" 
d="M1512 328q86 -175 91 -214l-5 -28l-1 -5v3l-1 -3q-38 -81 -106 -81q-46 0 -84 39l-3 3q-17 27 -128 256q-12 22 -56 114l-736 -5q-151 -312 -184 -369q1 3 2 4l-3 -3q-38 -39 -84 -39q-72 0 -106 81l-1 3v-3l-1 5l-5 28v1q5 37 91 214q73 150 299 621l119 248
q76 160 96 201q23 42 32 58.5t25 42t27 34t26.5 16t33.5 7.5h4q38 0 62.5 -27.5t69.5 -109.5l12 -21q474 -992 514 -1071zM592 630h524q-35 58 -41 82q-32 66 -41 88l-38 78q-92 193 -142 302q-4 -8 -64.5 -132.5t-81.5 -169.5l-38 -78q-11 -25 -25 -54l-17 -35
q-4 -15 -36 -81zM1403 42q1 -1 1 -2v1z" />
    <glyph glyph-name="b" unicode="b" horiz-adv-x="1303" 
d="M211 0q-67 0 -104 81q-7 22 -7 38v1329q0 62 79 105q16 7 52 7h484q325 0 441 -324q20 -85 20 -139q0 -150 -111 -299v-22q138 -159 138 -328v-28q0 -202 -178 -343q-112 -77 -286 -77h-528zM330 893h385q152 0 200 84q31 57 31 105v28q0 147 -137 210q-37 10 -66 10
h-413v-437zM330 230h448q162 0 194 161q4 22 4 42q0 159 -137 221q-32 13 -89 13h-420v-437z" />
    <glyph glyph-name="c" unicode="c" horiz-adv-x="1684" 
d="M889 2l-34 1q-33 0 -50 1l-50 7q-189 29 -333.5 133.5t-226.5 262t-95 348.5q0 12 3 22q-3 13 -3 24q13 190 94.5 348t227 263t333.5 132l46 8q5 0 7 1h79q45 0 95 -3q87 -15 168 -43q147 -57 257.5 -159t173.5 -243q2 -6 2 -9l1 -13q0 -48 -29.5 -82.5t-76.5 -34.5
q-28 0 -58 13l-3 1h-1q-10 9 -20 13l-12 12q-31 59 -71 111l-5 4q-11 15 -20 24l-6 6l-25 26q-82 79 -196 121q-103 30 -195 30q-75 0 -139 -19l-48 -14q-94 -35 -190 -126l-4 -5q-107 -112 -144 -258q-14 -77 -14 -127q0 -48 14 -125q37 -150 146 -262l3 -3
q161 -159 377 -159q92 0 194 30q127 48 221 147q1 1 9 9.5t13 15.5q1 2 3 4l7 6q31 40 73 111q5 7 6 8l26 18q1 1 4 3q26 10 51 10q49 0 79.5 -34.5t30.5 -84.5l-1 -13q0 -1 -2 -9q-90 -195 -243 -298q-147 -113 -356 -145q-53 -5 -93 -5z" />
    <glyph glyph-name="d" unicode="d" horiz-adv-x="1549" 
d="M211 0q-37 0 -66 24q-19 15 -33 43l-5 16q-3 5 -5 17v4q-2 7 -2 15v1319q0 79 82 115l8 1q12 3 21 3h452q280 0 469 -133.5t280 -390.5q37 -140 37 -249q0 -324 -229 -575q-209 -209 -560 -209h-449zM330 228h376q346 0 483 353q30 101 30 194v17q0 337 -283 490
q-105 45 -227 45h-379v-1099z" />
    <glyph glyph-name="e" unicode="e" horiz-adv-x="1240" 
d="M1018 1327h-688v-434h454q62 0 98 -66q1 -3 2.5 -6.5t2 -6.5t2 -7t2.5 -7l2 -5v-6q0 -2 0.5 -5t0.5 -5v-4q0 -60 -62 -94l-21 -12h-5q-14 -3 -22 -3h-454v-438h682q95 0 123 -87l1 -8l1 -7q2 -10 4 -16q-3 -65 -78 -101q-21 -9 -51 -9h-801q-42 0 -71 30q-24 21 -37 56v6
q0 7 -2 15l-1 12v1327q0 74 88 108h2q12 3 21 3h801q88 0 120 -74l4 -12v-4q5 -17 5 -21v-8q0 -53 -53 -87q-5 -5 -15 -11h-2l-10 -5l-9 -3l-5 -2zM806 667l2 1q2 0 3 1h5z" />
    <glyph glyph-name="f" unicode="f" horiz-adv-x="1240" 
d="M1137 1467q4 -16 4 -29q0 -72 -92 -107q-2 -1 -5 -1l-27 -3h-687v-434h399q77 0 109 -94l1 -24q0 -43 -34 -76t-76 -33h-399v-531q0 -98 -77 -127q1 1 0 1h-3q-14 -9 -36 -9h-3q-68 0 -106 87l1 -4v-6l-1 9v-2v4v2q-5 20 -5 29v1326q0 24 12 50q17 33 73 57q4 2 7 2
q11 3 19 3h801q96 0 125 -90z" />
    <glyph glyph-name="g" unicode="g" horiz-adv-x="1714" 
d="M1584 730l2 -12v-188l-2 -74l-1 -2q-90 -198 -245 -302q-147 -113 -356 -145q-53 -5 -93 -5l-34 1q-33 0 -50 1l-50 7q-189 29 -333.5 133.5t-226.5 262t-95 348.5q0 12 3 22q-3 13 -3 24q13 190 94.5 348t227 263t333.5 132l46 8q5 0 7 1h79q45 0 95 -3q87 -15 168 -43
q147 -57 257.5 -159t173.5 -243q2 -6 2 -9t0.5 -7t0.5 -6q0 -48 -29.5 -82.5t-76.5 -34.5q-28 0 -58 13l-3 1h-1q-10 9 -20 13l-12 12q-31 59 -71 111l-5 4q-11 15 -20 24l-6 6l-25 26q-82 79 -196 121q-103 30 -195 30q-75 0 -139 -19l-48 -14q-94 -35 -190 -126l-4 -5
q-107 -112 -144 -258q-14 -77 -14 -127q0 -48 14 -125q37 -150 146 -262l3 -3q161 -159 377 -159q92 0 194 30q127 48 221 147q1 1 9 9.5t13 15.5q1 2 3 4l7 6q5 7 16 18v156h-431q-83 0 -115 83v1q-1 1 -1 2l1 -1l-1 8q-2 8 -2 11q0 65 95 94l11 2q5 1 12 1h573
q74 0 109 -75l3 -9v-2z" />
    <glyph glyph-name="h" unicode="h" horiz-adv-x="1375" 
d="M211 0q-71 0 -106 87l-1 5l-2 12q-2 16 -2 24v1303q0 90 80 122l6 1l13 2q12 3 20 3q73 0 106 -92q5 -16 5 -39v-534h716v546q0 77 81 114q18 5 30 5h3q79 0 113 -90v-1l1 -16q2 -22 2 -29v-1287q0 -99 -87 -133h-7l-14 -3h-11q-68 0 -103 81q-8 26 -8 38v548h-716v-537
q0 -94 -86 -127h-7l-21 -3h-5z" />
    <glyph glyph-name="i" unicode="i" horiz-adv-x="430" 
d="M211 0q-66 0 -105 81l-1 3q-5 22 -5 35v1319q0 83 87 115q20 4 24 4h3q78 0 112 -89q1 0 1 2q3 -24 3 -47v-1288q0 -104 -92 -131q-8 -4 -24 -4h-3z" />
    <glyph glyph-name="j" unicode="j" horiz-adv-x="1387" 
d="M694 0q-299 0 -492 234q-102 153 -102 334v208q0 79 86 113q6 2 29 4q73 0 111 -91l1 -1q2 -16 2 -20v-179q0 -197 95 -275q114 -99 271 -99q213 0 322 171q39 72 39 152v856q0 113 92 149h3l18 1h7q72 0 108 -88q3 -18 3 -39v-836q0 -204 -98.5 -346t-289.5 -217
q-115 -31 -201 -31h-4z" />
    <glyph glyph-name="k" unicode="k" horiz-adv-x="1345" 
d="M212 0q-68 0 -105 81q-7 22 -7 38v1319q0 80 88 116h2q12 3 22 3h2q80 0 113 -91q4 -32 4 -43l-4 -650l4 -638q0 -104 -93 -131q-10 -4 -24 -4h-2zM1130 0q-33 0 -72.5 24.5t-75.5 72.5l-655 676l147 154q512 533 597 612l7 5q27 13 55 13q72 0 108 -89l2 -10q1 -4 2 -10
t1 -8q0 -53 -105 -149q-444 -457 -486 -503q12 -35 564 -604q27 -44 27 -73q0 -40 -37 -75.5t-76 -35.5h-3z" />
    <glyph glyph-name="l" unicode="l" horiz-adv-x="1240" 
d="M211 0q-51 0 -83 44q-28 31 -28 71v1312q0 92 86 127h7q18 3 26 3q48 0 79.5 -38.5t31.5 -88.5v-1202h683q28 0 36 -3q92 -30 92 -106l-1 -10q-2 -10 -2 -17v-3q-34 -89 -126 -89h-801z" />
    <glyph glyph-name="m" unicode="m" horiz-adv-x="1655" 
d="M1552 1455q0 -2 1.5 -15t1.5 -19v-1288q0 -106 -92 -131q-10 -5 -25 -5h-1q-68 0 -106 81q-6 19 -6 39v974q-324 -438 -422 -560q-20 -22 -78 -29q-40 1 -70 20.5t-63 75.5l-353 473v-954q0 -78 -87 -110q-15 -7 -30 -7h-5q-76 0 -114 92l-1 6l-1 15q-1 2 -1 6v1316
q0 80 91 118h5q10 1 23 1q79 0 147 -119l461 -613q435 584 532 705l-4 -2q4 2 5 4l5 5q-1 -2 -3 -4q40 24 73 24h3q78 0 111 -85l1 -5q0 -2 0.5 -4.5t1.5 -4.5z" />
    <glyph glyph-name="n" unicode="n" horiz-adv-x="1595" 
d="M1494 1463l2 -23v-1325q0 -74 -88 -110l-2 -1h-1l-1 -1v1l-21 -3l-6 -1q-61 6 -128 97q-817 924 -919 1049v-1011q0 -104 -90 -130q-13 -5 -26 -5h-3q-67 0 -104 81q-7 22 -7 38v1326q0 46 34 76q17 17 47 31q17 5 30 5h9q58 -5 86 -50q27 -25 57 -67l904 -1021v1027
q0 44 35 76t80 35q73 -2 109 -87l2 -5q1 -1 1 -2z" />
    <glyph glyph-name="o" unicode="o" horiz-adv-x="1751" 
d="M1583 1097q59 -139 69 -296v-46q-10 -150 -61 -281l-6 -13l-1 -4q-89 -200 -246 -305q-194 -149 -463 -149q-108 0 -192 20.5t-181 70.5l-11 7q-47 26 -78 51q-147 98 -243 296l-1 3v9q-59 139 -69 295q0 12 3 22q-3 13 -3 24q10 157 69 296v4q82 190 244 303
q139 112 355 146q48 4 107 4q60 0 107 -4q82 -12 156 -40q50 -16 86 -37q64 -27 113 -69q155 -108 244 -294l2 -8v-5zM1261 388q162 160 162 390q0 226 -158 387l-5 4q-57 55 -115 90q-49 24 -84 38q-109 30 -194 30q-86 -3 -177 -30q-100 -37 -201 -129l-4 -5
q-107 -112 -144 -258q-14 -77 -14 -127q0 -48 14 -125q37 -150 146 -262l3 -3q60 -58 117 -91l16 -8q32 -16 67 -30q96 -27 177 -31q76 0 193 31q24 9 62 27l22 10q65 40 110 87q-2 -2 -6 -2zM1585 1097l-1 1l-1 4v4z" />
    <glyph glyph-name="p" unicode="p" horiz-adv-x="1337" 
d="M102 790v607l2 89v5q22 68 69 68h604q163 0 274.5 -84.5t167.5 -247.5q14 -65 18 -128q-2 -221 -190 -365q-117 -67 -245 -67h-471v-532q0 -44 -19 -80.5t-58 -46.5q-4 -2 -11 -2q-14 -6 -28 -6h-3q-64 0 -105 80l-2 5l-1 5q-2 16 -2 22q-2 12 -2 16v647zM331 893h446
q231 0 231 196v13q0 155 -140 218q-23 9 -66 9h-471v-436z" />
    <glyph glyph-name="q" unicode="q" horiz-adv-x="1751" 
d="M1585 461l-1 -4q-34 -77 -97 -166l110 -107l8 -11l4 -5h1q17 -39 17 -67q0 -40 -32 -72l-5 -6q-8 -9 -25 -16q-29 -14 -60 -14q-41 0 -73 33l-114 110q-200 -133 -443 -133q-108 0 -192 20.5t-181 70.5l-11 7q-47 26 -78 51q-147 98 -243 296l-1 3v9q-59 139 -69 295
q0 12 3 22q-3 13 -3 24q10 157 69 296v4q82 190 244 303q139 112 355 146q48 4 107 4q60 0 107 -4q82 -12 156 -40q50 -16 86 -37q64 -27 113 -69q155 -108 244 -294l2 -8v-5q59 -139 69 -296v-46q-10 -150 -61 -281zM1261 388q162 160 162 390q0 226 -158 387l-5 4
q-57 55 -115 90q-49 24 -84 38q-109 30 -194 30q-86 -3 -177 -30q-100 -37 -201 -129l-4 -5q-107 -112 -144 -258q-14 -77 -14 -127q0 -48 14 -125q37 -150 146 -262l3 -3q60 -58 117 -91l16 -8q32 -16 67 -30q96 -27 177 -31q76 0 193 31q24 9 62 27l22 10q65 40 110 87
q-2 -2 -6 -2zM1585 1097l-1 1l-1 4v4z" />
    <glyph glyph-name="r" unicode="r" horiz-adv-x="1400" 
d="M105 1130v267l2 90q21 72 68 72h673q159 0 270 -87.5t164 -244.5q13 -69 18 -128q-3 -224 -191 -365q-23 -14 -91 -44q249 -518 259 -555q5 -15 5 -23q0 -74 -89 -108l-4 -1l-25 -3q-85 2 -138 155l-244 512h-447v-532q0 -45 -20.5 -82t-60.5 -45q-4 -2 -5 -2
q-18 -6 -31 -6h-6q-70 0 -101 80q-2 6 -4 10l-3 21q0 2 -2 8l2 4v403zM867 906q162 0 191 171v39q0 144 -129 204q-26 9 -63 9h-531v-423h532zM100 97q1 -1 2.5 -2t2.5 -2.5t2 -2.5v-1q-1 2 -7 8zM109 85q-1 -1 -1 -3l-1 7z" />
    <glyph glyph-name="s" unicode="s" horiz-adv-x="1304" 
d="M954 1557h65q96 0 126 -89q3 -27 3 -30q0 -72 -92 -107q-1 -1 -4 -1l-27 -3l-490 2q-39 0 -66 -9q-139 -64 -139 -218v-13q0 -196 231 -196h209q127 0 244 -67q188 -141 190 -365q-4 -61 -18 -130q-56 -163 -167.5 -247t-274.5 -84h-508q-29 0 -51 9q-74 39 -78 101
q1 1 1 2l2 9q2 13 3 16q25 91 123 91l534 2q33 0 66 10q138 59 138 217v11q0 199 -230 199h-209q-126 0 -245 67q-187 144 -190 365q6 76 19 128q56 163 167.5 247.5t274.5 84.5h393v-2z" />
    <glyph glyph-name="t" unicode="t" horiz-adv-x="1422" 
d="M1237 1542q87 -31 87 -96q0 -4 -2 -14l-1 -6q-25 -82 -101 -82h-394v-1235l-1 -8q-1 -2 -1 -7l-2 -4q-6 -33 -28 -54q-32 -36 -79 -36h-6q-47 0 -80 36q-20 19 -28 51l-1 3l-2 11q0 2 -0.5 4.5t-0.5 3.5v1235h-393q-78 0 -101 82l-1 6q-2 10 -2 14q0 66 84 96l-1 -1l6 1
q6 1 15 1h1024q6 0 9 -1zM1236 1543h-1h1zM1240 1542h-3l-1 1zM826 98l-3 -11l1 7z" />
    <glyph glyph-name="u" unicode="u" horiz-adv-x="1390" 
d="M697 0q-299 0 -492 234q-99 149 -102 334l-3 874q1 49 34 80.5t82 36.5q73 -1 110 -94q1 0 1 2q2 -18 2 -22l2 -843q1 -194 96 -275q114 -99 271 -99q212 0 322 171q40 74 40 152v856q0 113 91 149h3l18 1h7q72 0 108 -91v3q3 -18 3 -39v-836q0 -411 -389 -563
q-114 -31 -200 -31h-4z" />
    <glyph glyph-name="v" unicode="v" horiz-adv-x="1606" 
d="M799 0q-89 5 -128 132q-562 1260 -562 1280q-7 10 -9 22v6q3 65 78 104q21 8 35 9h5q86 -3 130 -137l191 -430l44 -97q26 -57 50 -110t34.5 -76.5t19.5 -42.5t19 -43t17.5 -40.5t31 -72.5t44.5 -104q52 119 108.5 242.5t104.5 225.5t55 118q64 141 108 242l84 188
q44 136 132 137q11 -1 37 -9l1 -1q77 -39 77 -105q-2 -15 -8 -31q0 -16 -563 -1275q-39 -127 -127 -132h-9z" />
    <glyph glyph-name="w" unicode="w" horiz-adv-x="2081" 
d="M1981 1447l-1 -8v5q-21 -75 -102 -338l-90 -295q-28 -108 -227 -746q0 -2 -2 -4q-43 -61 -102 -61h-5q-49 0 -92 52l-1 1q-33 86 -318 1011q-32 -106 -172.5 -557.5t-145.5 -455.5q-43 -51 -94 -51h-3q-61 0 -102 59l-5 9q-170 544 -226 743l-92 303q-90 291 -99 327
l-1 6q-1 2 -1 6q4 63 79 100l13 2q18 4 20 4q77 0 112 -87l289 -957q8 80 314 951q31 93 109 93h11q75 0 109 -93q237 -764 303 -959l300 965q34 87 110 87q5 0 19 -3l11 -2h1v-1l6 -2q74 -39 75 -104z" />
    <glyph glyph-name="x" unicode="x" horiz-adv-x="1441" 
d="M1228 1557q79 0 113 -105q-1 0 -1 -7q0 -52 -84 -151l-384 -512l384 -519q84 -97 84 -149q0 -16 -2 -18q-30 -96 -110 -96h-7q-37 0 -75 34l-4 4l-413 552l-419 -555l-2 -2q-38 -33 -75 -33h-4q-80 0 -112 96l-1 2q0 2 -0.5 7t-1.5 9v2q1 49 86 147l382 519l-382 512
q-85 100 -86 149q1 3 0 4.5t-4 1.5t-10 -2l19 20q28 90 110 90h4q39 0 79 -37l48 -63q104 -140 369 -488q307 411 413 550l-2 -1q1 0 2 1l2 2l2 3v-1l-1 -1q43 35 76 35h7zM1140 1518l-1 -1z" />
    <glyph glyph-name="y" unicode="y" horiz-adv-x="1418" 
d="M709 0q-73 0 -109 80l-3 9l-1 13q-2 12 -2 15v615l-424 579q-70 88 -70 129v6l1 5q0 2 0.5 7t0.5 9l1 7q36 85 108 85q43 0 83 -37q27 -30 416 -564q391 536 414 564q38 37 85 37q71 0 106 -85l2 -10q0 -2 0.5 -5t0.5 -5v-14q0 -39 -67 -129l-427 -579v-615q0 -13 -3 -29
l-2 -8q-36 -80 -109 -80h-1z" />
    <glyph glyph-name="z" unicode="z" horiz-adv-x="1425" 
d="M219 6q-83 0 -112 81q-7 17 -7 30v2q0 54 82 145l800 1063h-749q-94 0 -126 87q-1 1 -1 6q-4 26 -6 32q6 57 73 94q22 11 49 11h984q79 0 111 -81q8 -19 8 -30v-1q0 -26 -25 -66q-53 -85 -480 -647q-92 -123 -343 -452l-39 -46h754q94 0 126 -86v-3q3 -21 6 -33
q-6 -61 -72 -95q-27 -11 -49 -11h-984z" />
    <glyph glyph-name="braceleft" unicode="{" horiz-adv-x="733" 
d="M219 65q-51 0 -51 50v1334q0 51 51 51h290q51 0 51 -51v-133q0 -2 -2 -2h-192v-1065h192q2 0 2 -2v-132q0 -50 -51 -50h-290z" />
    <glyph glyph-name="bar" unicode="|" horiz-adv-x="582" 
d="M239 65q-30 0 -46.5 16t-16.5 45v1455q0 29 16.5 45t46.5 16h103q62 0 62 -61v-1455q0 -61 -62 -61h-103z" />
    <glyph glyph-name="braceright" unicode="}" horiz-adv-x="733" 
d="M219 65q-51 0 -51 50v134h192v1065h-190q-2 0 -2 2v133q0 51 51 51h290q51 0 51 -51v-1334q0 -50 -51 -50h-290z" />
    <glyph glyph-name="asciitilde" unicode="~" horiz-adv-x="1362" 
d="M1119 735l-880 2q-30 0 -46.5 16t-16.5 45v90q0 29 16.5 45t46.5 16l880 -2q29 0 45.5 -16.5t16.5 -45.5v-89q0 -29 -16.5 -45t-45.5 -16z" />
    <glyph glyph-name="exclamdown" unicode="&#xa1;" horiz-adv-x="478" 
d="M238 1443q-57 0 -97.5 30t-40.5 72q0 43 39.5 72t98.5 29t99 -29t40 -72q0 -42 -40 -72t-99 -30zM196 55q-42 0 -69 27.5t-27 69.5v928q0 42 27 68.5t69 26.5h85q42 0 69 -26.5t27 -68.5v-928q0 -42 -27.5 -69.5t-68.5 -27.5h-85z" />
    <glyph glyph-name="cent" unicode="&#xa2;" horiz-adv-x="1384" 
d="M1220 696q43 0 64 -30t21 -75l-1 -4q-47 -113 -124 -182l-8 -7q-39 -37 -70 -57q-101 -82 -265 -115q-3 -130 -96 -155q-8 -4 -25 -4h-3q-55 0 -110 84l-1 3q-4 26 -5 38v35q-227 48 -365 212.5t-153 398.5q0 11 1 19q-1 10 -1 19q16 240 151 399.5t367 211.5v71
q0 86 90 120q22 4 26 4h3q60 0 118 -93v-3q3 -14 3 -31v-64q167 -40 265 -116q63 -42 125.5 -113t74.5 -128l2 -8l1 -3q0 -44 -20 -73.5t-62 -29.5q-16 0 -48 9l-1 1l-3 2q-6 2 -16 11q-6 6 -7 8q-10 14 -26 40q-19 33 -36 52l-4 4q-5 9 -18 22l-22 24q-72 69 -205 115v-903
q148 57 206 119l18 20l3 2q17 17 19 21q4 4 6 8l1 1q11 15 25 39q20 33 32 48q1 2 4.5 5.5t4.5 5.5l17 11l5 4l-3 -1q23 8 45 8zM597 421v893l-45 -22q-80 -30 -156 -105l-4 -4q-91 -95 -123 -219q-11 -79 -11 -106q0 -32 10 -98l1 -7q34 -132 124 -221l3 -3
q67 -67 153 -103l-5 4q10 -9 53 -9zM1083 569l1 1v-1q-1 -1 -1 -2q-1 0 -1 -0.5t-1 -0.5z" />
    <glyph glyph-name="sterling" unicode="&#xa3;" horiz-adv-x="1530" 
d="M659 464l-31 -74q-6 -14 -6 -27q0 -33 29 -57t72 -24h562q29 0 45.5 -16t16.5 -45v-95q0 -29 -16.5 -45t-45.5 -16h-1039q-58 0 -63 63l-10 149q218 113 270 272q4 12 4 26q0 34 -25.5 57.5t-62.5 23.5h-140q-36 0 -36 36v182h66q39 0 63 25.5t24 63.5q0 17 -6 33
q-24 84 -24 147q0 137 72 251.5t191.5 178.5t257.5 64q209 0 366 -144q113 -118 144 -257v-2q0 3 -13 3h-235q5 0 1 11q-23 50 -61 93q-91 79 -202 79q-118 0 -204 -78q-47 -48 -62 -94q-22 -45 -22 -104l1 -10l9 -54q15 -52 49 -98l34 -66q23 -42 70 -42h270q62 0 62 -63
v-93q0 -29 -16 -45.5t-46 -16.5h-200q-30 0 -51 -17t-28 -46l-12 -55z" />
    <glyph glyph-name="yen" unicode="&#xa5;" horiz-adv-x="1383" 
d="M458 1515l135 -288q2 -5 9 -21t11.5 -26t12.5 -26.5t14.5 -26.5t14.5 -21t16 -16t16 -5q10 0 21 9.5t22.5 29.5t18.5 33.5t18.5 39.5t13.5 30l165 356q18 35 56 35h128q59 0 59 -22q0 -18 -14 -49l-214 -462q-10 -21 -10 -43q0 -39 26.5 -65t68.5 -26h141q22 0 34 -12
t12 -33v-99q0 -62 -62 -62h-289q-36 0 -60 -24.5t-24 -60.5v-84q0 -37 24 -61t60 -24h289q62 0 62 -63v-82q0 -30 -16.5 -46.5t-45.5 -16.5h-289q-36 0 -60 -24.5t-24 -60.5v-118q0 -15 -16 -15h-192q-15 0 -15 15v119q0 37 -24 60.5t-60 23.5l-286 3q-30 0 -46.5 16.5
t-16.5 45.5v80q0 30 16.5 46.5t46.5 16.5h285q36 0 60.5 24t24.5 61v84q0 36 -24.5 60.5t-60.5 24.5h-285q-63 0 -63 62v101q0 43 46 43h139q42 0 68.5 26t26.5 65q0 20 -9 43l-214 462q-14 31 -14 48q0 23 60 23h126q27 0 44 -19z" />
    <glyph glyph-name="copyright" unicode="&#xa9;" horiz-adv-x="1634" 
d="M817 39q-200 0 -370 99t-269 269t-99 370t99 370t269 269t370 99t370 -99t269 -269t99 -370t-99 -370t-269 -269t-370 -99zM817 154q169 0 312.5 83.5t227 227t83.5 312.5t-83.5 312.5t-227 227t-312.5 83.5t-312.5 -83.5t-227 -227t-83.5 -312.5t83.5 -312.5t227 -227
t312.5 -83.5zM803 344q-17 0 -27 1l-27 3q-124 14 -233 119q-113 110 -124 287q0 9 2 13q-2 5 -2 13q11 175 124 288q87 87 233 116l25 5h29q45 0 70 -1q62 -12 91 -24q69 -30 103 -56q25 -18 50 -43q23 -23 35.5 -36.5t27 -37t20.5 -46.5q2 -8 2 -11q0 -41 -22 -63
q-32 -32 -84 -14l-6 2q-1 2 -6 5l-4 2q-10 10 -11 12q-25 41 -36 55l-3 2l-2 4q-2 3 -6 7l-5 5l-13 14q-40 39 -97 59q-93 28 -166 6l-24 -7q-48 -18 -93 -62l-2 -3q-54 -54 -72 -128q-8 -44 -8 -63q0 -20 8 -62q18 -76 72 -130l2 -2q33 -33 93 -62q8 -4 24 -8q78 -20 166 6
q53 20 97 61l13 12q1 1 4.5 5t4.5 6l5 5l2 2q28 39 37 56q4 8 8 10l12 8q3 3 6 4q52 17 84 -15q22 -22 22 -65q0 -3 -2 -9q-21 -62 -83 -121q-32 -30 -50 -42q-40 -32 -103 -56q-46 -17 -91 -23q-25 -3 -70 -3z" />
    <glyph glyph-name="registered" unicode="&#xae;" horiz-adv-x="1634" 
d="M817 39q-200 0 -370 99t-269 269t-99 370t99 370t269 269t370 99t370 -99t269 -269t99 -370t-99 -370t-269 -269t-370 -99zM817 154q169 0 312.5 83.5t227 227t83.5 312.5t-83.5 312.5t-227 227t-312.5 83.5t-312.5 -83.5t-227 -227t-83.5 -312.5t83.5 -312.5t227 -227
t312.5 -83.5zM591 372q-44 0 -65 52v1l-1 1q-1 1 -1 2l-1 13l-1 3v4q0 3 1 4v198q-1 3 -1 12v277q0 3 0.5 9t0.5 9v133l1 45q0 5 1 8q15 44 48 44h339q26 0 57 -7q127 -26 176 -171q5 -37 8 -68q0 -121 -102 -197q-6 -4 -34 -17q75 -155 125 -267q3 -8 3 -16q0 -40 -54 -68
q-4 -2 -7 -2l-13 -2q-55 0 -84 88l-119 247h-199v-252q0 -53 -37 -73q-1 0 -6 -1.5t-8 -2.5q-2 -2 -5 -2q-10 -4 -19 -4h-3zM669 858h251q69 0 82 72v19q0 62 -55 88q-12 4 -27 4h-251v-183z" />
    <glyph glyph-name="degree" unicode="&#xb0;" horiz-adv-x="1269" 
d="M631 748q-184 0 -319 125t-136 309q1 184 134.5 310t320.5 126q121 0 226.5 -56t170 -157t64.5 -223q0 -120 -64.5 -221t-170 -157t-226.5 -56zM631 960q81 0 155.5 71.5t74.5 150.5t-75 151.5t-155 72.5q-78 0 -152.5 -73t-74.5 -151t74 -150t153 -72z" />
    <glyph glyph-name="periodcentered" unicode="&#xb7;" horiz-adv-x="463" 
d="M229 680q-42 0 -73 28.5t-31 70.5q0 44 29 67q31 32 75 32q43 0 82 -32q25 -24 25 -67q0 -41 -32.5 -70t-74.5 -29z" />
    <glyph glyph-name="questiondown" unicode="&#xbf;" horiz-adv-x="1313" 
d="M546 1355q-29 28 -29 65q0 38 29 64q30 30 72 30q45 0 70 -23q17 -20 26 -36q6 -17 6 -35q0 -16 -6 -31q-12 -22 -23.5 -34t-32.5 -23q-19 -6 -40 -6q-42 0 -72 29zM705 1004q-43 -177 -186 -280q-149 -106 -151 -236q0 -65 40.5 -121t101.5 -92q54 -27 108 -27
q24 0 47 6h2l80 25q71 40 106 106q39 56 39 137v19h201v-19q0 -157 -97 -277.5t-251 -164.5q-67 -15 -119 -15q-116 0 -222 56.5t-172 157t-66 217.5q0 108 67.5 207.5t167.5 170.5q69 50 105 146h203z" />
    <glyph glyph-name="multiply" unicode="&#xd7;" horiz-adv-x="1347" 
d="M329 363q-26 0 -43 18l-51 50q-17 19 -17 44q0 47 46 92l258 258l-264 265q-29 28 -29 68t29 68l6 6q30 30 67 30t70 -30l264 -263l259 258q46 46 92 46q25 0 43 -18l52 -50q17 -17 17 -43q0 -45 -47 -94l-258 -258l265 -264q31 -33 31 -69q0 -34 -30 -67l-8 -6
q-30 -30 -69 -30q-36 0 -67 28l-265 266l-258 -258q-47 -47 -93 -47z" />
    <glyph glyph-name="divide" unicode="&#xf7;" horiz-adv-x="1364" 
d="M671 1135q-59 0 -99.5 30.5t-40.5 75.5q0 43 40 71t100 28q58 0 97.5 -29t39.5 -70q0 -45 -39.5 -75.5t-97.5 -30.5zM196 717q-41 0 -68.5 27.5t-27.5 69.5v8q0 42 27 69t69 27h973q41 0 67.5 -27t26.5 -69v-8q0 -42 -26.5 -69.5t-67.5 -27.5h-973zM671 315
q-60 0 -100 30t-40 76q0 43 40 71t100 28q58 0 97.5 -29t39.5 -70q0 -46 -39.5 -76t-97.5 -30z" />
    <glyph glyph-name="endash" unicode="&#x2013;" horiz-adv-x="1274" 
d="M1038 686l-819 4q-51 0 -51 50v82q0 49 51 51l818 -2q51 0 51 -51v-83q0 -49 -50 -51z" />
    <glyph glyph-name="emdash" unicode="&#x2014;" horiz-adv-x="1274" 
d="M1038 686l-819 4q-51 0 -51 50v82q0 49 51 51l818 -2q51 0 51 -51v-83q0 -49 -50 -51z" />
    <glyph glyph-name="quoteleft" unicode="&#x2018;" horiz-adv-x="537" 
d="M219 1103q-51 0 -51 51v451q0 51 51 51h97q50 0 50 -51v-451q0 -51 -50 -51h-97z" />
    <glyph glyph-name="quoteright" unicode="&#x2019;" horiz-adv-x="537" 
d="M219 1103q-51 0 -51 51v451q0 51 51 51h97q50 0 50 -51v-451q0 -51 -50 -51h-97z" />
    <glyph glyph-name="quotesinglbase" unicode="&#x201a;" horiz-adv-x="508" 
d="M245 77h71q20 0 20 4q0 -6 -8 -25l-82 -196q-16 -33 -50 -33h-67q-22 0 -22 -4q0 8 7 25l60 144q13 36 33.5 60.5t37.5 24.5z" />
    <glyph glyph-name="quotedblleft" unicode="&#x201c;" horiz-adv-x="1033" 
d="M219 1103q-51 0 -51 51v451q0 51 51 51h97q50 0 50 -51v-451q0 -51 -50 -51h-97zM715 1103q-51 0 -51 51v451q0 51 51 51h97q50 0 50 -51v-451q0 -51 -50 -51h-97z" />
    <glyph glyph-name="quotedblright" unicode="&#x201d;" horiz-adv-x="1033" 
d="M219 1103q-51 0 -51 51v451q0 51 51 51h97q50 0 50 -51v-451q0 -51 -50 -51h-97zM715 1103q-51 0 -51 51v451q0 51 51 51h97q50 0 50 -51v-451q0 -51 -50 -51h-97z" />
    <glyph glyph-name="bullet" unicode="&#x2022;" horiz-adv-x="463" 
d="M229 680q-42 0 -73 28.5t-31 70.5q0 44 29 67q31 32 75 32q43 0 82 -32q25 -24 25 -67q0 -41 -32.5 -70t-74.5 -29z" />
    <glyph glyph-name="guilsinglleft" unicode="&#x2039;" horiz-adv-x="1314" 
d="M1012 312q-11 0 -24 5l-785 336q-35 15 -35 51v155q0 32 33 50l787 336q16 6 23 6q26 0 42 -35l37 -77q6 -13 6 -26q0 -26 -34 -41l-682 -291l682 -291q34 -17 34 -43q0 -21 -18 -52l-24 -52q-18 -31 -42 -31z" />
    <glyph glyph-name="guilsinglright" unicode="&#x203a;" horiz-adv-x="1314" 
d="M295 312q-27 0 -42 31l-24 52q-19 33 -19 52q0 25 35 43l682 291l-683 291q-34 15 -34 41q0 10 7 26l36 77q17 35 42 35q11 0 24 -6l787 -336q33 -18 33 -50v-155q0 -36 -35 -51l-785 -336q-13 -5 -24 -5z" />
    <glyph glyph-name="fraction" unicode="&#x2044;" horiz-adv-x="1219" 
d="M227 55q-57 0 -92 32t-35 80q0 36 20 70l756 1368q25 41 70 41h46q56 0 91 -32t35 -80q0 -35 -19 -69l-759 -1368q-25 -42 -70 -42h-43z" />
    <glyph glyph-name="Euro" unicode="&#x20ac;" horiz-adv-x="1400" 
d="M1218 1404q0 -36 -35 -36h-129q-81 0 -171 -24q-109 -38 -176 -96q-29 -26 -29 -61t29 -61.5t71 -26.5h1l188 4q25 0 40 -13t17 -36l3 -66q0 -26 -15 -40.5t-43 -14.5l-400 -3q-35 0 -59 -23.5t-24 -58.5v-63q0 -35 24 -59t59 -24l397 3q25 0 40.5 -12.5t17.5 -34.5
l3 -66q0 -27 -15.5 -42t-42.5 -15l-190 -2q-42 -1 -71 -27.5t-29 -61.5q0 -36 40.5 -70.5t83 -53t81.5 -28.5q80 -27 170 -27h129q35 0 35 -36v-130q0 -37 -35 -37h-129q-225 0 -413.5 114.5t-299.5 313.5q-21 41 -67 41h-98v169h15q33 0 54 23.5t21 59.5v61q0 36 -24 59.5
t-59 23.5h-11l4 171h98q47 0 70 44q89 183 288 314q200 114 422 114h129q35 0 35 -35v-131zM966 1163h1v-60zM174 1098q2 0 2 2v-2h-2zM1087 989h-60l60 1v-1zM1087 593v-1h-60zM176 529q0 2 -2 2h2v-2z" />
    <glyph glyph-name="trademark" unicode="&#x2122;" horiz-adv-x="1079" 
d="M953 1045q-25 0 -43 32q-1 7 -1 16v278q-113 -148 -118 -154q-7 -9 -31 -12q-28 0 -53 42l-90 118h-1v-272q0 -30 -33 -44q-10 -2 -13 -2h-2q-18 0 -31.5 8.5t-13.5 26.5l-1 3v424q0 19 9 32.5t27 13.5h3q2 0 5 1h2q31 0 55 -42l137 -183q40 53 82.5 109t59.5 79t20 26
l2 2q9 9 28 9h1q18 0 31.5 -8.5t13.5 -25.5v-2q0 -2 1 -7.5t1 -8.5v-406q0 -32 -36 -50q-6 -3 -11 -3zM281 1047q-20 0 -32 13q-9 9 -12 21v2q-1 2 -1 7v380h-114q-34 0 -41 34q-2 4 -2 8q0 9 4 14.5t13.5 12.5t14.5 12q1 1 3 1h335h1l2 -1q16 0 24 -11.5t8 -27.5
q0 -6 -1 -8q-10 -34 -41 -34h-115v-380l-1 -7l-1 -2q-1 -11 -11 -21q-12 -13 -31 -13h-2z" />
    <glyph glyph-name="minus" unicode="&#x2212;" horiz-adv-x="1364" 
d="M196 717q-41 0 -68.5 27.5t-27.5 69.5v8q0 42 27 69t69 27h973q41 0 67.5 -27t26.5 -69v-8q0 -42 -26.5 -69.5t-67.5 -27.5h-973z" />
    <glyph glyph-name="NULL" horiz-adv-x="2069" 
 />
    <glyph glyph-name="_FSHallmark" horiz-adv-x="1985" 
d="M104 1331v211h1781v-211h-1781zM1503 333q-77 0 -147 19q-66 18 -124 59q-55 40 -91 101q-32 57 -32 141l205 -4q0 -10 11 -33q1 -30 30 -54q20 -24 54 -38q37 -20 100 -20q71 0 112 25q43 21 43 56q0 31 -42.5 57t-125.5 42q-163 42 -262 95q-106 55 -106 178
q0 102 71 160q66 55 156 84q67 18 148 18q111 0 200 -39q98 -41 143 -141q23 -62 23 -103h-214q0 16 -16 46q-13 18 -39 39q-4 2 -22.5 10t-29.5 10q-42 7 -50 7q-51 0 -103 -26q-43 -31 -43 -64q0 -67 39 -87q63 -29 95 -36l77 -19l66 -14q37 -12 62 -15q24 -4 52 -13
q8 -5 24 -12.5t22 -11.5q43 -26 67 -58q23 -37 26 -94q4 -52 -22 -107q-55 -94 -157 -126q-100 -32 -200 -32zM104 333v884h750v-202h-515v-199h428v-196h-428v-287h-235zM941 337q-41 0 -73 32q-35 32 -35 69q0 44 33 77q28 28 75 28t85 -31q35 -27 35 -74q0 -41 -35 -73
q-40 -28 -85 -28zM100 10v211h1782v-211h-1782z" />
    <glyph glyph-name="_Fontastica" horiz-adv-x="1542" 
d="M101 234q-1 4 -1 12v1293h969v-199h-747v-531h748v-202h-748v-373h-221zM463 238v198h750v533h-750v200h750v370h220v-1301h-970zM1232 27q-13 0 -41 12q-16 23 -17 42q-2 25 16 43q20 20 42 20q26 0 49 -20l-13 -16q-1 2 -5.5 5.5t-5.5 4.5q-2 3 -18 3h-7
q-17 -7 -19 -13q-13 -6 -13 -18q0 -20 9 -29q11 -12 23 -12q20 0 36 12l13 -12q-22 -22 -49 -22zM101 31v109h82v-19h-52v-30h51v-17h-51v-43h-30zM283 22q-15 0 -24 9q-34 12 -34 47q0 30 17 46q11 16 43 16q38 0 57 -28q15 -23 4 -51t-50 -34zM485 27q-3 0 -17 12l-12 17
q0 3 -5 7.5t-5 6.5l-22 28v-67h-26v109h21q9 -1 11 -15q6 -4 26 -27l21 -33v75h24v-109h-7q-5 -4 -9 -4zM584 31v90h-37v19h95v-19h-36v-90h-22zM876 27q-34 0 -50 19q1 2 1 3l2 4q0 3 4 8l37 -12h14q2 3 4 5t3 2h1q0 18 -25 22q-5 0 -6 3q-3 1 -9 1q-19 6 -19 26
q-6 18 15 29q9 3 26 3q29 0 45 -7l-9 -21q-5 4 -9 4h-5q-2 2 -8 2q-3 0 -4 3h-14q-9 0 -9 -5q-4 -5 9 -18q4 -1 10 -3t10 -3.5t6 -1.5q23 0 23 -28q2 -25 -21 -31q-2 -4 -22 -4zM992 31v90h-36v19h97v-19h-35v-90h-26zM1099 31v109h28v-109h-28zM1317 31q27 49 44 109h31
l25 -50q0 -5 12 -34q1 -2 3 -8t4.5 -10.5t5.5 -6.5h-25l-12 22h-53l-10 -22h-25zM668 31l46 106h26q0 -3 2.5 -7.5t6 -9.5t4.5 -8q1 -2 6 -11t7 -14q7 -21 9 -31l10 -25h-27q-1 2 -1 8l-1 2q-1 2 -2 5.5t-1 6.5h-54q-1 -4 -1 -14v-3l-8 -5h-22zM285 48q6 0 10 1q22 6 22 33
v5q0 16 -8 25q-9 9 -26 9q-3 -3 -9 -3q-2 0 -20 -19q-12 -12 -3 -25q9 -26 34 -26zM706 74h38q-2 1 -3 4l-1 4q-3 3 -4.5 6.5t-2.5 3.5q-2 3 -2 12q-1 1 -4 12zM1360 74h36q-4 1 -4 8q-2 8 -5 10q-1 2 -2 6t-2 6q-1 1 -2.5 5.5t-3.5 6.5z" />
    </font>
</defs>
</svg>
