<?xml version="1.0" standalone="no"?>
<!DOCTYPE svg PUBLIC "-//W3C//DTD SVG 1.1//EN" "http://www.w3.org/Graphics/SVG/1.1/DTD/svg11.dtd" >
<svg xmlns="http://www.w3.org/2000/svg" xmlns:xlink="http://www.w3.org/1999/xlink" version="1.1">
<metadata>
Created by FontForge 20170731 at Thu Aug  8 19:29:16 2019
 By Aleksey,,,
Copyright (c) 2019 by Fontastica. All rights reserved.
</metadata>
<defs>
<font id="Jaquel-Bold" horiz-adv-x="1363" >
  <font-face 
    font-family="Jaquel Bold"
    font-weight="700"
    font-stretch="normal"
    units-per-em="2048"
    panose-1="0 0 8 0 0 0 0 0 0 0"
    ascent="1638"
    descent="-410"
    x-height="1553"
    cap-height="1557"
    bbox="79 -546 2183 1701"
    underline-thickness="50"
    underline-position="-200"
    unicode-range="U+000D-2212"
  />
<missing-glyph horiz-adv-x="1588" 
 />
    <glyph glyph-name=".notdef" horiz-adv-x="1588" 
 />
    <glyph glyph-name=".null" horiz-adv-x="0" 
 />
    <glyph glyph-name="nonmarkingreturn" horiz-adv-x="682" 
 />
    <glyph glyph-name="CR" unicode="&#xd;" horiz-adv-x="1941" 
 />
    <glyph glyph-name="space" unicode=" " horiz-adv-x="1089" 
 />
    <glyph glyph-name="exclam" unicode="!" horiz-adv-x="506" 
d="M231 480q-56 0 -93.5 37t-37.5 94v787q0 57 37.5 94.5t93.5 37.5h43q56 0 93.5 -37.5t37.5 -94.5v-787q0 -57 -37.5 -94t-93.5 -37h-43zM252 66q-63 0 -107.5 34.5t-44.5 83.5t44.5 84t107.5 35q64 0 108.5 -34t44.5 -85q0 -48 -45 -83t-108 -35z" />
    <glyph glyph-name="quotedbl" unicode="&#x22;" horiz-adv-x="866" 
d="M207 1210q-36 0 -62.5 32.5t-31.5 82.5l-11 111q-1 7 -1 22q0 55 31 91t79 36q47 0 77 -36.5t30 -92.5q0 -7 -2 -23l-13 -111q-6 -51 -32.5 -81.5t-63.5 -30.5zM656 1210q-36 0 -63.5 32.5t-31.5 82.5l-12 110q-1 7 -1 20q0 56 30.5 93t78.5 37t78.5 -36.5t30.5 -91.5
q0 -16 -1 -24l-13 -111q-6 -51 -32.5 -81.5t-63.5 -30.5z" />
    <glyph glyph-name="numbersign" unicode="#" horiz-adv-x="1594" 
d="M423 57q-88 0 -88 79q0 8 2 24l25 186h-139l-4 -1q-51 0 -51 56v116q0 83 88 83l15 -1l126 1l35 275h-137q-59 0 -59 57l-2 118q0 80 83 80h149l35 238q5 37 29 59t61 22h87q91 0 91 -82q0 -5 -2 -21l-29 -213h215l35 235q5 37 29 59t61 22h87q92 0 92 -83q0 -14 -1 -21
l-29 -210h136q57 0 57 -57l3 -118q0 -39 -21 -60t-60 -21l-151 -2l-35 -274h139q60 0 60 -60l2 -113q0 -83 -83 -83h-151l-31 -210q-5 -36 -29 -58t-60 -22h-93q-88 0 -88 79q0 8 2 24l25 186h-220l-26 -209q-4 -37 -28.5 -58.5t-62.5 -21.5h-89zM667 600l217 3l35 274
l-217 -2z" />
    <glyph glyph-name="dollar" unicode="$" horiz-adv-x="1304" 
d="M1009 842q195 -143 195 -375q-3 -53 -17 -129q-99 -293 -367 -333q-6 -142 -112 -179q-16 -10 -41 -10h-2q-98 0 -142 129q-7 31 -7 55h-244q-37 0 -66 12q-94 47 -99 135q0 12 2 18l2 5q0 1 2 11q32 122 159 122h81v2h163v305q-119 8 -221 69q-195 147 -195 375
q6 76 19 128q102 310 397 337q3 127 111 174q22 8 38 8h2q106 0 148 -142q1 -7 3 -18t2 -21h155v-2h13q124 0 161 -117q4 -24 4 -39q0 -98 -113 -141q-9 -5 -20 -5l-24 -3h-175v-304q94 -13 188 -67zM405 1043q0 -108 111 -127v297l-14 -3q-97 -46 -97 -155v-12zM899 465v11
q0 96 -78 122v-277q78 43 78 144z" />
    <glyph glyph-name="percent" unicode="%" horiz-adv-x="1455" 
d="M460 1072q-102 0 -177 69.5t-75 171.5q0 101 74.5 171.5t177.5 70.5t179 -70t76 -172q0 -101 -76 -171t-179 -70zM388 48q-70 0 -114.5 42t-44.5 104q0 41 23 84l671 1207q34 61 102 61h38q71 0 115 -42t44 -104q0 -42 -22 -83l-672 -1208q-15 -28 -42 -44.5t-59 -16.5
h-39zM460 1229q31 0 59.5 27t28.5 57t-28.5 57.5t-59.5 27.5q-30 0 -58 -27.5t-28 -57.5t28 -57t58 -27zM1036 68q-102 0 -177 69.5t-75 171.5q0 101 74.5 171.5t177.5 70.5t179 -70t76 -172q0 -101 -76 -171t-179 -70zM1036 225q31 0 59.5 27t28.5 57t-28.5 57.5
t-59.5 27.5q-30 0 -58 -27.5t-28 -57.5t28 -57t58 -27z" />
    <glyph glyph-name="ampersand" unicode="&#x26;" horiz-adv-x="1467" 
d="M1251 381l74 -72q38 -38 38 -90q0 -65 -58 -105l-37 -26q-60 -42 -94 -41q-31 2 -48 20l1 -1l-34 36l-12 15l-79 87q-210 -157 -441 -157h-27l-15 2q-150 20 -244.5 82t-147.5 194q-26 80 -26 141q0 94 39 165q82 145 224 251l-5.5 5.5t-6 6.5t-5.5 5q-41 41 -53 59
q-4 4 -6 8h1l-1 1q-2 3 -2 7v-5h-1l-6 10l-11 18q-19 30 -25 48q-30 63 -30 127q0 22 3 44q15 163 135.5 261t288.5 98q161 0 276.5 -116.5t115.5 -278.5v-6q-3 -72 -34.5 -139.5t-84.5 -115.5l-86 -79l239 -258l73 63q39 33 83 33q52 0 91 -41l8 -9q46 -45 46 -101
q0 -55 -44 -90zM536 1228l-10 -40l4 -33l30 -38l52 -52q45 26 80 67l23 32q5 8 5 22q0 24 -13 47l-20 22q-24 21 -61 21h-6q-36 -4 -52 -19zM286 969l2 -2v-1q-1 1 -1 0l2 -3q-1 0 -3 1q-4 2 -4 8l4 -4v1zM286 964q0 -7 -1 -7q0 6 1 7zM568 345q54 0 116.5 23t107.5 57
l-217 234q-160 -109 -160 -195q0 -15 7 -38q20 -36 39 -51q41 -43 82 -29z" />
    <glyph glyph-name="quotesingle" unicode="'" horiz-adv-x="607" 
d="M259 967q-44 0 -67.5 24t-23.5 68v398q0 44 23.5 68t67.5 24h86q44 0 67.5 -24t23.5 -68v-398q0 -44 -23.5 -68t-67.5 -24h-86z" />
    <glyph glyph-name="parenleft" unicode="(" horiz-adv-x="1074" 
d="M847 61q-8 0 -24 2q-155 26 -288.5 93t-229.5 162.5t-150.5 219.5t-54.5 258q0 131 56 254.5t152.5 219t229.5 164.5t285 96q8 2 25 2q54 0 90 -36t36 -89v-23q0 -47 -30 -81t-79 -43q-188 -39 -309.5 -168t-121.5 -296t121.5 -296.5t309.5 -168.5q49 -9 79 -42t30 -82
v-22q0 -52 -36.5 -88t-90.5 -36z" />
    <glyph glyph-name="parenright" unicode=")" horiz-adv-x="1074" 
d="M228 61q-56 0 -92 39t-36 97v10q0 48 29.5 81.5t77.5 42.5q187 39 308 168.5t121 296.5t-120.5 296t-307.5 168q-48 9 -78 43t-30 81v14q0 57 35.5 95.5t90.5 38.5q16 0 24 -2q203 -37 368 -142.5t260.5 -261t95.5 -330.5q0 -179 -94 -334.5t-259 -260t-372 -138.5
q-14 -2 -21 -2z" />
    <glyph glyph-name="asterisk" unicode="*" horiz-adv-x="1099" 
d="M567 803q-2 0 -6.5 0.5t-6.5 0.5l-5 1q-37 5 -61 27.5t-24 59.5v34l-18 -18q-34 -36 -75 -36q-28 0 -48 20l-26 26q-21 21 -21 50q0 40 35 73l13 14h-17q-44 0 -71 20.5t-27 54.5v39q0 33 27 54.5t70 21.5h25l-23 24q-25 24 -25 57q0 30 23 63l3 3q21 30 60 30
q36 0 65 -27l30 -30v42q0 38 25 62.5t63 24.5h4q38 0 62.5 -24.5t24.5 -62.5v-34l19 19q35 35 73 35q27 0 49 -20l27 -25q21 -18 21 -49q0 -41 -35 -76l-13 -12h17q44 0 70.5 -21t27.5 -55l1 -40q0 -33 -27.5 -54t-71.5 -21h-25l24 -24q27 -27 27 -61t-28 -61l-3 -4
q-27 -27 -63 -27q-35 0 -61 26l-28 29v-42q0 -35 -22 -60.5t-55 -26.5z" />
    <glyph glyph-name="plus" unicode="+" horiz-adv-x="1320" 
d="M628 208q-50 0 -82 41.5t-32 107.5v275h-283q-56 0 -93.5 37.5t-37.5 94.5v7q0 57 37.5 94t93.5 37l283 1v278q0 63 31.5 105t79.5 42h3l63 2q51 0 83 -42.5t32 -108.5v-276h282q59 0 95 -36.5t36 -94.5v-8q0 -57 -37 -94.5t-93 -37.5h-283v-275q0 -66 -32 -107.5
t-82 -41.5h-64z" />
    <glyph glyph-name="comma" unicode="," horiz-adv-x="532" 
d="M274 -131q-10 0 -19 3q-30 7 -47.5 36.5t-17.5 69.5q0 9 2 27l5 32q-43 20 -70 56t-27 74q0 55 48 89t106 34q67 0 123 -45t56 -110q0 -15 -4 -28q-3 -27 -12 -48l-41 -104q-15 -40 -43 -63t-59 -23z" />
    <glyph glyph-name="hyphen" unicode="-" horiz-adv-x="1124" 
d="M231 758q-56 0 -93.5 37.5t-37.5 93.5v8q0 56 37.5 93t93.5 37h663q56 0 93 -37t37 -93v-8q0 -56 -37 -93.5t-93 -37.5h-663z" />
    <glyph glyph-name="period" unicode="." horiz-adv-x="538" 
d="M271 48q-73 0 -122 40.5t-49 99.5q0 58 48.5 96t122.5 38q71 0 118.5 -38.5t47.5 -95.5q0 -59 -48 -99.5t-118 -40.5z" />
    <glyph glyph-name="slash" unicode="/" horiz-adv-x="1192" 
d="M259 48q-69 0 -113 42.5t-46 103.5q0 42 23 85l668 1206q35 61 102 61h41q70 0 114 -42.5t44 -103.5q0 -40 -23 -83l-671 -1208q-35 -61 -101 -61h-38z" />
    <glyph glyph-name="zero" unicode="0" 
d="M679 48q-158 0 -291 64t-210.5 174.5t-77.5 242.5v539q0 129 78 239.5t211.5 174.5t289.5 64q159 0 293.5 -64.5t212.5 -175t78 -241.5v-536q0 -132 -77.5 -242.5t-212 -174.5t-294.5 -64zM679 318q103 0 175.5 62t72.5 149v533q0 88 -72.5 149.5t-175.5 61.5t-175 -61
t-72 -147v-536q0 -87 72 -149t175 -62z" />
    <glyph glyph-name="one" unicode="1" horiz-adv-x="506" 
d="M249 0q-90 0 -137 97q-2 4 -5 14l-1 2q-6 22 -6 43v1206q0 109 113 151q23 5 36 5h3q103 0 144 -105q6 -9 6 -19q3 -21 3 -46v-1177q0 -131 -115 -164q-18 -7 -38 -7h-3z" />
    <glyph glyph-name="two" unicode="2" horiz-adv-x="1419" 
d="M1189 320q57 0 93 -37t36 -93v-10q0 -58 -36.5 -95t-94.5 -37l-904 -7q-78 0 -130.5 51t-52.5 116q0 67 57 114l661 554l47 49l52 91v52q0 83 -75 145.5t-175 62.5q-70 0 -128.5 -31.5t-88.5 -84.5q-40 -68 -105 -68h-81q-59 0 -101 36t-42 86q0 32 17 60
q73 123 219.5 197.5t326.5 74.5q154 0 286.5 -66.5t210 -179.5t77.5 -244q0 -41 -10 -80.5t-35.5 -82t-52.5 -80t-78 -86.5t-94.5 -88.5t-119 -99.5t-134.5 -106t-157 -120z" />
    <glyph glyph-name="three" unicode="3" horiz-adv-x="1288" 
d="M1067 768q121 -143 121 -311v-26q0 -211 -182 -351q-115 -80 -290 -80h-537q-32 0 -53.5 20t-21.5 51v163q0 30 20.5 50.5t52.5 20.5h575q110 0 131 111q3 10 3 27q0 114 -96 159q-20 7 -63 7h-358q-32 0 -53 21t-21 53v155q0 32 21 53t53 21h325q111 0 141 52
q24 42 24 73v25q0 99 -88 147q-6 0 -9 2q-25 5 -42 5h-546q-31 0 -51.5 20.5t-20.5 52.5l-2 161q0 30 21 50.5t52 20.5h521q336 0 449 -330q20 -80 20 -141q0 -148 -96 -282z" />
    <glyph glyph-name="four" unicode="4" horiz-adv-x="1633" 
d="M1084 48q-57 0 -93.5 37t-36.5 95v198h-724q-56 0 -93 37.5t-37 93.5v122q0 44 26 71l678 804q34 40 84 40h270q56 0 92.5 -37.5t36.5 -93.5v-724h114q57 0 94 -37t37 -94v-9q0 -59 -39 -116t-92 -57h-114v-198q0 -58 -36.5 -95t-92.5 -37h-74zM493 691h461v512z" />
    <glyph glyph-name="five" unicode="5" horiz-adv-x="1432" 
d="M749 48q-193 0 -347 98.5t-210 248.5q-5 17 -5 30q0 36 27 60.5t67 24.5h146q64 0 102 -67q32 -50 91.5 -81t128.5 -31q103 0 174 60.5t71 148.5q0 86 -71.5 147t-173.5 61h-450q-57 0 -93.5 37t-36.5 94v536q0 57 36.5 94t93.5 37h857q57 0 94.5 -37.5t37.5 -93.5v-10
q0 -57 -37.5 -94.5t-94.5 -37.5h-602q-21 0 -35.5 -14t-14.5 -35v-168q0 -21 14.5 -35.5t35.5 -14.5h195q158 0 292 -64t212 -174t78 -239q0 -130 -77.5 -241t-211.5 -175.5t-293 -64.5z" />
    <glyph glyph-name="six" unicode="6" horiz-adv-x="1371" 
d="M686 48q-158 0 -293.5 65.5t-214 177t-78.5 241.5q0 136 88 260l491 704q35 50 94 50h18q74 0 120.5 -44.5t46.5 -109.5q0 -52 -34 -101l-193 -278q147 -11 271.5 -78.5t196.5 -174.5t72 -228q0 -131 -78.5 -242.5t-213 -176.5t-293.5 -65zM686 320q103 0 175.5 62
t72.5 150q0 86 -73 149t-175 63q-101 0 -174 -62t-73 -150t72.5 -150t174.5 -62z" />
    <glyph glyph-name="seven" unicode="7" horiz-adv-x="1585" 
d="M580 48q-74 0 -120.5 44.5t-46.5 107.5q0 53 34 102l673 970h-889q-56 0 -93.5 37t-37.5 93v13q0 56 37.5 93.5t93.5 37.5h1123q56 0 93.5 -37.5t37.5 -93.5v-131q0 -33 -17 -62l-780 -1124q-34 -50 -94 -50h-14z" />
    <glyph glyph-name="eight" unicode="8" horiz-adv-x="1370" 
d="M1149 768q121 -146 121 -311v-26q0 -210 -182 -351q-113 -80 -289 -80h-228q-176 0 -289 80q-182 141 -182 351v26q0 169 120 311q-95 138 -95 282q0 53 19 140q115 331 449 331h184q332 0 447 -331q20 -85 20 -140q0 -146 -95 -282zM430 1062v-25q0 -36 22 -73
q31 -52 141 -52h184q107 0 140 52q22 41 22 73v25q0 103 -93 148q-23 6 -44 6h-234q-23 0 -44 -6q-94 -45 -94 -148zM964 416q4 12 4 27q0 112 -95 159q-22 7 -65 7h-248q-48 0 -62 -7q-96 -44 -96 -159q0 -7 3 -28q21 -110 131 -110h297q109 0 131 111z" />
    <glyph glyph-name="nine" unicode="9" 
d="M572 48q-73 0 -119.5 44.5t-46.5 108.5q0 53 33 99l198 289q-147 10 -270 76.5t-195 173.5t-72 229q0 130 78 240t212.5 174t291.5 64q158 0 292 -64t211.5 -174t77.5 -240t-81 -245l-502 -725q-33 -50 -94 -50h-14zM682 851q105 0 176.5 60t71.5 149q0 88 -72.5 150
t-175.5 62q-104 0 -176 -61.5t-72 -150.5q0 -88 71.5 -148.5t176.5 -60.5z" />
    <glyph glyph-name="colon" unicode=":" horiz-adv-x="541" 
d="M272 536q-70 0 -121 41t-51 97q0 58 50 97.5t122 39.5q70 0 120 -40.5t50 -96.5t-50.5 -97t-119.5 -41zM272 48q-71 0 -121.5 40.5t-50.5 96.5q0 57 50.5 97t121.5 40t120.5 -39.5t49.5 -97.5q0 -56 -50 -96.5t-120 -40.5z" />
    <glyph glyph-name="semicolon" unicode=";" horiz-adv-x="556" 
d="M287 536q-70 0 -121 41t-51 97q0 58 50 97.5t122 39.5q70 0 119.5 -40.5t49.5 -96.5t-49.5 -97t-119.5 -41zM274 -100q-42 0 -62.5 32.5t-20.5 77.5q0 17 1 26l5 32q-43 20 -70 56t-27 73q0 55 47.5 89t105.5 35q68 0 124 -44t56 -110q0 -16 -4 -28q-3 -27 -12 -48
l-41 -106q-16 -39 -44 -62t-58 -23z" />
    <glyph glyph-name="less" unicode="&#x3c;" horiz-adv-x="1404" 
d="M1032 293q-24 0 -45 10l-749 318q-29 15 -45.5 41t-16.5 55v147q0 29 16.5 55t45.5 41l749 318q24 11 46 11q56 0 85 -60l34 -75q12 -26 12 -49q0 -59 -64 -85l-3 -1l-430 -186q-33 -13 -33 -43t33 -43l440 -190q57 -29 57 -83q0 -5 -2 -17l-36 -89l-8 -18
q-29 -57 -86 -57z" />
    <glyph glyph-name="equal" unicode="=" horiz-adv-x="1124" 
d="M231 893q-56 0 -93.5 37.5t-37.5 93.5v7q0 57 37 94.5t94 37.5h663q56 0 93 -37t37 -95v-7q0 -56 -37 -93.5t-93 -37.5h-663zM231 392q-56 0 -93.5 37t-37.5 93v9q0 56 37.5 93t93.5 37h663q56 0 93 -37t37 -93v-9q0 -56 -37 -93t-93 -37h-663z" />
    <glyph glyph-name="greater" unicode="&#x3e;" horiz-adv-x="1393" 
d="M352 293q-60 0 -86 57l-8 18l-36 89q-2 12 -2 17q0 54 57 83l440 190q33 13 33 43t-33 43l-430 186l-3 1q-64 26 -64 85q0 23 12 49l34 75q27 60 85 60q19 0 46 -11l749 -318q29 -15 45.5 -41t16.5 -55v-147q0 -29 -16.5 -55t-45.5 -41l-749 -318q-25 -10 -45 -10z" />
    <glyph glyph-name="question" unicode="?" horiz-adv-x="1362" 
d="M624 448q-58 0 -95 37t-37 93v131q0 57 30 94.5t75 37.5h85q103 0 174.5 62t71.5 152q0 88 -71 148t-175 60q-85 0 -151 -47t-89 -117q-19 -67 -82 -67h-167q-37 0 -63.5 23.5t-26.5 59.5q0 9 1 13q29 177 193.5 297.5t384.5 120.5q157 0 290.5 -64t211 -174t77.5 -240
q0 -165 -122 -295.5t-313 -169.5v-25q0 -56 -37 -93t-94 -37h-71zM659 48q-75 0 -123 38.5t-48 97.5q0 57 47.5 94t123.5 37q74 0 119 -36t45 -95t-46 -97.5t-118 -38.5z" />
    <glyph glyph-name="at" unicode="@" horiz-adv-x="2284" 
d="M1011 -546h-13q-189 27 -355 118.5t-285.5 227.5t-188.5 315.5t-69 374.5q0 213 82 407.5t220 335t329 223.5t400 83q144 0 281 -37.5t252.5 -105t212 -164t164 -211.5t105 -251t37.5 -280q0 -182 -63 -354t-179 -312q-29 -35 -69 -35q-28 0 -55 18l-425 297
q-116 -76 -252 -76q-197 0 -333 137t-136 334q0 128 62 235t170 169.5t237 62.5q172 0 281 -95q11 32 39.5 52t64.5 20h22q47 0 78 -37.5t31 -93.5v-600l153 -95q97 166 97 373q0 213 -103.5 392t-281.5 283t-390 104q-154 0 -293.5 -61.5t-240.5 -166t-160.5 -248.5
t-59.5 -303q0 -192 84 -357.5t231.5 -272.5t330.5 -135q43 -8 71 -42.5t28 -84.5v-17q0 -54 -31.5 -90.5t-79.5 -36.5zM1141 263q91 0 156 69t65 167t-64.5 167.5t-156.5 69.5q-90 0 -154.5 -69.5t-64.5 -167.5t64 -167t155 -69z" />
    <glyph glyph-name="A" unicode="A" horiz-adv-x="1707" 
d="M1605 168q2 -8 2 -13t-2 -13l-5 -23q0 -6 -3 -10l-1 -3q-47 -106 -144 -106q-62 0 -112 51l-2 1q-6 4 -9 12q-12 19 -122 242l-36 74q-32 -4 -50 -4h-555q-8 0 -30 2q-121 -251 -157 -314l-9 -12l-2 -1q-50 -51 -113 -51q-100 0 -144 107l-1 2q-3 9 -3 10l-4 22
q-2 4 -2 14q0 9 1 13q6 41 90 210q127 262 312 651q15 30 79 164q52 109 89 186q62 178 180 178h4q117 0 179 -178q269 -562 296 -634q5 -5 5 -15q126 -247 180 -352q82 -166 89 -210zM686 687h336l-4 12q-29 60 -37 80l-35 73q-62 129 -92 192l-92 -192q-7 -15 -20.5 -43
t-14.5 -30q-7 -17 -24 -51l-14 -29z" />
    <glyph glyph-name="B" unicode="B" horiz-adv-x="1331" 
d="M1107 788q124 -148 124 -320v-26q0 -215 -186 -360q-118 -82 -298 -82h-494q-96 0 -143 107q-10 31 -10 52v1248q0 89 101 141q22 12 70 12h454q344 0 460 -339q21 -84 21 -144q0 -149 -99 -289zM412 1248v-314h313q113 0 145 54q24 43 24 76v26q0 105 -97 152
q-24 6 -46 6h-339zM919 426q3 10 3 29q0 117 -100 162q-21 9 -64 9h-346v-314h373q113 0 134 114z" />
    <glyph glyph-name="C" unicode="C" horiz-adv-x="1689" 
d="M888 2l-33 1q-34 0 -50 1l-50 7q-186 28 -332 133.5t-229 264t-94 346.5q0 16 1 23q-1 9 -1 23q11 189 94 347t228.5 263t332.5 133l46 8h3q2 1 7 1h44l31 1q32 0 96 -4q91 -15 168 -43q147 -57 258.5 -160t174.5 -244l1 -3q4 -12 4 -36q0 -65 -41 -111t-106 -46
q-35 0 -70 14l-8 3l-5 2q-9 8 -21 14q-16 13 -25 27q-35 62 -60 94l-4 3q-8 8 -9 12q-3 4 -11 12l-6 7l-22 23q-72 67 -166 101q-89 26 -167 26q-63 0 -117 -16l-43 -12q-78 -30 -158 -105l-3 -4q-92 -95 -125 -221q-12 -76 -12 -109q0 -31 12 -107q33 -127 124 -222l3 -3
q137 -135 320 -135q77 0 166 26q98 37 166 102l22 24q9 7 16 17q5 8 12 13l1 1q30 40 63 96q10 18 22 25l19 13q3 4 15 10q39 13 68 13q66 0 108 -46.5t42 -113.5q0 -23 -4 -35l-1 -3q-90 -196 -245 -301q-147 -113 -356 -145q-55 -5 -94 -5z" />
    <glyph glyph-name="D" unicode="D" horiz-adv-x="1562" 
d="M253 0q-46 0 -83 25.5t-55 68.5l-5 12q-1 2 -8 30v1q-2 10 -2 22v1239q0 106 111 153l13 3q15 3 29 3h423q570 0 749 -526q37 -139 37 -247q0 -327 -228 -573q-206 -211 -561 -211h-420zM412 310h304q289 0 408 299q26 83 26 166v17q0 283 -239 415q-87 38 -192 38h-307
v-935z" />
    <glyph glyph-name="E" unicode="E" horiz-adv-x="1273" 
d="M1011 1245h-599v-311h378q88 0 135 -90q7 -15 11 -29l1 -4q0 2 3 -1v-18q1 -4 1 -13v-4q0 -84 -83 -131l-17 -9q-6 -4 -14 -6l-4 -2h-7q-16 -2 -26 -2h-378v-315h592q125 0 162 -117q2 -8 2 -15v-2q2 -9 5 -15q0 -99 -102 -149q-29 -12 -67 -12h-751q-60 0 -101 42
q-30 25 -47 74q-2 8 -2 16l-1 10q-2 12 -2 17v1246q0 50 29.5 87.5t77.5 55.5q3 2 13 5l3 1q17 3 30 3h751q116 0 158 -101l4 -13q2 -5 2 -11q5 -15 5 -27v-7q0 -74 -68 -120q-17 -15 -33 -21h-4l-11 -5l-10 -4z" />
    <glyph glyph-name="F" unicode="F" horiz-adv-x="1273" 
d="M253 0q-94 0 -141 104q-4 4 -5 9l-1 4v5q-6 26 -6 37v1245q0 32 16 68q14 27 46.5 52t62.5 30q13 3 28 3h751q127 0 163 -119q6 -18 6 -40q0 -102 -116 -145q-10 -5 -20 -5l-25 -3h-600v-311h327q107 0 147 -121q2 -6 2 -14q1 -10 1 -24q0 -102 -105 -141q-22 -9 -45 -9
h-327v-450q0 -124 -102 -164q-6 -2 -7 -2l-9 -3q-14 -6 -39 -6h-2z" />
    <glyph glyph-name="G" unicode="G" horiz-adv-x="1691" 
d="M1590 729q0 -2 0.5 -6t0.5 -6v-172q0 -113 -71.5 -216t-181.5 -177q-147 -113 -356 -145q-55 -5 -94 -5l-33 1q-34 0 -50 1l-50 7q-186 28 -332 133.5t-229 264t-94 346.5q0 16 1 23q-1 9 -1 23q11 189 94 347t228.5 263t332.5 133l46 8h3q2 1 7 1h44l31 1q32 0 96 -4
q91 -15 168 -43q147 -57 258.5 -160t174.5 -244l1 -3q4 -12 4 -36q0 -65 -41 -111t-106 -46q-35 0 -70 14l-8 3l-5 2q-9 8 -21 14q-16 13 -25 27q-35 62 -60 94l-4 3q-8 8 -9 12q-3 4 -11 12l-6 7l-22 23q-72 67 -166 101q-89 26 -167 26q-63 0 -117 -16l-43 -12
q-78 -30 -158 -105l-3 -4q-92 -95 -125 -221q-12 -76 -12 -109q0 -31 12 -107q33 -127 124 -222l3 -3q137 -135 320 -135q77 0 166 26q98 37 166 102l22 24q9 7 16 17q5 8 12 13l3 4l1 1v79h-356q-113 0 -152 107q-4 7 -4 16l-1 4q-2 12 -2 19q0 96 118 133q6 3 16 3l6 1
q12 2 19 2h537q103 0 149 -104l2 -9q2 -3 3 -10q0 -7 1 -10z" />
    <glyph glyph-name="H" unicode="H" horiz-adv-x="1399" 
d="M253 0q-101 0 -145 112l-1 5l-3 3l-2 19q-2 18 -2 29v1223q0 118 108 160q6 2 8 2l3 1q6 0 14 2q14 3 26 3q102 0 146 -119q7 -22 7 -52v-453h576v465q0 104 107 151q24 8 45 8h3q108 0 149 -112q3 -6 3 -10l1 -3q0 -3 1 -10t1 -10q1 -11 1 -31v-1207q0 -130 -116 -171
q-6 -2 -14 -2l-14 -3h-15q-96 0 -142 108q-10 30 -10 51v467h-576v-456q0 -125 -116 -165q-8 -2 -16 -2l-19 -3h-8z" />
    <glyph glyph-name="I" unicode="I" horiz-adv-x="513" 
d="M253 0q-93 0 -141 100q-3 4 -5 14l-1 2q-6 23 -6 43v1239q0 112 116 153q21 6 37 6h2q105 0 148 -108q6 -9 6 -19q3 -23 3 -47v-1208q0 -133 -117 -168q-17 -7 -40 -7h-2z" />
    <glyph glyph-name="J" unicode="J" horiz-adv-x="1410" 
d="M706 0q-307 0 -501 239q-105 153 -105 342v195q0 106 109 150q14 6 46 8q101 0 148 -112q6 -10 6 -19q2 -14 2 -22v-168q0 -163 73 -221q91 -82 223 -82q172 0 260 137q30 58 30 118v804q0 137 111 182q8 5 25 5l16 1h9q100 0 146 -113l1 -2q2 -6 2 -11q3 -18 3 -41v-784
q0 -425 -398 -575q-117 -31 -203 -31h-3z" />
    <glyph glyph-name="K" unicode="K" horiz-adv-x="1371" 
d="M1232 254q9 -9 11 -15q28 -45 28 -86q0 -95 -106 -143q-24 -10 -47 -10h-3q-83 0 -168 110q-404 412 -534 552v-487q0 -134 -118 -168q-16 -7 -40 -7h-2q-96 0 -143 107q-10 31 -10 52v1239q0 106 107 150q3 2 13 5l3 1q17 3 30 3h2q111 0 149 -112l4 -8l1 -4
q4 -34 4 -50v-484q27 31 53 53q483 505 562 577q35 28 90 28q102 0 148 -119l2 -14q3 -14 3 -24q0 -73 -113 -175q-391 -402 -431 -446q55 -60 505 -525z" />
    <glyph glyph-name="L" unicode="L" horiz-adv-x="1273" 
d="M253 0q-71 0 -116 59q-37 43 -37 97v1231q0 122 116 165q8 2 15 2q18 3 28 3q66 0 109.5 -50t43.5 -117v-1080h593q69 0 118.5 -41.5t49.5 -109.5q0 -3 -2 -15l-1 -12q0 -10 -3 -18q-43 -114 -163 -114h-751z" />
    <glyph glyph-name="M" unicode="M" horiz-adv-x="1662" 
d="M1558 1420q4 -24 4 -39v-1208q0 -132 -119 -169q-23 -7 -41 -7q-94 0 -144 107q-8 25 -8 54v768q-247 -331 -312 -411q-30 -35 -106 -44q-98 0 -179 134l-232 305v-752q0 -104 -112 -148q-25 -10 -47 -10h-4q-105 0 -153 121l-3 14q0 3 -0.5 7t-0.5 6q-1 4 -1 11v1236
q0 109 120 156q7 2 16 2q9 1 23 1q103 -2 179 -133l392 -521q415 556 465 614q3 5 12 10l-2 -1q45 31 95 31h3q107 0 151 -111q1 -4 1 -8l1 -3z" />
    <glyph glyph-name="N" unicode="N" horiz-adv-x="1606" 
d="M1504 1424l2 -22v-1246q0 -103 -114 -148l-1 -1l-5 -1q-4 -2 -7 -2l-23 -3h-3q-2 -1 -7 -1q-78 4 -157 109q-637 720 -777 882v-816q0 -133 -118 -168q-18 -7 -39 -7h-2q-96 0 -143 107q-10 31 -10 52v1245q0 64 47 106q23 23 60 39q24 8 46 8h10q77 -5 116 -64
q27 -25 54 -63l762 -863v838q0 62 46.5 105.5t108.5 46.5q101 0 149 -114l2 -5q3 -12 3 -14z" />
    <glyph glyph-name="O" unicode="O" horiz-adv-x="1752" 
d="M1652 801v-46q-8 -141 -64 -289v-2q-93 -207 -250 -312q-196 -149 -463 -149q-106 0 -190.5 20.5t-182.5 70.5l-12 7q-53 32 -77 51q-152 102 -243 298q-6 18 -6 21q-54 132 -64 284q0 16 1 23q-1 9 -1 23q10 151 64 286v4q85 199 249 313q141 112 356 146q49 4 106 4
q59 0 107 -4q83 -12 156 -40q50 -16 86 -37q63 -27 114 -69q156 -110 245 -299q0 -3 1 -5l2 -4v-1l2 -6v-3q55 -132 64 -285zM1331 671q10 53 10 107q0 56 -10 109q-32 125 -124 220l-4 4q-46 45 -98 76q-49 24 -70 32q-96 26 -166 26q-74 -3 -152 -26q-85 -31 -168 -108
l-3 -3q-92 -95 -125 -221q-12 -76 -12 -109q0 -31 12 -107q33 -127 124 -222l3 -3q52 -50 99 -77l13 -7q49 -22 57 -25q77 -22 151 -27q67 0 167 27q23 9 51 23l19 9q49 29 93 73q7 7 11 9q87 89 122 220zM1211 452l1 1l-2 -1h1z" />
    <glyph glyph-name="P" unicode="P" 
d="M253 0q-89 0 -142 103q-3 7 -4 12l-3 8q0 10 -2 24q-2 16 -2 21v607q0 14 2 21v563l2 84q0 13 3 20q31 96 109 96h568q348 0 460 -347q15 -60 19 -131q0 -236 -199 -384q-121 -71 -257 -71h-394v-451q0 -58 -26.5 -105t-77.5 -60q-4 -2 -16 -4q-18 -6 -37 -6h-3zM413 934
h371q168 0 168 136v12q0 113 -101 160q-14 5 -44 5h-394v-313z" />
    <glyph glyph-name="Q" unicode="Q" horiz-adv-x="1752" 
d="M1588 466v-2q-34 -76 -76 -136l73 -71q4 -4 6 -7q4 -6 9 -11l3 -5q26 -36 26 -91q0 -58 -44 -102l-5 -5q-13 -13 -37 -25q-41 -18 -76 -18q-58 0 -103 45l-79 76q-183 -111 -410 -111q-106 0 -190.5 20.5t-182.5 70.5l-12 7q-53 32 -77 51q-152 102 -243 298q-6 18 -6 21
q-54 132 -64 284q0 16 1 23q-1 9 -1 23q10 151 64 286v4q85 199 249 313q141 112 356 146q49 4 106 4q59 0 107 -4q83 -12 156 -40q50 -16 86 -37q63 -27 114 -69q156 -110 245 -299q0 -3 1 -5l2 -4v-1l2 -6v-3q55 -132 64 -285v-46q-8 -141 -64 -289zM1331 671
q10 53 10 107q0 56 -10 109q-32 125 -124 220l-4 4q-46 45 -98 76q-49 24 -70 32q-96 26 -166 26q-74 -3 -152 -26q-85 -31 -168 -108l-3 -3q-92 -95 -125 -221q-12 -76 -12 -109q0 -31 12 -107q33 -127 124 -222l3 -3q52 -50 99 -77l13 -7q49 -22 57 -25q77 -22 151 -27
q67 0 167 27q23 9 51 23l19 9q49 29 93 73q7 7 11 9q87 89 122 220zM1211 452l1 1l-2 -1h1z" />
    <glyph glyph-name="R" unicode="R" horiz-adv-x="1421" 
d="M1073 672q210 -439 224 -483q6 -19 6 -36q0 -101 -112 -146q-12 -4 -20 -4l-24 -3q-114 0 -176 175l-216 451h-340v-451q0 -108 -78 -153q-21 -10 -30 -12q-4 -2 -12 -4q-18 -6 -39 -6h-4q-96 0 -140 104l-3 9q0 -5 3 -9q-5 5 -5 14q-1 1 -1 3l-4 26q-2 8 -2 12q0 9 2 15
v361q-2 8 -2 24v518q0 9 2 25l1 8v249l1 84q0 14 4 22q30 94 108 94h632q168 0 283 -90.5t171 -256.5q13 -68 18 -131q0 -236 -200 -384q-19 -12 -47 -25zM996 1062v34q0 102 -90 146q-15 5 -42 5h-449v-301h450q110 0 131 116z" />
    <glyph glyph-name="S" unicode="S" horiz-adv-x="1332" 
d="M1032 863q200 -147 200 -384q-4 -62 -18 -133q-114 -346 -462 -346h-476q-37 0 -68 12q-96 49 -101 138q0 12 3 18l1 6q1 2 1 6q1 3 1 5q32 125 163 125h83v2h418q26 0 44 6q99 44 99 159v11q0 138 -168 138h-195q-133 0 -257 71q-200 149 -200 384q6 77 19 131
q115 347 462 347h416v-2h14q127 0 164 -119q5 -32 5 -40q0 -102 -116 -145q-11 -5 -20 -5l-25 -3h-371v2h-91q-29 0 -45 -5q-100 -48 -100 -160v-12q0 -136 169 -136h196q135 0 255 -71z" />
    <glyph glyph-name="T" unicode="T" horiz-adv-x="1443" 
d="M719 0q-64 0 -109 48q-29 29 -39 70l-1 6l-2 11q-1 5 -1 16v1110h-321q-109 0 -143 115l-1 9q-2 12 -2 20q0 96 106 134q5 3 16 3l4 1q6 1 20 1h964q2 0 5.5 -0.5t5.5 -0.5h5q10 -2 13 -5q105 -39 105 -133q0 -8 -2 -20l-1 -9q-34 -115 -142 -115h-321v-1110q0 -6 -2 -16
l-2 -13l-2 -5q-9 -42 -38 -69q-44 -48 -109 -48h-6z" />
    <glyph glyph-name="U" unicode="U" horiz-adv-x="1413" 
d="M709 0q-307 0 -501 239q-103 151 -105 342l-3 820q0 105 110 150q16 5 44 8q103 0 149 -113q6 -9 6 -18q2 -18 2 -24l2 -790q2 -165 74 -222q91 -82 222 -82q173 0 261 137q30 58 30 118v804q0 137 111 182q8 5 25 5l16 1h9q100 0 144 -111q5 -6 5 -15q3 -18 3 -41v-784
q0 -425 -399 -575q-115 -31 -202 -31h-3z" />
    <glyph glyph-name="V" unicode="V" horiz-adv-x="1616" 
d="M1516 1393q-3 -17 -9 -36l1 6q-8 -37 -531 -1208q-49 -151 -164 -155h-11q-116 5 -163 155q-504 1129 -529 1206l2 -9q-5 9 -12 37v11q3 91 102 141q33 11 51 12h6q113 -1 167 -159l178 -401l41 -91q20 -45 76 -168.5t87 -193.5q95 216 204 453q22 49 101 226l78 175
q52 159 170 159q13 -1 48 -10l5 -2q102 -50 102 -148z" />
    <glyph glyph-name="W" unicode="W" horiz-adv-x="2062" 
d="M641 0q-81 0 -136 78l-8 15q-155 492 -214 703l-87 283q-88 292 -92 310l-1 3q-3 9 -3 21q4 86 97 133q4 4 16 6l12 3q22 4 28 4q105 0 151 -114l231 -742q44 167 244 736q39 120 147 120h11q105 0 147 -120q223 -718 237 -760l238 766q44 114 149 114q5 0 27 -4l12 -2
q6 -1 9 -3l4 -2q101 -50 101 -145l-1 -8q0 -8 -4 -13q-7 -27 -93 -310l-85 -276q-33 -123 -212 -699q-3 -13 -12 -23q-54 -74 -132 -74h-5q-67 0 -122 64q-9 9 -12 20q-29 74 -252 798q-204 -665 -251 -797q-7 -19 -14 -24q-53 -61 -122 -61h-3z" />
    <glyph glyph-name="X" unicode="X" horiz-adv-x="1447" 
d="M920 782l337 -457q89 -103 89 -170q0 -27 -6 -39q-40 -116 -147 -116h-6q-53 0 -103 44q-8 8 -11 12l-348 466l-351 -465q-4 -7 -10 -13q-50 -44 -105 -44h-4q-109 0 -147 114q-5 9 -8 36v4q0 65 91 171l336 457l-336 450q-91 108 -91 173q3 32 8 39q38 113 147 113h4
q58 0 109 -48l49 -65q132 -176 308 -407q308 414 349 465q1 2 9 10q53 45 104 45h6q109 0 146 -116q7 -11 7 -37q0 -66 -89 -172z" />
    <glyph glyph-name="Y" unicode="Y" horiz-adv-x="1439" 
d="M719 0q-100 0 -147 106l-5 16l-2 17q0 4 -0.5 10t-0.5 9v561l-389 530q-75 96 -75 151v5q0 7 1 11q0 1 0.5 5.5t0.5 7.5l3 15q47 115 148 115q60 0 112 -50q22 -24 355 -481q324 444 354 481q52 50 115 50q101 0 146 -115l1 -5q0 -3 2 -8l1 -16v-15q0 -55 -73 -151
l-390 -530v-561q0 -31 -7 -47l-1 -4q-49 -107 -149 -107z" />
    <glyph glyph-name="Z" unicode="Z" horiz-adv-x="1446" 
d="M1339 187q2 -5 6 -5q0 -111 -95 -162q-34 -14 -67 -14h-924q-108 0 -149 106q-10 28 -10 47q0 69 88 168l692 918h-607q-119 0 -163 111q-4 8 -4 21q-2 4 -6 4q0 110 95 161q31 15 67 15h924q105 0 149 -106q10 -24 10 -47q0 -47 -100.5 -187.5t-677.5 -900.5h605
q122 0 163 -108q4 -7 4 -21z" />
    <glyph glyph-name="bracketleft" unicode="[" horiz-adv-x="730" 
d="M230 48q-56 0 -93 37t-37 95v1235q0 56 37 93.5t93 37.5h271q56 0 92.5 -37.5t36.5 -93.5v-3q0 -57 -33.5 -94.5t-85.5 -37.5h-78v-958h68q56 0 92.5 -36.5t36.5 -94.5v-11q0 -58 -36.5 -95t-92.5 -37h-271z" />
    <glyph glyph-name="backslash" unicode="\" horiz-adv-x="1207" 
d="M903 48q-31 0 -58 16.5t-42 44.5l-672 1208q-31 55 -31 110q0 52 27 85.5t75 33.5h105q68 0 102 -61l668 -1207q32 -55 32 -112q0 -52 -26.5 -85t-72.5 -33h-107z" />
    <glyph glyph-name="bracketright" unicode="]" horiz-adv-x="730" 
d="M230 48q-56 0 -93 37t-37 95v11q0 58 33 94.5t85 36.5h78v958h-66q-56 0 -93 38t-37 94v3q0 56 37 93.5t93 37.5h271q56 0 92.5 -37.5t36.5 -93.5v-1235q0 -58 -36.5 -95t-92.5 -37h-271z" />
    <glyph glyph-name="asciicircum" unicode="^" horiz-adv-x="1487" 
d="M415 572q-22 0 -47 11l-93 42q-51 26 -53 80q0 23 12 49l330 709q29 58 90 58h171q61 0 90 -59l332 -708q10 -25 12 -50q-2 -55 -60 -82l-9 -4l-81 -35q-25 -11 -45 -11q-57 0 -86 61l-198 427q-14 30 -41 30t-40 -30l-198 -427q-29 -61 -86 -61z" />
    <glyph glyph-name="underscore" unicode="_" horiz-adv-x="1124" 
d="M231 -278q-56 0 -93.5 37.5t-37.5 93.5v7q0 58 37 95t94 37h663q56 0 93 -37t37 -95v-7q0 -56 -37 -93.5t-93 -37.5h-663z" />
    <glyph glyph-name="a" unicode="a" horiz-adv-x="1707" 
d="M1605 168q2 -8 2 -13t-2 -13l-5 -23q0 -6 -3 -10l-1 -3q-47 -106 -144 -106q-62 0 -112 51l-2 1q-6 4 -9 12q-12 19 -122 242l-36 74q-32 -4 -50 -4h-555q-8 0 -30 2q-121 -251 -157 -314l-9 -12l-2 -1q-50 -51 -113 -51q-100 0 -144 107l-1 2q-3 9 -3 10l-4 22
q-2 4 -2 14q0 9 1 13q6 41 90 210q127 262 312 651q15 30 79 164q52 109 89 186q62 178 180 178h4q117 0 179 -178q269 -562 296 -634q5 -5 5 -15q126 -247 180 -352q82 -166 89 -210zM686 687h336l-4 12q-29 60 -37 80l-35 73q-62 129 -92 192l-92 -192q-7 -15 -20.5 -43
t-14.5 -30q-7 -17 -24 -51l-14 -29z" />
    <glyph glyph-name="b" unicode="b" horiz-adv-x="1331" 
d="M1107 788q124 -148 124 -320v-26q0 -215 -186 -360q-118 -82 -298 -82h-494q-96 0 -143 107q-10 31 -10 52v1248q0 89 101 141q22 12 70 12h454q344 0 460 -339q21 -84 21 -144q0 -149 -99 -289zM412 1248v-314h313q113 0 145 54q24 43 24 76v26q0 105 -97 152
q-24 6 -46 6h-339zM919 426q3 10 3 29q0 117 -100 162q-21 9 -64 9h-346v-314h373q113 0 134 114z" />
    <glyph glyph-name="c" unicode="c" horiz-adv-x="1688" 
d="M888 2l-33 1q-34 0 -50 1l-50 7q-186 28 -332 133.5t-229 264t-94 346.5q0 16 1 23q-1 9 -1 23q11 189 94 347t228.5 263t332.5 133l46 8h3q2 1 7 1h44l31 1q32 0 96 -4q91 -15 168 -43q147 -57 258.5 -160t174.5 -244l1 -3q4 -12 4 -36q0 -65 -41 -111t-106 -46
q-35 0 -70 14l-8 3l-5 2q-9 8 -21 14q-16 13 -25 27q-35 62 -60 94l-4 3q-8 8 -9 12q-3 4 -11 12l-6 7l-22 23q-72 67 -166 101q-89 26 -167 26q-63 0 -117 -16l-43 -12q-78 -30 -158 -105l-3 -4q-92 -95 -125 -221q-12 -76 -12 -109q0 -31 12 -107q33 -127 124 -222l3 -3
q137 -135 320 -135q77 0 166 26q98 37 166 102l22 24q9 7 16 17q5 8 12 13l1 1q30 40 63 96q10 18 22 25l19 13q3 4 15 10q39 13 68 13q66 0 108 -46.5t42 -113.5q0 -23 -4 -35l-1 -3q-90 -196 -245 -301q-147 -113 -356 -145q-55 -5 -94 -5z" />
    <glyph glyph-name="d" unicode="d" horiz-adv-x="1562" 
d="M253 0q-46 0 -83 25.5t-55 68.5l-5 12q-1 2 -8 30v1q-2 10 -2 22v1239q0 106 111 153l13 3q15 3 29 3h423q570 0 749 -526q37 -139 37 -247q0 -327 -228 -573q-206 -211 -561 -211h-420zM412 310h304q289 0 408 299q26 83 26 166v17q0 283 -239 415q-87 38 -192 38h-307
v-935z" />
    <glyph glyph-name="e" unicode="e" horiz-adv-x="1272" 
d="M1011 1245h-599v-311h378q88 0 135 -90q7 -15 11 -29l1 -4q0 2 3 -1v-18q1 -4 1 -13v-4q0 -84 -83 -131l-17 -9q-6 -4 -14 -6l-4 -2h-7q-16 -2 -26 -2h-378v-315h592q125 0 162 -117q2 -8 2 -15v-2q2 -9 5 -15q0 -99 -102 -149q-29 -12 -67 -12h-751q-60 0 -101 42
q-30 25 -47 74q-2 8 -2 16l-1 10q-2 12 -2 17v1246q0 50 29.5 87.5t77.5 55.5q3 2 13 5l3 1q17 3 30 3h751q116 0 158 -101l4 -13q2 -5 2 -11q5 -15 5 -27v-7q0 -74 -68 -120q-17 -15 -33 -21h-4l-11 -5l-10 -4z" />
    <glyph glyph-name="f" unicode="f" horiz-adv-x="1272" 
d="M253 0q-94 0 -141 104q-4 4 -5 9l-1 4v5q-6 26 -6 37v1245q0 32 16 68q14 27 46.5 52t62.5 30q13 3 28 3h751q127 0 163 -119q6 -18 6 -40q0 -102 -116 -145q-10 -5 -20 -5l-25 -3h-600v-311h327q107 0 147 -121q2 -6 2 -14q1 -10 1 -24q0 -102 -105 -141q-22 -9 -45 -9
h-327v-450q0 -124 -102 -164q-6 -2 -7 -2l-9 -3q-14 -6 -39 -6h-2z" />
    <glyph glyph-name="g" unicode="g" horiz-adv-x="1690" 
d="M1590 729q0 -2 0.5 -6t0.5 -6v-172q0 -113 -71.5 -216t-181.5 -177q-147 -113 -356 -145q-55 -5 -94 -5l-33 1q-34 0 -50 1l-50 7q-186 28 -332 133.5t-229 264t-94 346.5q0 16 1 23q-1 9 -1 23q11 189 94 347t228.5 263t332.5 133l46 8h3q2 1 7 1h44l31 1q32 0 96 -4
q91 -15 168 -43q147 -57 258.5 -160t174.5 -244l1 -3q4 -12 4 -36q0 -65 -41 -111t-106 -46q-35 0 -70 14l-8 3l-5 2q-9 8 -21 14q-16 13 -25 27q-35 62 -60 94l-4 3q-8 8 -9 12q-3 4 -11 12l-6 7l-22 23q-72 67 -166 101q-89 26 -167 26q-63 0 -117 -16l-43 -12
q-78 -30 -158 -105l-3 -4q-92 -95 -125 -221q-12 -76 -12 -109q0 -31 12 -107q33 -127 124 -222l3 -3q137 -135 320 -135q77 0 166 26q98 37 166 102l22 24q9 7 16 17q5 8 12 13l3 4l1 1v79h-356q-113 0 -152 107q-4 7 -4 16l-1 4q-2 12 -2 19q0 96 118 133q6 3 16 3l6 1
q12 2 19 2h537q103 0 149 -104l2 -9q2 -3 3 -10q0 -7 1 -10z" />
    <glyph glyph-name="h" unicode="h" horiz-adv-x="1399" 
d="M253 0q-101 0 -145 112l-1 5l-3 3l-2 19q-2 18 -2 29v1223q0 118 108 160q6 2 8 2l3 1q6 0 14 2q14 3 26 3q102 0 146 -119q7 -22 7 -52v-453h576v465q0 104 107 151q24 8 45 8h3q108 0 149 -112q3 -6 3 -10l1 -3q0 -3 1 -10t1 -10q1 -11 1 -31v-1207q0 -130 -116 -171
q-6 -2 -14 -2l-14 -3h-15q-96 0 -142 108q-10 30 -10 51v467h-576v-456q0 -125 -116 -165q-8 -2 -16 -2l-19 -3h-8z" />
    <glyph glyph-name="i" unicode="i" horiz-adv-x="512" 
d="M253 0q-93 0 -141 100q-3 4 -5 14l-1 2q-6 23 -6 43v1239q0 112 116 153q21 6 37 6h2q105 0 148 -108q6 -9 6 -19q3 -23 3 -47v-1208q0 -133 -117 -168q-17 -7 -40 -7h-2z" />
    <glyph glyph-name="j" unicode="j" horiz-adv-x="1410" 
d="M706 0q-307 0 -501 239q-105 153 -105 342v195q0 106 109 150q14 6 46 8q101 0 148 -112q6 -10 6 -19q2 -14 2 -22v-168q0 -163 73 -221q91 -82 223 -82q172 0 260 137q30 58 30 118v804q0 137 111 182q8 5 25 5l16 1h9q100 0 146 -113l1 -2q2 -6 2 -11q3 -18 3 -41v-784
q0 -425 -398 -575q-117 -31 -203 -31h-3z" />
    <glyph glyph-name="k" unicode="k" horiz-adv-x="1371" 
d="M1232 254q9 -9 11 -15q28 -45 28 -86q0 -95 -106 -143q-24 -10 -47 -10h-3q-83 0 -168 110q-404 412 -534 552v-487q0 -134 -118 -168q-16 -7 -40 -7h-2q-96 0 -143 107q-10 31 -10 52v1239q0 106 107 150q3 2 13 5l3 1q17 3 30 3h2q111 0 149 -112l4 -8l1 -4
q4 -34 4 -50v-484q27 31 53 53q483 505 562 577q35 28 90 28q102 0 148 -119l2 -14q3 -14 3 -24q0 -73 -113 -175q-391 -402 -431 -446q55 -60 505 -525z" />
    <glyph glyph-name="l" unicode="l" horiz-adv-x="1272" 
d="M253 0q-71 0 -116 59q-37 43 -37 97v1231q0 122 116 165q8 2 15 2q18 3 28 3q66 0 109.5 -50t43.5 -117v-1080h593q69 0 118.5 -41.5t49.5 -109.5q0 -3 -2 -15l-1 -12q0 -10 -3 -18q-43 -114 -163 -114h-751z" />
    <glyph glyph-name="m" unicode="m" horiz-adv-x="1661" 
d="M1558 1420q4 -24 4 -39v-1208q0 -132 -119 -169q-23 -7 -41 -7q-94 0 -144 107q-8 25 -8 54v768q-247 -331 -312 -411q-30 -35 -106 -44q-98 0 -179 134l-232 305v-752q0 -104 -112 -148q-25 -10 -47 -10h-4q-105 0 -153 121l-3 14q0 3 -0.5 7t-0.5 6q-1 4 -1 11v1236
q0 109 120 156q7 2 16 2q9 1 23 1q103 -2 179 -133l392 -521q415 556 465 614q3 5 12 10l-2 -1q45 31 95 31h3q107 0 151 -111q1 -4 1 -8l1 -3z" />
    <glyph glyph-name="n" unicode="n" horiz-adv-x="1606" 
d="M1504 1424l2 -22v-1246q0 -103 -114 -148l-1 -1l-5 -1q-4 -2 -7 -2l-23 -3h-3q-2 -1 -7 -1q-78 4 -157 109q-637 720 -777 882v-816q0 -133 -118 -168q-18 -7 -39 -7h-2q-96 0 -143 107q-10 31 -10 52v1245q0 64 47 106q23 23 60 39q24 8 46 8h10q77 -5 116 -64
q27 -25 54 -63l762 -863v838q0 62 46.5 105.5t108.5 46.5q101 0 149 -114l2 -5q3 -12 3 -14z" />
    <glyph glyph-name="o" unicode="o" horiz-adv-x="1752" 
d="M1652 801v-46q-8 -141 -64 -289v-2q-93 -207 -250 -312q-196 -149 -463 -149q-106 0 -190.5 20.5t-182.5 70.5l-12 7q-53 32 -77 51q-152 102 -243 298q-6 18 -6 21q-54 132 -64 284q0 16 1 23q-1 9 -1 23q10 151 64 286v4q85 199 249 313q141 112 356 146q49 4 106 4
q59 0 107 -4q83 -12 156 -40q50 -16 86 -37q63 -27 114 -69q156 -110 245 -299q0 -3 1 -5l2 -4v-1l2 -6v-3q55 -132 64 -285zM1331 671q10 53 10 107q0 56 -10 109q-32 125 -124 220l-4 4q-46 45 -98 76q-49 24 -70 32q-96 26 -166 26q-74 -3 -152 -26q-85 -31 -168 -108
l-3 -3q-92 -95 -125 -221q-12 -76 -12 -109q0 -31 12 -107q33 -127 124 -222l3 -3q52 -50 99 -77l13 -7q49 -22 57 -25q77 -22 151 -27q67 0 167 27q23 9 51 23l19 9q49 29 93 73q7 7 11 9q87 89 122 220zM1211 452l1 1l-2 -1h1z" />
    <glyph glyph-name="p" unicode="p" 
d="M253 0q-89 0 -142 103q-3 7 -4 12l-3 8q0 10 -2 24q-2 16 -2 21v607q0 14 2 21v563l2 84q0 13 3 20q31 96 109 96h568q348 0 460 -347q15 -60 19 -131q0 -236 -199 -384q-121 -71 -257 -71h-394v-451q0 -58 -26.5 -105t-77.5 -60q-4 -2 -16 -4q-18 -6 -37 -6h-3zM413 934
h371q168 0 168 136v12q0 113 -101 160q-14 5 -44 5h-394v-313z" />
    <glyph glyph-name="q" unicode="q" horiz-adv-x="1752" 
d="M1588 466v-2q-34 -76 -76 -136l73 -71q4 -4 6 -7q4 -6 9 -11l3 -5q26 -36 26 -91q0 -58 -44 -102l-5 -5q-13 -13 -37 -25q-41 -18 -76 -18q-58 0 -103 45l-79 76q-183 -111 -410 -111q-106 0 -190.5 20.5t-182.5 70.5l-12 7q-53 32 -77 51q-152 102 -243 298q-6 18 -6 21
q-54 132 -64 284q0 16 1 23q-1 9 -1 23q10 151 64 286v4q85 199 249 313q141 112 356 146q49 4 106 4q59 0 107 -4q83 -12 156 -40q50 -16 86 -37q63 -27 114 -69q156 -110 245 -299q0 -3 1 -5l2 -4v-1l2 -6v-3q55 -132 64 -285v-46q-8 -141 -64 -289zM1331 671
q10 53 10 107q0 56 -10 109q-32 125 -124 220l-4 4q-46 45 -98 76q-49 24 -70 32q-96 26 -166 26q-74 -3 -152 -26q-85 -31 -168 -108l-3 -3q-92 -95 -125 -221q-12 -76 -12 -109q0 -31 12 -107q33 -127 124 -222l3 -3q52 -50 99 -77l13 -7q49 -22 57 -25q77 -22 151 -27
q67 0 167 27q23 9 51 23l19 9q49 29 93 73q7 7 11 9q87 89 122 220zM1211 452l1 1l-2 -1h1z" />
    <glyph glyph-name="r" unicode="r" horiz-adv-x="1420" 
d="M1073 672q210 -439 224 -483q6 -19 6 -36q0 -101 -112 -146q-12 -4 -20 -4l-24 -3q-114 0 -176 175l-216 451h-340v-451q0 -108 -78 -153q-21 -10 -30 -12q-4 -2 -12 -4q-18 -6 -39 -6h-4q-96 0 -140 104l-3 9q0 -5 3 -9q-5 5 -5 14q-1 1 -1 3l-4 26q-2 8 -2 12q0 9 2 15
v361q-2 8 -2 24v518q0 9 2 25l1 8v249l1 84q0 14 4 22q30 94 108 94h632q168 0 283 -90.5t171 -256.5q13 -68 18 -131q0 -236 -200 -384q-19 -12 -47 -25zM996 1062v34q0 102 -90 146q-15 5 -42 5h-449v-301h450q110 0 131 116z" />
    <glyph glyph-name="s" unicode="s" horiz-adv-x="1332" 
d="M1032 863q200 -147 200 -384q-4 -62 -18 -133q-114 -346 -462 -346h-476q-37 0 -68 12q-96 49 -101 138q0 12 3 18l1 6q1 2 1 6q1 3 1 5q32 125 163 125h83v2h418q26 0 44 6q99 44 99 159v11q0 138 -168 138h-195q-133 0 -257 71q-200 149 -200 384q6 77 19 131
q115 347 462 347h416v-2h14q127 0 164 -119q5 -32 5 -40q0 -102 -116 -145q-11 -5 -20 -5l-25 -3h-371v2h-91q-29 0 -45 -5q-100 -48 -100 -160v-12q0 -136 169 -136h196q135 0 255 -71z" />
    <glyph glyph-name="t" unicode="t" horiz-adv-x="1443" 
d="M719 0q-64 0 -109 48q-29 29 -39 70l-1 6l-2 11q-1 5 -1 16v1110h-321q-109 0 -143 115l-1 9q-2 12 -2 20q0 96 106 134q5 3 16 3l4 1q6 1 20 1h964q2 0 5.5 -0.5t5.5 -0.5h5q10 -2 13 -5q105 -39 105 -133q0 -8 -2 -20l-1 -9q-34 -115 -142 -115h-321v-1110q0 -6 -2 -16
l-2 -13l-2 -5q-9 -42 -38 -69q-44 -48 -109 -48h-6z" />
    <glyph glyph-name="u" unicode="u" horiz-adv-x="1413" 
d="M709 0q-307 0 -501 239q-103 151 -105 342l-3 820q0 105 110 150q16 5 44 8q103 0 149 -113q6 -9 6 -18q2 -18 2 -24l2 -790q2 -165 74 -222q91 -82 222 -82q173 0 261 137q30 58 30 118v804q0 137 111 182q8 5 25 5l16 1h9q100 0 144 -111q5 -6 5 -15q3 -18 3 -41v-784
q0 -425 -399 -575q-115 -31 -202 -31h-3z" />
    <glyph glyph-name="v" unicode="v" horiz-adv-x="1615" 
d="M1516 1393q-3 -17 -9 -36l1 6q-8 -37 -531 -1208q-49 -151 -164 -155h-11q-116 5 -163 155q-504 1129 -529 1206l2 -9q-5 9 -12 37v11q3 91 102 141q33 11 51 12h6q113 -1 167 -159l178 -401l41 -91q20 -45 76 -168.5t87 -193.5q95 216 204 453q22 49 101 226l78 175
q52 159 170 159q13 -1 48 -10l5 -2q102 -50 102 -148z" />
    <glyph glyph-name="w" unicode="w" horiz-adv-x="2062" 
d="M641 0q-81 0 -136 78l-8 15q-155 492 -214 703l-87 283q-88 292 -92 310l-1 3q-3 9 -3 21q4 86 97 133q4 4 16 6l12 3q22 4 28 4q105 0 151 -114l231 -742q44 167 244 736q39 120 147 120h11q105 0 147 -120q223 -718 237 -760l238 766q44 114 149 114q5 0 27 -4l12 -2
q6 -1 9 -3l4 -2q101 -50 101 -145l-1 -8q0 -8 -4 -13q-7 -27 -93 -310l-85 -276q-33 -123 -212 -699q-3 -13 -12 -23q-54 -74 -132 -74h-5q-67 0 -122 64q-9 9 -12 20q-29 74 -252 798q-204 -665 -251 -797q-7 -19 -14 -24q-53 -61 -122 -61h-3z" />
    <glyph glyph-name="x" unicode="x" horiz-adv-x="1447" 
d="M920 782l337 -457q89 -103 89 -170q0 -27 -6 -39q-40 -116 -147 -116h-6q-53 0 -103 44q-8 8 -11 12l-348 466l-351 -465q-4 -7 -10 -13q-50 -44 -105 -44h-4q-109 0 -147 114q-5 9 -8 36v4q0 65 91 171l336 457l-336 450q-91 108 -91 173q3 32 8 39q38 113 147 113h4
q58 0 109 -48l49 -65q132 -176 308 -407q308 414 349 465q1 2 9 10q53 45 104 45h6q109 0 146 -116q7 -11 7 -37q0 -66 -89 -172z" />
    <glyph glyph-name="y" unicode="y" horiz-adv-x="1439" 
d="M719 0q-100 0 -147 106l-5 16l-2 17q0 4 -0.5 10t-0.5 9v561l-389 530q-75 96 -75 151v5q0 7 1 11q0 1 0.5 5.5t0.5 7.5l3 15q47 115 148 115q60 0 112 -50q22 -24 355 -481q324 444 354 481q52 50 115 50q101 0 146 -115l1 -5q0 -3 2 -8l1 -16v-15q0 -55 -73 -151
l-390 -530v-561q0 -31 -7 -47l-1 -4q-49 -107 -149 -107z" />
    <glyph glyph-name="z" unicode="z" horiz-adv-x="1446" 
d="M1339 187q2 -5 6 -5q0 -111 -95 -162q-34 -14 -67 -14h-924q-108 0 -149 106q-10 28 -10 47q0 69 88 168l692 918h-607q-119 0 -163 111q-4 8 -4 21q-2 4 -6 4q0 110 95 161q31 15 67 15h924q105 0 149 -106q10 -24 10 -47q0 -47 -100.5 -187.5t-677.5 -900.5h605
q122 0 163 -108q4 -7 4 -21z" />
    <glyph glyph-name="braceleft" unicode="{" horiz-adv-x="780" 
d="M259 57q-43 0 -67 23.5t-24 67.5v1177q0 44 23.5 68t67.5 24h257q44 0 67.5 -24t23.5 -68v-117q0 -49 -49 -49h-122v-847h122q49 0 49 -48v-116q0 -44 -23.5 -67.5t-67.5 -23.5h-257z" />
    <glyph glyph-name="bar" unicode="|" horiz-adv-x="648" 
d="M278 57q-49 0 -75.5 26.5t-26.5 74.5v1283q0 48 26.5 74.5t75.5 26.5h91q49 0 75 -26.5t26 -74.5v-1283q0 -48 -26 -74.5t-75 -26.5h-91z" />
    <glyph glyph-name="braceright" unicode="}" horiz-adv-x="780" 
d="M259 57q-43 0 -67 23.5t-24 67.5v118q0 46 48 46h121v847h-121q-48 0 -48 49v117q0 44 23.5 68t67.5 24h257q44 0 67.5 -24t23.5 -68v-1177q0 -44 -23.5 -67.5t-67.5 -23.5h-257z" />
    <glyph glyph-name="asciitilde" unicode="~" horiz-adv-x="1337" 
d="M1054 648l-776 2q-49 0 -75.5 26.5t-26.5 74.5v79q0 48 26.5 74.5t75.5 26.5l776 -2q48 0 75 -27t27 -75v-78q0 -47 -27 -74t-75 -27z" />
    <glyph glyph-name="exclamdown" unicode="&#xa1;" horiz-adv-x="538" 
d="M268 1273q-70 0 -119 40.5t-49 96.5q0 57 48 96.5t120 39.5t120.5 -39t48.5 -97q0 -57 -48.5 -97t-120.5 -40zM231 48q-57 0 -94 37t-37 95v820q0 57 37 93.5t94 36.5h75q57 0 94 -36.5t37 -93.5v-820q0 -58 -37.5 -95t-93.5 -37h-75z" />
    <glyph glyph-name="cent" unicode="&#xa2;" horiz-adv-x="1332" 
d="M1132 707q58 0 89.5 -40t31.5 -99q0 -12 -4 -21q-45 -110 -121 -177l-7 -7q-35 -34 -66 -54q-88 -71 -215 -101q-11 -114 -114 -142q-14 -7 -38 -7h-3q-74 0 -137 96l1 -1q-5 8 -7 16v2l-6 36q-157 38 -278 161q-164 162 -179 416q0 13 1 18q-1 7 -1 18q12 211 134 368
t323 206v26q0 109 113 150q21 6 36 6h3q76 0 143 -104q4 -6 6 -15v-2q4 -16 4 -37v-20q124 -32 214 -102q64 -42 123.5 -111t71.5 -130l1 -3q2 -8 2 -15q0 -59 -30.5 -98t-87.5 -40q-45 2 -66 15l-1 1q-10 4 -25 17q-9 9 -13 15q-3 4 -24 37q-14 25 -24 36l-4 4l-6 9
q-2 3 -10 11l-20 21q-44 43 -101 68v-662q64 30 101 69l17 18l5 5l5 5q7 9 9 10l2 3q9 11 19 30q28 50 49 66l17 12q25 17 67 17zM435 549l3 -3q42 -42 98 -71v658q-49 -24 -98 -72l-3 -3q-71 -75 -96 -171q-9 -52 -9 -84q0 -23 8 -79l1 -4q26 -101 96 -171z" />
    <glyph glyph-name="sterling" unicode="&#xa3;" horiz-adv-x="1479" 
d="M1195 342q48 0 74.5 -26.5t26.5 -74.5v-83q0 -48 -26.5 -74.5t-74.5 -26.5h-917q-94 0 -102 99l-11 163q199 98 243 227q1 2 1 8q0 10 -9 17.5t-22 7.5h-124q-38 0 -58 20.5t-20 57.5v177q0 19 6 24.5t25 5.5h74q13 0 21.5 9t8.5 23q0 8 -3 16q-23 76 -23 143
q0 134 70 245.5t186 174t250 62.5q151 0 275 -79t189 -216q32 -74 32 -107q0 -43 -58 -43h-207q-16 0 -25 8t-17 30q-15 33 -44 66q-65 57 -145 57q-86 0 -148 -56q-33 -34 -44 -67q-15 -33 -15 -74v-5l7 -41q9 -36 36 -70q1 0 1 -2t1 -2l31 -60q7 -12 21 -12h238
q49 0 75 -26.5t26 -75.5v-82q0 -48 -26 -74.5t-75 -26.5h-177q-19 0 -24 -19l-10 -44v-1l-7 -35v4l-15 -45l-28 -66v-3l-1 -3q0 -11 12 -18t30 -7h496z" />
    <glyph glyph-name="yen" unicode="&#xa5;" horiz-adv-x="1348" 
d="M584 57q-60 0 -60 60v105q0 12 -8 20t-20 8l-253 3q-48 0 -74.5 26t-26.5 74v71q0 49 26.5 75.5t75.5 26.5h251q12 0 20.5 8t8.5 20v75q0 12 -8.5 20t-20.5 8h-251q-49 0 -75.5 26.5t-26.5 75.5v89q0 84 87 84h123q16 0 26.5 9.5t10.5 23.5q0 11 -4 20l-189 407
q-16 35 -16 62q0 67 100 67h111q42 0 72 -32l47 -86l118 -254q15 -31 41 -31t41 31l146 314q29 58 91 58h113q99 0 99 -67q0 -25 -17 -62l-189 -407q-5 -12 -5 -20q0 -14 11 -23.5t27 -9.5h124q42 0 65 -23t23 -63v-87q0 -49 -26.5 -75.5t-75.5 -26.5h-254q-12 0 -20.5 -8
t-8.5 -20v-75q0 -12 8.5 -20t20.5 -8h254q49 0 75.5 -26.5t26.5 -75.5v-73q0 -47 -27 -74t-75 -27h-254q-12 0 -20.5 -8.5t-8.5 -20.5v-104q0 -60 -60 -60h-169z" />
    <glyph glyph-name="copyright" unicode="&#xa9;" horiz-adv-x="1599" 
d="M800 37q-147 0 -280.5 57t-230 153.5t-153.5 230t-57 280.5q0 146 57 279.5t153.5 230t230 153.5t280.5 57q146 0 279.5 -57t230 -153.5t153.5 -230t57 -279.5q0 -147 -57 -280.5t-153.5 -230t-230 -153.5t-279.5 -57zM800 186q155 0 286.5 76.5t208 208.5t76.5 287
t-76.5 286.5t-208 208t-286.5 76.5t-287 -76.5t-208.5 -208t-76.5 -286.5t76.5 -287t208.5 -208.5t287 -76.5zM786 327q-17 0 -27 1l-26 2q-126 15 -233 119q-113 110 -124 286q0 9 1 13q-1 5 -1 13q10 161 103.5 266t251.5 137l26 5h29q45 0 69 -1q119 -22 194 -80
q45 -34 84.5 -79t49.5 -87v-2q2 -8 2 -13q0 -42 -23 -70.5t-64 -29.5q-18 0 -40 8l2 -1q-13 2 -19 13l3 -5l-9 6l-3 3q-5 4 -10 12q-20 33 -31 48l-2 1q-6 8 -7 10l-2 2l-2 2q-3 2 -4 4l-11 12q-35 33 -84 51q-47 14 -87 14q-29 0 -59 -8l-22 -7q-39 -15 -79 -53l-2 -2
q-49 -49 -64 -113q-7 -35 -7 -56q0 -23 7 -54q15 -66 63 -114l2 -2q69 -69 163 -69q42 0 85 13q46 18 85 54l11 10l3 4l3 3q4 7 8 9l5 7q20 26 28 43q7 13 15 17l9 6q14 14 50 14q42 0 65.5 -29t23.5 -72q0 -9 -3 -15q-14 -45 -52 -90.5t-81 -74.5q-102 -81 -263 -81z" />
    <glyph glyph-name="registered" unicode="&#xae;" horiz-adv-x="1599" 
d="M800 1478q146 0 279.5 -57t230 -153.5t153.5 -230t57 -279.5q0 -147 -57 -280.5t-153.5 -230t-230 -153.5t-279.5 -57q-147 0 -280.5 57t-230 153.5t-153.5 230t-57 280.5q0 146 57 279.5t153.5 230t230 153.5t280.5 57zM800 186q155 0 286.5 76.5t208 208.5t76.5 287
t-76.5 286.5t-208 208t-286.5 76.5t-287 -76.5t-208.5 -208t-76.5 -286.5t76.5 -287t208.5 -208.5t287 -76.5zM1139 914q0 -65 -33 -124.5t-89 -88.5q69 -146 110 -237q4 -11 4 -22q0 -50 -62 -83q-3 -1 -13 -4l-14 -2q-66 0 -100 96l-107 222h-156v-219q0 -63 -48 -88
l-5 -2q-1 0 -3 -1t-4 -1l-9 -3q-10 -4 -22 -4h-3q-51 0 -78 58l-2 2h1q0 1 -0.5 1t-0.5 1l-2 4v-1q-2 6 -2 8l1 -1l-1 12q-1 2 -1 8q0 7 1 8v182q-1 2 -1 13v274q0 1 0.5 3t0.5 4v169q1 27 20.5 48t46.5 21h322q89 0 150 -48.5t91 -135.5q1 -6 4 -30.5t4 -38.5zM955 905v16
q0 45 -39 65q-6 2 -19 2h-218v-133h218q49 0 58 50zM504 415v1l-1 2q1 -1 1 -3zM504 415h1v-1zM505 413v1v-1z" />
    <glyph glyph-name="degree" unicode="&#xb0;" horiz-adv-x="1254" 
d="M624 660q-181 0 -314.5 124t-133.5 305t132 306.5t316 125.5q119 0 222.5 -55.5t167 -155.5t63.5 -221q0 -118 -63 -217.5t-167 -155.5t-223 -56zM624 940q55 0 106 48.5t51 100.5q0 53 -51 102.5t-106 49.5q-53 0 -103.5 -50t-50.5 -102t50.5 -100.5t103.5 -48.5z" />
    <glyph glyph-name="periodcentered" unicode="&#xb7;" horiz-adv-x="531" 
d="M264 600q-58 0 -98.5 38.5t-40.5 95.5q0 58 41 93q41 41 98 41q59 0 99.5 -37.5t40.5 -96.5q0 -56 -42 -95t-98 -39z" />
    <glyph glyph-name="questiondown" unicode="&#xbf;" horiz-adv-x="1237" 
d="M516 1208q-40 37 -40 92q0 53 41 91t94 38q61 0 96 -35q19 -24 32 -44q9 -24 9 -50q0 -24 -9 -48q-15 -27 -30.5 -42.5t-43.5 -30.5q-25 -9 -54 -9q-54 0 -95 38zM1059 571h18v-64q0 -154 -95 -273t-247 -162q-67 -15 -117 -15q-86 0 -168 33.5t-144.5 90t-101 136.5
t-38.5 167q0 106 65 203.5t162 168.5q63 44 84 137h4l42 43l-6 -43h194q7 5 14 5q6 0 13 -5h8q0 -1 -0.5 -4t-0.5 -4q3 -5 3 -10q0 -11 -7 -17q-2 -13 -4 -20v-6l-4 -12q-41 -171 -182 -273q-114 -82 -114 -170l1 -9q11 -84 100 -138q38 -18 74 -18q16 0 34 5h1l60 19
q48 28 72 74q28 40 28 97v28q-7 4 -7 17q0 3 7 10v9h11q11 8 17 8l7 -8h204l11 8zM480 992l-2 -2z" />
    <glyph glyph-name="multiply" unicode="&#xd7;" horiz-adv-x="1332" 
d="M363 320q-42 0 -72 30l-44 44q-29 28 -29 72q0 62 54 114l195 195l-200 200q-40 39 -40 93t40 93l5 6q40 39 92 39q54 0 94 -39l201 -200l195 195q54 54 115 54q42 0 70 -29l45 -44q30 -27 30 -71q0 -59 -55 -116l-195 -195l201 -200q41 -43 41 -93q0 -52 -42 -93l-6 -6
q-39 -39 -93 -39q-52 0 -92 38l-201 202l-195 -195q-53 -55 -114 -55z" />
    <glyph glyph-name="divide" unicode="&#xf7;" horiz-adv-x="1320" 
d="M651 1002q-72 0 -121 40t-49 99q0 58 48.5 96t121.5 38q70 0 118.5 -39t48.5 -95q0 -59 -48.5 -99t-118.5 -40zM231 632q-56 0 -93.5 37.5t-37.5 94.5v8q0 57 37 94t94 37h858q57 0 93.5 -36.5t36.5 -94.5v-8q0 -57 -37 -94.5t-93 -37.5h-858zM651 278q-73 0 -121.5 40
t-48.5 100q0 58 48.5 96t121.5 38q70 0 118.5 -39t48.5 -95q0 -60 -48 -100t-119 -40z" />
    <glyph glyph-name="endash" unicode="&#x2013;" horiz-adv-x="1259" 
d="M982 606l-723 3q-44 0 -67.5 23.5t-23.5 67.5v72q0 44 24 67.5t67 23.5l723 -2q44 0 67.5 -23.5t23.5 -67.5v-73q0 -43 -23.5 -67t-67.5 -24z" />
    <glyph glyph-name="emdash" unicode="&#x2014;" horiz-adv-x="1259" 
d="M982 606l-723 3q-44 0 -67.5 23.5t-23.5 67.5v72q0 44 24 67.5t67 23.5l723 -2q44 0 67.5 -23.5t23.5 -67.5v-73q0 -43 -23.5 -67t-67.5 -24z" />
    <glyph glyph-name="quoteleft" unicode="&#x2018;" horiz-adv-x="607" 
d="M259 973q-43 0 -67 23.5t-24 67.5v399q0 43 24 67t67 24h86q43 0 67 -24t24 -67v-399q0 -44 -24 -67.5t-67 -23.5h-86z" />
    <glyph glyph-name="quoteright" unicode="&#x2019;" horiz-adv-x="607" 
d="M259 973q-43 0 -67 23.5t-24 67.5v399q0 43 24 67t67 24h86q43 0 67 -24t24 -67v-399q0 -44 -24 -67.5t-67 -23.5h-86z" />
    <glyph glyph-name="quotesinglbase" unicode="&#x201a;" horiz-adv-x="574" 
d="M338 161q34 0 49 -9.5t15 -33.5q0 -15 -11 -40l-72 -173q-12 -26 -35.5 -42t-51.5 -16h-59q-35 0 -50.5 9.5t-15.5 33.5q0 17 10 40l55 132v53l18 -10q13 26 36 41t49 15h63z" />
    <glyph glyph-name="quotedblleft" unicode="&#x201c;" horiz-adv-x="1045" 
d="M259 973q-43 0 -67 23.5t-24 67.5v399q0 43 24 67t67 24h86q43 0 67 -24t24 -67v-399q0 -44 -24 -67.5t-67 -23.5h-86zM697 973q-44 0 -67.5 23.5t-23.5 67.5v399q0 44 23.5 67.5t67.5 23.5h85q44 0 68 -23.5t24 -67.5v-399q0 -44 -24 -67.5t-68 -23.5h-85z" />
    <glyph glyph-name="quotedblright" unicode="&#x201d;" horiz-adv-x="1045" 
d="M259 973q-43 0 -67 23.5t-24 67.5v399q0 43 24 67t67 24h86q43 0 67 -24t24 -67v-399q0 -44 -24 -67.5t-67 -23.5h-86zM697 973q-44 0 -67.5 23.5t-23.5 67.5v399q0 44 23.5 67.5t67.5 23.5h85q44 0 68 -23.5t24 -67.5v-399q0 -44 -24 -67.5t-68 -23.5h-85z" />
    <glyph glyph-name="bullet" unicode="&#x2022;" horiz-adv-x="531" 
d="M264 600q-58 0 -98.5 38.5t-40.5 95.5q0 58 41 93q41 41 98 41q59 0 99.5 -37.5t40.5 -96.5q0 -56 -42 -95t-98 -39z" />
    <glyph glyph-name="guilsinglleft" unicode="&#x2039;" horiz-adv-x="1297" 
d="M959 275q-19 0 -39 9l-693 296q-27 11 -43 35t-16 52v137q0 26 15 49.5t40 37.5l697 297q17 8 39 8q52 0 79 -57l32 -68q10 -21 10 -42q0 -53 -58 -79l-502 -214l502 -215q58 -27 58 -80q0 -31 -22 -68l-20 -44q-28 -54 -79 -54z" />
    <glyph glyph-name="guilsinglright" unicode="&#x203a;" horiz-adv-x="1297" 
d="M331 275q-54 0 -78 55l-21 43q-22 39 -22 68q0 53 58 80l503 215l-502 214q-59 25 -59 78q0 18 10 43l33 68q27 58 79 58q18 0 39 -9l696 -297q25 -13 40 -37t15 -50v-137q0 -28 -15.5 -52t-42.5 -35l-693 -296q-21 -9 -40 -9z" />
    <glyph glyph-name="fraction" unicode="&#x2044;" horiz-adv-x="1192" 
d="M259 48q-69 0 -113 42.5t-46 103.5q0 42 23 85l668 1206q35 61 102 61h41q70 0 114 -42.5t44 -103.5q0 -40 -23 -83l-671 -1208q-35 -61 -101 -61h-38z" />
    <glyph glyph-name="Euro" unicode="&#x20ac;" horiz-adv-x="1433" 
d="M1049 58q-224 0 -412 114t-299 313q-8 13 -21 13h-94q-26 0 -36.5 10t-10.5 36v209h63q10 0 16 8.5t6 21.5v57q0 13 -8.5 21.5t-21.5 8.5h-59l4 210q1 26 11.5 36t35.5 10h94q15 0 22 15q89 183 288 315q201 114 422 114h121q81 0 81 -82v-122q0 -83 -81 -83h-121
q-74 0 -146 -20q-90 -32 -148 -80q-11 -10 -11 -21q0 -14 13 -24t32 -11h1l177 4q46 0 72.5 -24t29.5 -67l3 -64q0 -47 -27 -74t-76 -27l-375 -2q-13 0 -21.5 -8.5t-8.5 -21.5v-58q0 -13 8.5 -21t21.5 -9l372 3q46 0 73 -23.5t30 -66.5l3 -64q0 -48 -27.5 -75t-75.5 -27
l-178 -2q-19 -1 -32.5 -11.5t-13.5 -24.5q0 -25 60.5 -56t97.5 -39q69 -24 146 -24h121q81 0 81 -82v-122q0 -83 -81 -83h-121z" />
    <glyph glyph-name="trademark" unicode="&#x2122;" horiz-adv-x="1072" 
d="M992 1460q1 -4 1 -12v-386q0 -27 -19.5 -48.5t-44.5 -21.5q-36 0 -60 44q-2 12 -2 22v204l-16 -21q-44 -59 -61 -78q-11 -14 -43 -19q-38 0 -68 49l-50 65v-200q0 -42 -46 -61l-4 -1q-10 -2 -14 -2h-2q-25 0 -43.5 13t-18.5 40q0 -5 -1 -5v396q-13 -42 -56 -42h-90v-343
l-1 -11l-2 -3q-4 -19 -21 -32t-37 -13h-2q-50 0 -62 50q-1 4 -1 11v341h-88q-48 0 -58 46q-3 8 -3 13q0 11 4 19t8 12t13 11q1 1 5 4.5t6 5.5q7 6 17 6h318q2 0 5 -0.5t4 -0.5q1 -1 2 -1q-1 0 -1 0.5t-1 0.5q36 -4 43 -42q8 46 52 46h3l5 1q42 0 70 -49l114 -151l86 115
q50 66 53 69l2 2q14 14 42 14q25 0 43.5 -13t18.5 -39v-2z" />
    <glyph glyph-name="minus" unicode="&#x2212;" horiz-adv-x="1320" 
d="M231 632q-56 0 -93.5 37.5t-37.5 94.5v8q0 57 37 94t94 37h858q57 0 93.5 -36.5t36.5 -94.5v-8q0 -57 -37 -94.5t-93 -37.5h-858z" />
    <glyph glyph-name="NULL" horiz-adv-x="1941" 
 />
    <glyph glyph-name="_FSHallmark" horiz-adv-x="1985" 
d="M104 1331v211h1781v-211h-1781zM1503 333q-77 0 -147 19q-66 18 -124 59q-55 40 -91 101q-32 57 -32 141l205 -4q0 -10 11 -33q1 -30 30 -54q20 -24 54 -38q37 -20 100 -20q71 0 112 25q43 21 43 56q0 31 -42.5 57t-125.5 42q-163 42 -262 95q-106 55 -106 178
q0 102 71 160q66 55 156 84q67 18 148 18q111 0 200 -39q98 -41 143 -141q23 -62 23 -103h-214q0 16 -16 46q-13 18 -39 39q-4 2 -22.5 10t-29.5 10q-42 7 -50 7q-51 0 -103 -26q-43 -31 -43 -64q0 -67 39 -87q63 -29 95 -36l77 -19l66 -14q37 -12 62 -15q24 -4 52 -13
q8 -5 24 -12.5t22 -11.5q43 -26 67 -58q23 -37 26 -94q4 -52 -22 -107q-55 -94 -157 -126q-100 -32 -200 -32zM104 333v884h750v-202h-515v-199h428v-196h-428v-287h-235zM941 337q-41 0 -73 32q-35 32 -35 69q0 44 33 77q28 28 75 28t85 -31q35 -27 35 -74q0 -41 -35 -73
q-40 -28 -85 -28zM100 10v211h1782v-211h-1782z" />
    <glyph glyph-name="_Fontastica" horiz-adv-x="1542" 
d="M101 234q-1 4 -1 12v1293h969v-199h-747v-531h748v-202h-748v-373h-221zM463 238v198h750v533h-750v200h750v370h220v-1301h-970zM1232 27q-13 0 -41 12q-16 23 -17 42q-2 25 16 43q20 20 42 20q26 0 49 -20l-13 -16q-1 2 -5.5 5.5t-5.5 4.5q-2 3 -18 3h-7
q-17 -7 -19 -13q-13 -6 -13 -18q0 -20 9 -29q11 -12 23 -12q20 0 36 12l13 -12q-22 -22 -49 -22zM101 31v109h82v-19h-52v-30h51v-17h-51v-43h-30zM283 22q-15 0 -24 9q-34 12 -34 47q0 30 17 46q11 16 43 16q38 0 57 -28q15 -23 4 -51t-50 -34zM485 27q-3 0 -17 12l-12 17
q0 3 -5 7.5t-5 6.5l-22 28v-67h-26v109h21q9 -1 11 -15q6 -4 26 -27l21 -33v75h24v-109h-7q-5 -4 -9 -4zM584 31v90h-37v19h95v-19h-36v-90h-22zM876 27q-34 0 -50 19q1 2 1 3l2 4q0 3 4 8l37 -12h14q2 3 4 5t3 2h1q0 18 -25 22q-5 0 -6 3q-3 1 -9 1q-19 6 -19 26
q-6 18 15 29q9 3 26 3q29 0 45 -7l-9 -21q-5 4 -9 4h-5q-2 2 -8 2q-3 0 -4 3h-14q-9 0 -9 -5q-4 -5 9 -18q4 -1 10 -3t10 -3.5t6 -1.5q23 0 23 -28q2 -25 -21 -31q-2 -4 -22 -4zM992 31v90h-36v19h97v-19h-35v-90h-26zM1099 31v109h28v-109h-28zM1317 31q27 49 44 109h31
l25 -50q0 -5 12 -34q1 -2 3 -8t4.5 -10.5t5.5 -6.5h-25l-12 22h-53l-10 -22h-25zM668 31l46 106h26q0 -3 2.5 -7.5t6 -9.5t4.5 -8q1 -2 6 -11t7 -14q7 -21 9 -31l10 -25h-27q-1 2 -1 8l-1 2q-1 2 -2 5.5t-1 6.5h-54q-1 -4 -1 -14v-3l-8 -5h-22zM285 48q6 0 10 1q22 6 22 33
v5q0 16 -8 25q-9 9 -26 9q-3 -3 -9 -3q-2 0 -20 -19q-12 -12 -3 -25q9 -26 34 -26zM706 74h38q-2 1 -3 4l-1 4q-3 3 -4.5 6.5t-2.5 3.5q-2 3 -2 12q-1 1 -4 12zM1360 74h36q-4 1 -4 8q-2 8 -5 10q-1 2 -2 6t-2 6q-1 1 -2.5 5.5t-3.5 6.5z" />
    </font>
</defs>
</svg>
