<?xml version="1.0" standalone="no"?>
<!DOCTYPE svg PUBLIC "-//W3C//DTD SVG 1.1//EN" "http://www.w3.org/Graphics/SVG/1.1/DTD/svg11.dtd" >
<svg xmlns="http://www.w3.org/2000/svg" xmlns:xlink="http://www.w3.org/1999/xlink" version="1.1">
<metadata>
Created by FontForge 20170731 at Thu Aug  8 19:27:52 2019
 By Aleksey,,,
Copyright (c) 2019 by Fontastica. All rights reserved.
</metadata>
<defs>
<font id="Jaquel-LightItalic" horiz-adv-x="1241" >
  <font-face 
    font-family="Jaquel Light Italic"
    font-weight="300"
    font-style="italic"
    font-stretch="normal"
    units-per-em="2048"
    panose-1="0 0 4 0 0 0 0 0 0 0"
    ascent="1638"
    descent="-410"
    x-height="1553"
    cap-height="1557"
    bbox="63.7586 -619 2450.13 1823"
    underline-thickness="50"
    underline-position="-200"
    unicode-range="U+000D-2212"
  />
<missing-glyph horiz-adv-x="1693" 
 />
    <glyph glyph-name=".notdef" horiz-adv-x="1693" 
 />
    <glyph glyph-name=".null" horiz-adv-x="0" 
 />
    <glyph glyph-name="nonmarkingreturn" horiz-adv-x="682" 
 />
    <glyph glyph-name="CR" unicode="&#xd;" horiz-adv-x="2069" 
 />
    <glyph glyph-name="space" unicode=" " horiz-adv-x="1234" 
 />
    <glyph glyph-name="exclam" unicode="!" horiz-adv-x="441" 
d="M282 544q-41 0 -64.5 27t-16.5 68l141 892q7 42 39 69.5t73 27.5h48q41 0 64 -27.5t16 -69.5l-141 -892q-7 -41 -38.5 -68t-72.5 -27h-48zM232 74q-50 0 -81 24t-26 58t44 58t89 24t81 -23.5t26 -58.5q-5 -33 -44.5 -57.5t-88.5 -24.5z" />
    <glyph glyph-name="quotedbl" unicode="&#x22;" horiz-adv-x="849" 
d="M386 1372q-20 0 -31.5 23t-9.5 60l7 126q0 6 2 18q7 40 31 66t56 26q30 0 45 -26.5t8 -67.5q-2 -14 -4 -19l-35 -126q-10 -36 -29 -58t-40 -22zM895 1372q-21 0 -33 23t-10 60l7 125q0 5 2 17q6 41 30.5 67.5t55.5 26.5t46.5 -26t9.5 -66q-1 -7 -5 -21l-34 -126
q-10 -36 -29.5 -58t-39.5 -22z" />
    <glyph glyph-name="numbersign" unicode="#" horiz-adv-x="1656" 
d="M415 65q-23 0 -33.5 9t-7.5 28q3 17 4 19l79 271l-223 -1q-4 2 -2 10l21 133q6 40 53 40l207 1l118 417h-214q-7 0 -10.5 3t-2.5 9l19 134q8 37 47 37h215l97 318l1 2q12 42 54 42h99q50 0 44 -40l-3 -16l-89 -303h349l97 315l1 2q12 42 54 42h99q26 0 37.5 -10t8.5 -31
q-3 -15 -4 -18l-88 -297h215q12 0 10 -13l-18 -133q-7 -39 -45 -39l-219 -2l-117 -416h217q15 0 12 -15l-18 -128q-8 -41 -48 -41h-216l-88 -286v-1q-13 -42 -56 -42h-104q-24 0 -34.5 9t-7.5 28q1 5 5 19l79 271h-356l-80 -283q-13 -44 -58 -44h-100zM712 574l354 4
l117 416l-352 -2z" />
    <glyph glyph-name="dollar" unicode="$" horiz-adv-x="1346" 
d="M655 -209q-71 0 -94 109q-3 27 3 53l7 47h-329q-31 0 -52 9q-71 41 -64 106q0 1 2 3l2 9q5 8 6 16q42 95 144 95h144v2h185l71 450q-159 5 -261 71q-172 149 -138 379q16 71 39 132q165 327 507 347l7 42q18 114 118 156q15 6 25 6h2q81 0 97 -120q0 -33 -9 -86h176v-2
h66q101 0 117 -92q0 -4 -0.5 -15t-1.5 -17q-12 -75 -114 -112q-2 -1 -5 -1l-28 -3h-248l-71 -446q129 -10 227 -72q171 -144 137 -378q-14 -64 -40 -135q-155 -307 -471 -344q-27 -171 -133 -203q-8 -6 -21 -6h-2zM718 926l72 455l-44 -5q-30 -4 -45 -8q-155 -68 -180 -225
l-2 -13q-29 -180 199 -204zM847 230l57 21q152 62 177 224l2 11q27 166 -163 205z" />
    <glyph glyph-name="percent" unicode="%" horiz-adv-x="1550" 
d="M689 1213q-97 0 -156.5 65t-44.5 162q16 96 95.5 161.5t177.5 65.5q96 0 157 -65.5t46 -161.5q-15 -95 -97 -161t-178 -66zM1552 1534q-5 -33 -30 -69l-979 -1369q-28 -41 -73 -41h-46q-56 0 -86 32t-23 80q7 37 31 70l976 1368q31 41 76 41h44q57 0 87.5 -32t22.5 -80z
M707 1324q42 0 86.5 37.5t51.5 78.5q7 40 -27 78t-75 38t-85.5 -37.5t-51.5 -78.5t26 -78.5t75 -37.5zM1165 65q-97 0 -156.5 65t-44.5 162q16 96 95.5 161.5t177.5 65.5q96 0 157 -65.5t46 -161.5q-15 -95 -97 -161t-178 -66zM1183 176q42 0 87 37.5t51 78.5q7 40 -26.5 78
t-74.5 38t-86 -38t-52 -78q-6 -41 27 -78.5t74 -37.5z" />
    <glyph glyph-name="ampersand" unicode="&#x26;" horiz-adv-x="1530" 
d="M1492 623q31 -36 25 -78q-5 -35 -39 -61l-144 -100l105 -124q24 -31 18 -64q-6 -44 -55 -77l-47 -29q-42 -27 -71 -27q-12 0 -15 5l-43 53l-12 -3l-98 132q-288 -197 -538 -197h-22l-7 1l-12 1q-151 21 -237 83t-120 196q-13 84 -4 141q14 89 63 162q120 164 336 301
l-27 35q-18 23 -27 32q-29 35 -42 58q3 13 0.5 17t-12.5 5l-9 20q-15 33 -18 47q-20 64 -10 124q2 12 10 43q40 165 177 262.5t308 97.5q106 0 187.5 -53.5t120 -144.5t21.5 -197v-5q-14 -69 -56.5 -137t-101.5 -115l-156 -125l283 -368l137 104q32 25 64 25q36 0 59 -29z
M681 1296v-61l35 -57l75 -90q104 54 159 110l35 40q17 23 22 53q7 38 -11 85l-23 31q-39 39 -101 39h-8q-61 -5 -99 -36l-54 -42zM477 1068l-2 2l2 -3v-12l-25 30h15l1 -2q4 -4 5 -8q3 -3 4 -7zM477 1067v1l1 -1v-1q-1 0 -1 1zM478 1058v8l1 -3q0 -3 -1 -5zM478 1058v-5v5z
M623 285q86 0 178.5 39t172.5 101l-260 339q-39 -24 -67.5 -42.5t-70.5 -50.5t-69.5 -60.5t-51 -65t-28.5 -71.5q-5 -36 2 -65q20 -54 45 -76q31 -34 113 -46h1q22 -2 35 -2zM1215 117h-3l2 1z" />
    <glyph glyph-name="quotesingle" unicode="'" horiz-adv-x="537" 
d="M393 1096q-51 0 -43 51l71 452q8 51 59 51h97q50 0 42 -51l-71 -452q-8 -51 -58 -51h-97z" />
    <glyph glyph-name="parenleft" unicode="(" horiz-adv-x="1085" 
d="M905 69q-5 0 -19 2q-211 39 -370 150.5t-235 276.5t-47 351q30 189 156.5 355t321.5 277.5t422 148.5q6 1 19 1q38 0 60 -25.5t16 -63.5l-4 -26q-5 -34 -31.5 -58t-63.5 -31q-239 -48 -414 -209t-208 -369t91 -369t348 -209q35 -7 53.5 -30.5t13.5 -58.5l-4 -25
q-6 -37 -36 -62.5t-69 -25.5z" />
    <glyph glyph-name="parenright" unicode=")" horiz-adv-x="1085" 
d="M203 69q-40 0 -61.5 29t-14.5 72l2 12q5 35 30.5 58.5t62.5 30.5q238 48 412.5 209t207.5 369q22 138 -26.5 259t-155.5 204.5t-254 114.5q-35 7 -53 31t-13 58l2 15q8 43 37.5 71.5t68.5 28.5q12 0 18 -1q161 -27 293.5 -99.5t219 -175t125 -234t15.5 -272.5
q-30 -189 -156.5 -354.5t-321 -276t-422.5 -147.5q-10 -2 -16 -2z" />
    <glyph glyph-name="asterisk" unicode="*" horiz-adv-x="1086" 
d="M706 910l-6 1l-7 1q-22 2 -34.5 14.5t-8.5 31.5l26 166l-128 -111q-30 -25 -52 -25q-9 0 -15 7l-26 30q-7 8 -5 19q5 25 32 46l121 105h-147q-26 0 -40.5 9t-12.5 24l7 44q2 14 20 23.5t43 9.5h155l-97 117q-11 14 -8 29q3 18 21 39l5 4q11 12 27 12q21 0 34 -16
l105 -122l27 174q4 20 19.5 33t35.5 13h4q21 0 32 -13t7 -33l-24 -162l127 107q27 24 49 24q11 0 18 -7l27 -29q6 -7 4 -17q-3 -22 -33 -49l-120 -104h147q25 0 39.5 -9.5t12.5 -24.5l-6 -44q-3 -14 -21 -23.5t-43 -9.5h-155l97 -116q13 -15 11 -33q-3 -16 -22 -32l-4 -4
q-18 -15 -37 -15q-18 0 -28 14l-103 124l-28 -177q-3 -18 -15 -31.5t-27 -13.5z" />
    <glyph glyph-name="plus" unicode="+" horiz-adv-x="1364" 
d="M683 236q-33 0 -49.5 32.5t-8.5 83.5l58 365h-373q-41 0 -64.5 27.5t-16.5 69.5l1 7q7 42 38.5 69t72.5 27l373 1l59 368q7 48 33.5 80.5t57.5 33.5h4l72 2q34 -1 49.5 -34t7.5 -84l-58 -366h373q43 0 65.5 -26.5t15.5 -69.5l-1 -8q-7 -42 -38 -69.5t-71 -27.5h-375
l-58 -365q-8 -51 -34.5 -83.5t-60.5 -32.5h-72z" />
    <glyph glyph-name="comma" unicode="," horiz-adv-x="471" 
d="M222 -148q-6 0 -9 1q-33 10 -23 70q1 9 5 22l24 78q-48 19 -75 51t-22 63q0 5 4 15q16 32 52.5 51.5t78.5 19.5q55 0 97 -34.5t34 -87.5q-1 -10 -6 -22q-9 -28 -20 -45l-64 -119q-35 -63 -76 -63z" />
    <glyph glyph-name="hyphen" unicode="-" horiz-adv-x="1142" 
d="M332 859q-41 0 -64 27t-17 68l2 10q6 41 38 68t73 27h751q41 0 63.5 -27t16.5 -68l-2 -10q-6 -41 -37.5 -68t-72.5 -27h-751z" />
    <glyph glyph-name="period" unicode="." horiz-adv-x="478" 
d="M250 55q-60 0 -96 30.5t-29 74.5q7 43 51.5 71.5t105.5 28.5q58 0 92.5 -28.5t27.5 -71.5q-7 -44 -50.5 -74.5t-101.5 -30.5z" />
    <glyph glyph-name="slash" unicode="/" horiz-adv-x="1219" 
d="M236 55q-57 0 -87 32t-23 80q7 36 32 70l972 1368q31 41 77 41h46q57 0 86.5 -32t21.5 -80q-5 -35 -30 -69l-976 -1368q-32 -42 -76 -42h-43z" />
    <glyph glyph-name="zero" unicode="0" horiz-adv-x="1413" 
d="M713 55q-165 0 -293.5 65.5t-191.5 178.5t-41 248l96 611q21 132 120 244.5t249 178t313 65.5q124 0 230.5 -39t177.5 -104.5t105 -156.5t18 -191l-96 -608q-22 -135 -120.5 -248t-249 -178.5t-317.5 -65.5zM744 255q138 0 249 85.5t131 206.5l95 604q19 121 -64.5 206.5
t-221.5 85.5q-139 0 -249.5 -84.5t-129.5 -203.5l-96 -608q-20 -121 63.5 -206.5t222.5 -85.5z" />
    <glyph glyph-name="one" unicode="1" horiz-adv-x="441" 
d="M216 0q-69 0 -96 85v3q-3 20 0 36l216 1367q13 86 110 120q16 4 26 4h4q80 0 101 -92q1 -14 -3 -48l-212 -1334q-16 -109 -117 -136q-12 -5 -25 -5h-4z" />
    <glyph glyph-name="two" unicode="2" horiz-adv-x="1476" 
d="M262 46q-64 1 -102.5 43t-30.5 94q8 51 59 89l869 643v3l53 46l88 121l11 73q18 114 -69.5 201t-220.5 87q-94 0 -179 -43t-138 -115q-36 -51 -81 -51h-91q-46 0 -74 25.5t-22 60.5q3 20 18 41q97 126 264 204t354 78q160 0 287 -68t189.5 -184t41.5 -250
q-9 -57 -39.5 -113.5t-103.5 -128.5t-136.5 -128t-204.5 -156.5t-236.5 -166t-299.5 -203.5l855 9q40 -1 62 -27.5t16 -66.5l-2 -11q-7 -43 -37.5 -70t-73.5 -27z" />
    <glyph glyph-name="three" unicode="3" horiz-adv-x="1328" 
d="M137 0q-14 0 -22.5 8t-6.5 20l30 184q2 12 12 20t23 8h652q168 0 225 166q10 23 12 44q27 164 -105 228q-29 13 -90 13h-406q-13 0 -20.5 8.5t-5.5 21.5l28 176q2 14 12.5 22.5t23.5 8.5h369q157 0 220 86q41 58 50 108l4 29q23 145 -104 219q-2 0 0 -2q-42 10 -70 10
h-619q-12 0 -19 9t-5 22l27 181q2 12 11.5 20t22.5 8h591q168 0 270 -85t135 -251q7 -84 -2 -145q-23 -148 -145 -289q-4 -4 -8.5 -16t-7.5 -22l-3 -9q113 -158 86 -336l-5 -29q-34 -211 -241 -356q-131 -80 -310 -80h-609z" />
    <glyph glyph-name="four" unicode="4" horiz-adv-x="1718" 
d="M1171 55q-41 0 -63.5 27t-15.5 70l44 276h-873q-41 0 -64 27.5t-16 68.5l22 139q5 28 23 46l915 911q26 26 58 26h306q41 0 63 -27t16 -68l-139 -873h181q42 0 65 -27t16 -69l-2 -11q-7 -48 -43 -95.5t-75 -47.5h-181l-44 -276q-7 -43 -37.5 -70t-71.5 -27h-84zM481 678
h694l122 770z" />
    <glyph glyph-name="five" unicode="5" horiz-adv-x="1482" 
d="M783 55q-206 0 -351 100.5t-175 257.5q-2 8 0 16q3 19 20.5 31.5t40.5 12.5h166q41 0 62 -50q31 -70 104 -112t167 -42q138 0 247 84.5t129 206.5q19 119 -64.5 203.5t-220.5 84.5h-510q-42 0 -64 27t-15 69l96 607q6 41 37 68t73 27h971q42 0 65 -27t17 -68l-2 -11
q-7 -42 -38.5 -69.5t-73.5 -27.5h-683q-46 0 -82.5 -31t-43.5 -78l-30 -190q-7 -46 19 -77.5t72 -31.5h222q164 0 293.5 -65.5t193.5 -178t43 -244.5q-21 -133 -120 -246.5t-249.5 -179.5t-315.5 -66z" />
    <glyph glyph-name="six" unicode="6" horiz-adv-x="1421" 
d="M720 55q-123 0 -230 39.5t-178.5 106t-106 158t-18.5 191.5q21 136 132 265l683 798q30 33 69 33h21q60 0 92.5 -35t24.5 -86q-8 -44 -43 -84l-337 -395q133 -2 248.5 -43t193 -108t115 -157.5t22.5 -187.5q-21 -134 -120.5 -248t-250.5 -180.5t-317 -66.5zM752 257
q139 0 250 85.5t130 207.5q19 120 -65.5 207t-221.5 87t-248.5 -86.5t-130.5 -207.5q-19 -122 64.5 -207.5t221.5 -85.5z" />
    <glyph glyph-name="seven" unicode="7" horiz-adv-x="1665" 
d="M601 55q-61 0 -93.5 34.5t-24.5 85.5q6 42 42 85l1007 1182h-1108q-41 0 -64 27t-17 68l3 14q6 40 38 67.5t73 27.5h1273q41 0 64 -27t17 -68l-24 -149q-3 -22 -18 -41l-1085 -1273q-27 -33 -68 -33h-15z" />
    <glyph glyph-name="eight" unicode="8" horiz-adv-x="1420" 
d="M581 0q-181 0 -283 80q-79 72 -112 163t-17 193l5 29q27 178 196 341l3 22q-90 156 -65 309q9 56 43 145q174 336 511 336h209q166 0 267.5 -85t135.5 -251q6 -86 -3 -145q-26 -158 -163 -309l-3 -22q116 -166 89 -341l-5 -29q-34 -210 -240 -356q-131 -80 -310 -80h-258
zM753 928h209q152 0 218 86q40 56 49 108l4 29q24 152 -105 217q-37 10 -67 10h-265q-32 0 -70 -10q-152 -67 -176 -217l-4 -29q-9 -53 16 -109q36 -85 191 -85zM579 240h337q165 0 226 167q7 14 12 43q27 164 -104 228q-33 13 -91 13h-282q-61 0 -94 -14
q-150 -66 -175 -227q-4 -24 -2 -43q6 -167 173 -167z" />
    <glyph glyph-name="nine" unicode="9" horiz-adv-x="1413" 
d="M591 55q-60 0 -92 35t-24 85q7 45 41 82l344 409q-177 1 -317.5 68t-210.5 180t-49 244q21 132 120.5 244.5t250 178t314.5 65.5t293.5 -65.5t192.5 -178t42 -244.5q-20 -132 -122 -248l-700 -822q-26 -33 -67 -33h-16zM843 859q141 0 250.5 83t128.5 206q19 122 -65 208
t-222 86q-140 0 -250 -85t-129 -209q-20 -122 63 -205.5t224 -83.5z" />
    <glyph glyph-name="colon" unicode=":" horiz-adv-x="481" 
d="M338 608q-58 0 -95 30.5t-30 72.5q7 43 53 73t105 30q57 0 93.5 -30.5t30.5 -72.5q-7 -42 -53.5 -72.5t-103.5 -30.5zM251 55q-59 0 -96 30t-30 72q7 43 53.5 73t104.5 30t94.5 -30t29.5 -73q-7 -42 -52.5 -72t-103.5 -30z" />
    <glyph glyph-name="semicolon" unicode=";" horiz-adv-x="498" 
d="M355 608q-58 0 -95 30.5t-30 72.5q7 43 53 73t105 30q57 0 93 -30.5t30 -72.5q-7 -42 -53 -72.5t-103 -30.5zM226 -113q-5 0 -8 1q-31 9 -22 70q2 11 5 23l23 78q-47 19 -74 50t-23 62q6 39 49 63.5t85 24.5q55 0 98 -35t35 -88q-1 -6 -7 -22q-5 -20 -19 -45l-65 -119
q-38 -63 -77 -63z" />
    <glyph glyph-name="less" unicode="&#x3c;" horiz-adv-x="1466" 
d="M371 988l903 359q19 8 35 8q27 0 36 -28l31 -94q6 -14 4 -33q-7 -29 -39 -44l-533 -216l-230 -98l198 -97l453 -212l9 -3q33 -17 27 -47v-5l-5 -18q-2 -5 -2 -7q-10 -10 -18 -22l-37 -62q-24 -38 -57 -38q-13 0 -31 8l-789 360q-35 21 -30 61l27 167q6 39 48 61z" />
    <glyph glyph-name="equal" unicode="=" horiz-adv-x="1142" 
d="M356 1012q-41 0 -64 27.5t-17 68.5l2 8q7 43 38.5 70t72.5 27h751q41 0 64 -27t16 -70l-2 -8q-6 -41 -37.5 -68.5t-72.5 -27.5h-751zM266 444q-41 0 -64 27t-17 68l2 10q7 41 38.5 68t72.5 27h751q41 0 64 -27t16 -68l-2 -10q-6 -41 -37.5 -68t-72.5 -27h-751z" />
    <glyph glyph-name="greater" unicode="&#x3e;" horiz-adv-x="1467" 
d="M1401 988q36 -23 30 -61l-27 -167q-5 -39 -48 -61l-903 -360q-21 -8 -35 -8q-31 0 -45 38l-17 62q-2 6 -10 22v7l1 18v5q7 31 43 47l9 3l521 212l228 97l-198 98l-465 216q-28 16 -25 44q1 13 14 33l61 94q19 28 46 28q15 0 31 -8z" />
    <glyph glyph-name="question" unicode="?" horiz-adv-x="1411" 
d="M721 508q-43 0 -65.5 27t-15.5 68l23 148q7 42 30 69.5t51 27.5h97q138 0 248.5 85.5t129.5 209.5q19 122 -63.5 205t-221.5 83q-115 0 -214 -63.5t-145 -159.5q-15 -38 -48 -38h-189q-21 0 -33.5 11.5t-9.5 29.5l2 7q61 179 253 303.5t418 124.5q164 0 292.5 -65.5
t191 -178t41.5 -244.5q-27 -172 -187 -308.5t-382 -175.5l-11 -71q-7 -41 -38.5 -68t-73.5 -27h-80zM690 55q-62 0 -97 28.5t-28 72.5q6 42 49.5 69t106.5 27q59 0 91.5 -26.5t25.5 -69.5q-8 -44 -49 -72.5t-99 -28.5z" />
    <glyph glyph-name="at" unicode="@" horiz-adv-x="2456" 
d="M982 -619h-8q-196 32 -359 132.5t-270 247t-152.5 340t-12.5 402.5q36 231 158 441t296 362.5t394.5 242.5t447.5 90q187 0 352.5 -57t288.5 -161.5t206 -244.5t112.5 -313.5t-0.5 -359.5q-32 -201 -128.5 -385.5t-248.5 -336.5q-19 -21 -40 -21q-15 0 -30 12l-456 357
q-159 -97 -301 -97q-132 0 -232 63.5t-146 174t-25 243.5q32 199 193 337.5t362 138.5q96 0 183 -46t152 -131q10 64 37.5 107.5t59.5 43.5h25q31 0 46.5 -27.5t8.5 -68.5l-112 -709l219 -151q181 229 224 496q30 191 -16 364.5t-150.5 298.5t-265 199t-350.5 74
q-185 0 -364.5 -74t-321 -199t-240.5 -298.5t-129 -364.5q-37 -231 32.5 -430t226 -327.5t371.5 -162.5q29 -5 44 -30.5t9 -61.5l-2 -18q-7 -40 -32 -66t-56 -26zM1258 193q126 0 229 93.5t124 226.5t-52.5 227t-199.5 94q-124 0 -227 -94t-124 -227q-21 -134 51.5 -227
t198.5 -93z" />
    <glyph glyph-name="A" unicode="A" horiz-adv-x="1704" 
d="M1564 328q58 -173 57 -214l-9 -28l-2 -5v3l-1 -3q-51 -81 -119 -81q-46 0 -78 39l-2 3q-10 22 -88 256q-4 13 -11 33t-15.5 45.5t-11.5 35.5l-737 -5q-194 -303 -239 -365q-1 -2 -3 -4l1 2l-2 -1q-43 -39 -90 -39q-72 0 -93 81l-1 3v2l-1 28v1q11 38 125 214
q104 161 397 621l159 248q67 108 128 201q36 52 50.5 72t37.5 45.5t41 33t40 7.5h4q39 0 59 -29t52 -108q5 -14 8 -21q309 -975 344 -1071zM692 630h524q-26 58 -28 82q-19 56 -27 88l-26 78q-51 159 -94 302q-151 -233 -194 -302l-50 -78q-13 -23 -34 -54l-22 -35
q-7 -15 -49 -81zM1410 40v2v-2z" />
    <glyph glyph-name="B" unicode="B" horiz-adv-x="1303" 
d="M211 0q-68 0 -91 81q-4 22 -1 38l210 1329q10 62 96 105q17 7 53 7h484q324 0 390 -324q6 -87 -2 -139q-23 -150 -159 -299l-3 -22q112 -159 86 -328l-4 -28q-32 -202 -233 -343q-125 -77 -298 -77h-528zM471 893h385q152 0 214 84q40 56 47 105l5 28q22 147 -104 210
q-35 10 -64 10h-413zM366 230h448q162 0 220 161q7 19 11 42q25 159 -102 221q-30 13 -87 13h-420z" />
    <glyph glyph-name="C" unicode="C" horiz-adv-x="1684" 
d="M889 2l-34 1q-33 0 -49 1l-49 7q-184 29 -312.5 133.5t-185.5 262t-39 348.5q2 15 6 22q-1 12 1 24q32 142 102 268.5t169 224.5t228 164t274 86l47 8q5 0 7 1h79q46 0 94 -3q86 -15 162 -43q137 -57 231.5 -159t135.5 -243q1 -3 1 -9l-1 -13q-8 -48 -43 -82.5t-82 -34.5
q-27 0 -56 13l-3 1h-1q-9 9 -18 13l-10 12q-22 58 -53 111l-5 4q-8 14 -16 24l-5 6l-21 26q-70 80 -177 121q-98 30 -190 30q-75 0 -142 -19l-50 -14q-99 -35 -210 -126l-5 -5q-124 -110 -185 -258q-24 -71 -34 -127q-8 -52 -6 -125q13 -149 105 -262l2 -3
q136 -159 352 -159q93 0 199 30q136 49 244 147l10 9q11 9 16 16l4 4l8 6q39 43 90 111l8 8l29 18q1 1 4 3q27 10 53 10q49 0 74 -34.5t17 -84.5l-3 -13l-4 -9q-120 -194 -290 -298q-165 -113 -379 -145q-53 -5 -94 -5z" />
    <glyph glyph-name="D" unicode="D" horiz-adv-x="1549" 
d="M211 0q-38 0 -62 24q-17 15 -26 43l-3 16q-2 6 -2 17v4q0 10 1 15l209 1319q12 79 100 115l8 1q12 3 22 3h452q280 0 447.5 -133.5t218.5 -390.5q14 -144 -3 -249q-52 -326 -320 -575q-242 -209 -593 -209h-449zM366 228h376q346 0 539 353q47 103 61 194l2 17
q54 336 -205 490q-98 45 -220 45h-379z" />
    <glyph glyph-name="E" unicode="E" 
d="M1228 1327h-688l-69 -434h454q63 0 88 -66q1 -5 2.5 -14t2.5 -13l1 -5l-1 -6v-5t-1 -5v-4q-10 -60 -77 -94l-23 -12h-5q-14 -3 -23 -3h-454l-69 -438h682q96 0 109 -87v-15q0 -11 1 -16q-12 -65 -94 -101q-22 -9 -52 -9h-801q-43 0 -66 30q-21 21 -28 56l1 6v15l1 12
l210 1327q12 74 105 108h2q12 3 22 3h801q88 0 108 -74l2 -12l-1 -4q3 -16 2 -21l-1 -8q-9 -53 -67 -87q-8 -7 -17 -11h-2l-11 -5l-9 -3l-5 -2zM912 667l2 1q2 0 3 1h5z" />
    <glyph glyph-name="F" unicode="F" 
d="M1369 1467q2 -13 0 -29q-12 -72 -109 -107q-2 -1 -5 -1l-28 -3h-687l-69 -434h399q77 0 95 -94l-3 -24q-7 -43 -46.5 -76t-81.5 -33h-399l-84 -531q-15 -98 -97 -127q1 1 0 1h-3q-15 -9 -37 -9h-3q-68 0 -92 87v-1l-1 -2v3t1 1v2q-2 18 0 29l210 1326q4 27 20 50
q23 34 82 57q4 2 7 2q10 3 20 3h801q96 0 110 -90zM119 83l-1 -6l1 9v-3z" />
    <glyph glyph-name="G" unicode="G" horiz-adv-x="1714" 
d="M1700 718l-1 -5l-29 -183l-14 -74l-1 -2q-123 -199 -293 -302q-165 -113 -379 -145q-53 -5 -94 -5l-34 1q-33 0 -49 1l-49 7q-184 29 -312.5 133.5t-185.5 262t-39 348.5q2 15 6 22q-1 12 1 24q32 142 102 268.5t169 224.5t228 164t274 86l47 8q5 0 7 1h79q46 0 94 -3
q86 -15 162 -43q137 -57 231.5 -159t135.5 -243q1 -3 1 -9q-1 -5 -1 -13q-8 -48 -43 -82.5t-82 -34.5q-27 0 -56 13l-3 1h-1q-9 9 -18 13l-10 12q-22 58 -53 111l-5 4q-8 14 -16 24l-5 6l-21 26q-70 80 -177 121q-98 30 -190 30q-75 0 -142 -19l-50 -14q-99 -35 -210 -126
l-5 -5q-124 -110 -185 -258q-24 -71 -34 -127q-8 -52 -6 -125q13 -149 105 -262l2 -3q136 -159 352 -159q93 0 199 30q136 49 244 147l10 9q11 9 16 16l4 4l8 6q6 6 19 18l24 156h-431q-83 0 -101 83l-1 1v2l1 -1v8v11q11 65 110 94l11 2q5 1 12 1h573q75 0 97 -75l2 -9v-14
z" />
    <glyph glyph-name="H" unicode="H" horiz-adv-x="1376" 
d="M211 0q-71 0 -92 87v5l-1 12q0 4 1 12t1 12l207 1303q14 90 99 122l6 1l13 2q13 3 21 3q73 0 91 -92q3 -16 -1 -39l-84 -534h716l86 546q12 77 99 114q20 5 31 5h3q79 0 99 -90v-1l-2 -16q-2 -26 -3 -29l-203 -1287q-16 -99 -109 -133h-7l-14 -3h-11q-69 0 -90 81
q-5 25 -2 38l87 548h-716l-85 -537q-15 -94 -107 -127h-7l-21 -3h-5z" />
    <glyph glyph-name="I" unicode="I" horiz-adv-x="431" 
d="M559 1468q1 0 1 1q-2 -30 -5 -46l-204 -1288q-16 -104 -112 -131q-9 -4 -25 -4h-3q-67 0 -92 81l-1 3q-2 21 1 35l209 1319q12 82 105 115q20 4 25 4h3q77 0 98 -89zM560 1469v1v-1z" />
    <glyph glyph-name="J" unicode="J" horiz-adv-x="1387" 
d="M694 0q-299 0 -455 234q-77 153 -49 334l33 208q12 79 104 113q6 2 29 4q74 0 97 -91l1 -1q0 -4 -0.5 -11t-0.5 -9l-29 -179q-30 -197 52 -275q99 -99 255 -99q213 0 349 171q51 73 63 152l136 856q18 113 115 149h3l19 1h7q71 0 94 -88q0 -20 -4 -39l-132 -836
q-65 -411 -477 -563q-120 -31 -206 -31h-4z" />
    <glyph glyph-name="K" unicode="K" horiz-adv-x="1346" 
d="M212 0q-69 0 -92 81q-4 22 -1 38l209 1319q12 80 106 116h2q12 3 23 3h2q80 0 98 -91q0 -24 -3 -43l-107 -650l-97 -638q-16 -104 -113 -131q-12 -4 -25 -4h-2zM1130 0q-33 0 -68.5 24.5t-64.5 72.5l-548 676l172 154q591 528 694 612l8 5q29 13 57 13q71 0 94 -89v-10
v-18q-9 -53 -129 -149q-515 -456 -565 -503q2 -9 52.5 -78t159 -206.5t256.5 -319.5q20 -44 16 -73q-7 -40 -49.5 -75.5t-81.5 -35.5h-3z" />
    <glyph glyph-name="L" unicode="L" 
d="M211 0q-51 0 -76 44q-23 31 -17 71l208 1312q14 92 106 127h7q18 3 27 3q48 0 73 -38.5t17 -88.5l-190 -1202h683q28 0 36 -3q87 -31 75 -106l-3 -10q-4 -10 -4 -17l-1 -3q-48 -89 -140 -89h-801z" />
    <glyph glyph-name="M" unicode="M" horiz-adv-x="1655" 
d="M1782 1455q0 -24 -2 -34l-204 -1288q-17 -106 -113 -131q-10 -5 -25 -5h-1q-68 0 -94 81q-3 21 1 39l154 974q-400 -446 -511 -560q-23 -21 -82 -29q-40 1 -67 20.5t-51 75.5l-278 473l-151 -954q-14 -78 -105 -110q-17 -7 -31 -7h-5q-76 0 -99 92v6l1 15v6l208 1316
q13 80 110 118h5q10 1 23 1q80 0 128 -119l364 -613q537 594 644 705l-4 -2q4 2 5 4l6 5l-4 -4q45 24 77 24h3q78 0 98 -85v-5v-9z" />
    <glyph glyph-name="N" unicode="N" horiz-adv-x="1596" 
d="M1725 1465q1 -1 1 -2l-2 -23l-210 -1325q-12 -74 -105 -110l-2 -1h-1l-2 -1l1 1l-22 -3l-6 -1q-59 6 -113 97q-696 962 -752 1049l-10 -59l-151 -952q-16 -104 -110 -130q-15 -5 -27 -5h-3q-68 0 -91 81q-4 22 -1 38l210 1326q7 46 46 76q20 17 52 31q17 5 31 5h9
q57 -5 78 -50q21 -22 46 -67l742 -1021l9 53l154 974q7 44 47 76t86 35q73 -2 95 -87z" />
    <glyph glyph-name="O" unicode="O" horiz-adv-x="1752" 
d="M1757 1097q35 -139 22 -296l-7 -46q-37 -155 -106 -281l-8 -13l-2 -4q-119 -199 -294 -305q-218 -149 -487 -149q-108 0 -188.5 20.5t-169.5 70.5l-10 7q-41 25 -70 51q-131 97 -196 296l-1 3l2 9q-37 138 -22 295q2 15 6 22q-1 12 1 24q35 158 116 296v4
q114 191 292 303q158 112 378 146q49 4 108 4q61 0 106 -4q81 -12 150 -40q47 -15 80 -37q60 -27 102 -69q139 -109 198 -294l1 -8zM1546 778q36 225 -96 387l-5 4q-47 55 -101 90q-48 26 -78 38q-104 30 -189 30q-86 -3 -182 -30q-107 -38 -221 -129l-5 -5
q-124 -110 -185 -258q-24 -71 -34 -127q-8 -52 -6 -125q13 -149 105 -262l2 -3q53 -59 103 -91l15 -8q25 -14 62 -30q91 -27 172 -31q76 0 198 31q30 11 66 27l24 10q69 38 124 87q-2 -2 -7 -2l14 7q188 161 224 390zM1759 1097l-1 1v8z" />
    <glyph glyph-name="P" unicode="P" horiz-adv-x="1337" 
d="M227 790l96 607l16 89l1 5q33 68 80 68h604q163 0 261.5 -84.5t127.5 -247.5q4 -72 -2 -128q-37 -221 -248 -365q-128 -67 -255 -67h-471l-85 -532q-7 -44 -32 -80.5t-65 -46.5q-4 -2 -11 -2q-16 -6 -29 -6h-3q-64 0 -92 80l-2 5v5q0 4 0.5 11t1.5 11v16l103 647z
M472 893h446q232 0 262 196l3 13q24 155 -106 218q-22 9 -65 9h-471z" />
    <glyph glyph-name="Q" unicode="Q" horiz-adv-x="1752" 
d="M1757 1097q35 -139 22 -296l-7 -46q-37 -155 -106 -281l-8 -13l-2 -4q-45 -76 -123 -166l93 -107l6 -11l4 -5h1q10 -37 6 -67q-6 -40 -43 -72l-6 -6q-10 -9 -28 -16q-31 -14 -62 -14q-41 0 -68 33l-96 110q-222 -133 -465 -133q-108 0 -188.5 20.5t-169.5 70.5l-10 7
q-41 25 -70 51q-131 97 -196 296l-1 3l2 9q-37 138 -22 295q2 15 6 22q-1 12 1 24q35 158 116 296v4q114 191 292 303q158 112 378 146q49 4 108 4q61 0 106 -4q81 -12 150 -40q47 -15 80 -37q60 -27 102 -69q139 -109 198 -294l1 -8zM1546 778q36 225 -96 387l-5 4
q-47 55 -101 90q-48 26 -78 38q-104 30 -189 30q-86 -3 -182 -30q-107 -38 -221 -129l-5 -5q-124 -110 -185 -258q-24 -71 -34 -127q-8 -52 -6 -125q13 -149 105 -262l2 -3q53 -59 103 -91l15 -8q25 -14 62 -30q91 -27 172 -31q76 0 198 31q30 11 66 27l24 10q69 38 124 87
q-2 -2 -7 -2l14 7q188 161 224 390zM1759 1097l-1 1v8z" />
    <glyph glyph-name="R" unicode="R" horiz-adv-x="1401" 
d="M1476 1227q2 -79 -2 -128q-39 -224 -249 -365q-28 -15 -98 -44q166 -514 171 -555q2 -12 2 -23q-12 -74 -106 -108l-5 -1l-25 -3q-85 2 -113 155l-163 512h-447l-85 -532q-7 -45 -33.5 -82t-67.5 -45q-4 -2 -5 -2q-20 -6 -32 -6h-6q-71 0 -88 80q-2 9 -3 10l1 21
q0 1 -0.5 3.5t-0.5 4.5l2 4l64 403l97 604l42 267l17 90q31 72 79 72h673q160 0 256.5 -87.5t124.5 -244.5zM1235 1116q23 144 -97 204q-24 9 -62 9h-531l-67 -423h532q162 0 219 171zM115 97q5 -6 6 -7v-1q-1 3 -6 8zM122 85q-1 -1 -1 -3v7q1 -1 1 -4z" />
    <glyph glyph-name="S" unicode="S" horiz-adv-x="1304" 
d="M1201 1557h65q96 0 112 -89q-1 -5 -1.5 -15t-0.5 -15q-12 -72 -109 -107q-1 -1 -4 -1l-28 -3l-490 2q-39 0 -67 -9q-149 -64 -173 -218l-3 -13q-15 -98 35 -147t165 -49h209q127 0 234 -67q166 -142 132 -365q-16 -71 -39 -130q-166 -331 -494 -331h-508q-29 0 -50 9
q-66 39 -62 101q2 1 2 2l3 9q5 13 6 16q40 91 137 91l534 2q33 0 68 10q148 60 172 217l2 11q31 199 -198 199h-209q-126 0 -235 67q-164 144 -132 365q21 83 39 128q167 332 495 332h393v-2z" />
    <glyph glyph-name="T" unicode="T" horiz-adv-x="1423" 
d="M1481 1542q82 -31 72 -96q-3 -11 -4 -14l-2 -6q-38 -82 -114 -82h-394l-196 -1235l-2 -8q-2 -4 -2 -7l-3 -4q-10 -33 -36 -54q-38 -36 -85 -36h-6q-47 0 -74 36q-19 20 -20 51l-1 3v11v8l196 1235h-393q-78 0 -88 82v6v14q11 66 99 96l-1 -1l6 1q6 1 15 1h1024q6 0 9 -1z
M1480 1543h-1h1zM1484 1542h-3l-1 1zM842 98l-5 -11l2 7z" />
    <glyph glyph-name="U" unicode="U" horiz-adv-x="1390" 
d="M697 0q-299 0 -455 234q-75 150 -49 334l135 874q9 49 47 80.5t88 36.5q73 -1 95 -94q1 0 1 2q0 -17 -1 -22l-132 -843q-29 -195 53 -275q99 -99 255 -99q212 0 349 171q52 74 64 152l136 856q18 113 114 149h3l19 1h7q72 0 93 -91l1 3q0 -20 -4 -39l-132 -836
q-65 -411 -478 -563q-118 -31 -205 -31h-4z" />
    <glyph glyph-name="V" unicode="V" horiz-adv-x="1606" 
d="M799 0q-89 5 -107 132q-362 1259 -359 1280q-6 10 -6 22l1 6q14 66 95 104q21 8 36 9h5q85 -3 108 -137l123 -430l29 -97q76 -257 138 -489q26 44 361 586q56 90 146 242l114 188q66 136 154 137q9 -1 36 -9v-1q72 -39 61 -105q-5 -15 -13 -31q-4 -17 -765 -1275
q-60 -127 -148 -132h-9z" />
    <glyph glyph-name="W" unicode="W" horiz-adv-x="2082" 
d="M2210 1447l-2 -8l1 5q-63 -139 -156 -338l-137 -295q-35 -85 -345 -746q0 -2 -2 -4q-54 -61 -112 -61h-5q-48 0 -84 52l-1 1q-18 78 -157 1011q-470 -1007 -479 -1013q-51 -51 -102 -51h-3q-61 0 -93 59l-3 9q-72 462 -109 743l-44 303q-44 294 -47 327v6v6q15 63 95 100
l13 2q20 4 21 4q77 0 98 -87l138 -957q7 27 40 100t108 224.5t133.5 267.5t182.5 359q47 93 124 93h11q76 0 94 -93q97 -641 151 -959l453 965q47 87 124 87q6 0 18 -3l11 -2h1v-1l6 -2q67 -39 58 -104z" />
    <glyph glyph-name="X" unicode="X" horiz-adv-x="1442" 
d="M1475 1557q78 0 96 -105q-1 0 -2 -7q-9 -54 -108 -151l-465 -512l302 -519q69 -99 60 -149q-3 -16 -5 -18q-46 -96 -125 -96h-7q-36 0 -70 34l-3 4l-326 552l-506 -555l-3 -2q-42 -33 -80 -33h-4q-80 0 -97 96v18v2q11 51 110 147l464 519l-301 512q-69 99 -62 149v3.5
t-1 2.5t-4 0.5t-9 -2.5l22 20q43 90 125 90h4q39 0 73 -37l38 -63q63 -108 291 -488q332 367 501 550l-4 -2l6 4l2 3l-1 -1v-1q49 35 82 35h7z" />
    <glyph glyph-name="Y" unicode="Y" horiz-adv-x="1418" 
d="M709 0q-74 0 -96 80l-2 9l1 13q0 12 1 15l97 615l-332 579q-57 88 -50 129l1 6l2 5q0 2 1.5 7.5t1.5 8.5l2 7q49 85 122 85q43 0 77 -37q23 -32 327 -564q475 536 503 564q44 37 91 37q71 0 92 -85l1 -10q-1 -2 -1 -5v-5l-2 -14q-7 -40 -87 -129l-519 -579l-97 -615
q-1 -2 -2 -7.5t-2.5 -11t-3.5 -10.5l-3 -8q-49 -80 -122 -80h-1z" />
    <glyph glyph-name="Z" unicode="Z" horiz-adv-x="1426" 
d="M220 6q-83 0 -99 81q-5 18 -2 30v2q9 55 105 145l968 1063h-749q-94 0 -112 87q-1 2 0 6q0 28 -1 32q15 58 88 94q23 11 51 11h984q78 0 98 -81q5 -18 3 -30v-1q-6 -37 -138 -186t-895 -979l-46 -46h754q94 0 112 -86v-3q0 -25 1 -33q-15 -60 -87 -95q-28 -11 -51 -11
h-984z" />
    <glyph glyph-name="bracketleft" unicode="[" horiz-adv-x="695" 
d="M204 55q-41 0 -64 27t-16 70l222 1399q6 41 37.5 68t72.5 27h306q41 0 63 -27t16 -68l-1 -4q-7 -42 -34 -69.5t-63 -27.5h-141l-189 -1190h129q41 0 63.5 -27t15.5 -69l-2 -12q-7 -43 -37.5 -70t-71.5 -27h-306z" />
    <glyph glyph-name="backslash" unicode="\" horiz-adv-x="1236" 
d="M967 55q-46 0 -62 41l-545 1369q-20 52 -12 100q5 35 26 58t50 23h119q46 0 62 -41l542 -1368q20 -53 12 -102q-5 -35 -24.5 -57.5t-47.5 -22.5h-120z" />
    <glyph glyph-name="bracketright" unicode="]" horiz-adv-x="695" 
d="M204 55q-41 0 -64 27t-16 70l2 12q7 42 34 69t62 27h141l189 1190h-127q-41 0 -64 28t-16 69l1 4q6 41 37.5 68t72.5 27h306q41 0 63 -27t16 -68l-222 -1399q-7 -43 -37.5 -70t-71.5 -27h-306z" />
    <glyph glyph-name="asciicircum" unicode="^" horiz-adv-x="1520" 
d="M1359 698l-101 -42q-17 -7 -32 -7q-30 0 -44 39l-147 482l-59 203l-129 -203l-300 -483q-25 -38 -56 -38q-17 0 -31 7l-96 47q-29 16 -24 43q3 17 14 33l501 804q23 35 60 35h194q36 0 49 -36l249 -801q5 -22 2 -35q-5 -29 -48 -47z" />
    <glyph glyph-name="underscore" unicode="_" horiz-adv-x="1142" 
d="M146 -315q-41 0 -64 27.5t-17 68.5l1 7q7 42 38.5 69.5t73.5 27.5h751q41 0 63.5 -27t15.5 -70l-1 -7q-6 -41 -37.5 -68.5t-72.5 -27.5h-751z" />
    <glyph glyph-name="a" unicode="a" horiz-adv-x="1703" 
d="M1564 328q58 -173 57 -214l-9 -28l-2 -5v3l-1 -3q-51 -81 -119 -81q-46 0 -78 39l-2 3q-10 22 -88 256q-4 13 -11 33t-15.5 45.5t-11.5 35.5l-737 -5q-194 -303 -239 -365q-1 -2 -3 -4l1 2l-2 -1q-43 -39 -90 -39q-72 0 -93 81l-1 3v2l-1 28v1q11 38 125 214
q104 161 397 621l159 248q67 108 128 201q36 52 50.5 72t37.5 45.5t41 33t40 7.5h4q39 0 59 -29t52 -108q5 -14 8 -21q309 -975 344 -1071zM692 630h524q-26 58 -28 82q-19 56 -27 88l-26 78q-51 159 -94 302q-151 -233 -194 -302l-50 -78q-13 -23 -34 -54l-22 -35
q-7 -15 -49 -81zM1410 40v2v-2z" />
    <glyph glyph-name="b" unicode="b" horiz-adv-x="1303" 
d="M211 0q-68 0 -91 81q-4 22 -1 38l210 1329q10 62 96 105q17 7 53 7h484q324 0 390 -324q6 -87 -2 -139q-23 -150 -159 -299l-3 -22q112 -159 86 -328l-4 -28q-32 -202 -233 -343q-125 -77 -298 -77h-528zM471 893h385q152 0 214 84q40 56 47 105l5 28q22 147 -104 210
q-35 10 -64 10h-413zM366 230h448q162 0 220 161q7 19 11 42q25 159 -102 221q-30 13 -87 13h-420z" />
    <glyph glyph-name="c" unicode="c" horiz-adv-x="1684" 
d="M889 2l-34 1q-33 0 -49 1l-49 7q-184 29 -312.5 133.5t-185.5 262t-39 348.5q2 15 6 22q-1 12 1 24q32 142 102 268.5t169 224.5t228 164t274 86l47 8q5 0 7 1h79q46 0 94 -3q86 -15 162 -43q137 -57 231.5 -159t135.5 -243q1 -3 1 -9l-1 -13q-8 -48 -43 -82.5t-82 -34.5
q-27 0 -56 13l-3 1h-1q-9 9 -18 13l-10 12q-22 58 -53 111l-5 4q-8 14 -16 24l-5 6l-21 26q-70 80 -177 121q-98 30 -190 30q-75 0 -142 -19l-50 -14q-99 -35 -210 -126l-5 -5q-124 -110 -185 -258q-24 -71 -34 -127q-8 -52 -6 -125q13 -149 105 -262l2 -3
q136 -159 352 -159q93 0 199 30q136 49 244 147l10 9q11 9 16 16l4 4l8 6q39 43 90 111l8 8l29 18q1 1 4 3q27 10 53 10q49 0 74 -34.5t17 -84.5l-3 -13l-4 -9q-120 -194 -290 -298q-165 -113 -379 -145q-53 -5 -94 -5z" />
    <glyph glyph-name="d" unicode="d" horiz-adv-x="1549" 
d="M211 0q-38 0 -62 24q-17 15 -26 43l-3 16q-2 6 -2 17v4q0 10 1 15l209 1319q12 79 100 115l8 1q12 3 22 3h452q280 0 447.5 -133.5t218.5 -390.5q14 -144 -3 -249q-52 -326 -320 -575q-242 -209 -593 -209h-449zM366 228h376q346 0 539 353q47 103 61 194l2 17
q54 336 -205 490q-98 45 -220 45h-379z" />
    <glyph glyph-name="e" unicode="e" horiz-adv-x="1240" 
d="M1228 1327h-688l-69 -434h454q63 0 88 -66q1 -5 2.5 -14t2.5 -13l1 -5l-1 -6v-5t-1 -5v-4q-10 -60 -77 -94l-23 -12h-5q-14 -3 -23 -3h-454l-69 -438h682q96 0 109 -87v-15q0 -11 1 -16q-12 -65 -94 -101q-22 -9 -52 -9h-801q-43 0 -66 30q-21 21 -28 56l1 6v15l1 12
l210 1327q12 74 105 108h2q12 3 22 3h801q88 0 108 -74l2 -12l-1 -4q3 -16 2 -21l-1 -8q-9 -53 -67 -87q-8 -7 -17 -11h-2l-11 -5l-9 -3l-5 -2zM912 667l2 1q2 0 3 1h5z" />
    <glyph glyph-name="f" unicode="f" horiz-adv-x="1240" 
d="M1369 1467q2 -13 0 -29q-12 -72 -109 -107q-2 -1 -5 -1l-28 -3h-687l-69 -434h399q77 0 95 -94l-3 -24q-7 -43 -46.5 -76t-81.5 -33h-399l-84 -531q-15 -98 -97 -127q1 1 0 1h-3q-15 -9 -37 -9h-3q-68 0 -92 87v-1l-1 -2v3t1 1v2q-2 18 0 29l210 1326q4 27 20 50
q23 34 82 57q4 2 7 2q10 3 20 3h801q96 0 110 -90zM119 83l-1 -6l1 9v-3z" />
    <glyph glyph-name="g" unicode="g" horiz-adv-x="1714" 
d="M1700 718l-1 -5l-29 -183l-14 -74l-1 -2q-123 -199 -293 -302q-165 -113 -379 -145q-53 -5 -94 -5l-34 1q-33 0 -49 1l-49 7q-184 29 -312.5 133.5t-185.5 262t-39 348.5q2 15 6 22q-1 12 1 24q32 142 102 268.5t169 224.5t228 164t274 86l47 8q5 0 7 1h79q46 0 94 -3
q86 -15 162 -43q137 -57 231.5 -159t135.5 -243q1 -3 1 -9q-1 -5 -1 -13q-8 -48 -43 -82.5t-82 -34.5q-27 0 -56 13l-3 1h-1q-9 9 -18 13l-10 12q-22 58 -53 111l-5 4q-8 14 -16 24l-5 6l-21 26q-70 80 -177 121q-98 30 -190 30q-75 0 -142 -19l-50 -14q-99 -35 -210 -126
l-5 -5q-124 -110 -185 -258q-24 -71 -34 -127q-8 -52 -6 -125q13 -149 105 -262l2 -3q136 -159 352 -159q93 0 199 30q136 49 244 147l10 9q11 9 16 16l4 4l8 6q6 6 19 18l24 156h-431q-83 0 -101 83l-1 1v2l1 -1v8v11q11 65 110 94l11 2q5 1 12 1h573q75 0 97 -75l2 -9v-14
z" />
    <glyph glyph-name="h" unicode="h" horiz-adv-x="1375" 
d="M211 0q-71 0 -92 87v5l-1 12q0 4 1 12t1 12l207 1303q14 90 99 122l6 1l13 2q13 3 21 3q73 0 91 -92q3 -16 -1 -39l-84 -534h716l86 546q12 77 99 114q20 5 31 5h3q79 0 99 -90v-1l-2 -16q-2 -26 -3 -29l-203 -1287q-16 -99 -109 -133h-7l-14 -3h-11q-69 0 -90 81
q-5 25 -2 38l87 548h-716l-85 -537q-15 -94 -107 -127h-7l-21 -3h-5z" />
    <glyph glyph-name="i" unicode="i" horiz-adv-x="430" 
d="M559 1468q1 0 1 1q-2 -30 -5 -46l-204 -1288q-16 -104 -112 -131q-9 -4 -25 -4h-3q-67 0 -92 81l-1 3q-2 21 1 35l209 1319q12 82 105 115q20 4 25 4h3q77 0 98 -89zM560 1469v1v-1z" />
    <glyph glyph-name="j" unicode="j" horiz-adv-x="1387" 
d="M694 0q-299 0 -455 234q-77 153 -49 334l33 208q12 79 104 113q6 2 29 4q74 0 97 -91l1 -1q0 -4 -0.5 -11t-0.5 -9l-29 -179q-30 -197 52 -275q99 -99 255 -99q213 0 349 171q51 73 63 152l136 856q18 113 115 149h3l19 1h7q71 0 94 -88q0 -20 -4 -39l-132 -836
q-65 -411 -477 -563q-120 -31 -206 -31h-4z" />
    <glyph glyph-name="k" unicode="k" horiz-adv-x="1345" 
d="M212 0q-69 0 -92 81q-4 22 -1 38l209 1319q12 80 106 116h2q12 3 23 3h2q80 0 98 -91q0 -24 -3 -43l-107 -650l-97 -638q-16 -104 -113 -131q-12 -4 -25 -4h-2zM1130 0q-33 0 -68.5 24.5t-64.5 72.5l-548 676l172 154q591 528 694 612l8 5q29 13 57 13q71 0 94 -89v-10
v-18q-9 -53 -129 -149q-515 -456 -565 -503q2 -9 52.5 -78t159 -206.5t256.5 -319.5q20 -44 16 -73q-7 -40 -49.5 -75.5t-81.5 -35.5h-3z" />
    <glyph glyph-name="l" unicode="l" horiz-adv-x="1240" 
d="M211 0q-51 0 -76 44q-23 31 -17 71l208 1312q14 92 106 127h7q18 3 27 3q48 0 73 -38.5t17 -88.5l-190 -1202h683q28 0 36 -3q87 -31 75 -106l-3 -10q-4 -10 -4 -17l-1 -3q-48 -89 -140 -89h-801z" />
    <glyph glyph-name="m" unicode="m" horiz-adv-x="1655" 
d="M1782 1455q0 -24 -2 -34l-204 -1288q-17 -106 -113 -131q-10 -5 -25 -5h-1q-68 0 -94 81q-3 21 1 39l154 974q-400 -446 -511 -560q-23 -21 -82 -29q-40 1 -67 20.5t-51 75.5l-278 473l-151 -954q-14 -78 -105 -110q-17 -7 -31 -7h-5q-76 0 -99 92v6l1 15v6l208 1316
q13 80 110 118h5q10 1 23 1q80 0 128 -119l364 -613q537 594 644 705l-4 -2q4 2 5 4l6 5l-4 -4q45 24 77 24h3q78 0 98 -85v-5v-9z" />
    <glyph glyph-name="n" unicode="n" horiz-adv-x="1595" 
d="M1725 1465q1 -1 1 -2l-2 -23l-210 -1325q-12 -74 -105 -110l-2 -1h-1l-2 -1l1 1l-22 -3l-6 -1q-59 6 -113 97q-696 962 -752 1049l-10 -59l-151 -952q-16 -104 -110 -130q-15 -5 -27 -5h-3q-68 0 -91 81q-4 22 -1 38l210 1326q7 46 46 76q20 17 52 31q17 5 31 5h9
q57 -5 78 -50q21 -22 46 -67l742 -1021l9 53l154 974q7 44 47 76t86 35q73 -2 95 -87z" />
    <glyph glyph-name="o" unicode="o" horiz-adv-x="1751" 
d="M1757 1097q35 -139 22 -296l-7 -46q-37 -155 -106 -281l-8 -13l-2 -4q-119 -199 -294 -305q-218 -149 -487 -149q-108 0 -188.5 20.5t-169.5 70.5l-10 7q-41 25 -70 51q-131 97 -196 296l-1 3l2 9q-37 138 -22 295q2 15 6 22q-1 12 1 24q35 158 116 296v4
q114 191 292 303q158 112 378 146q49 4 108 4q61 0 106 -4q81 -12 150 -40q47 -15 80 -37q60 -27 102 -69q139 -109 198 -294l1 -8zM1546 778q36 225 -96 387l-5 4q-47 55 -101 90q-48 26 -78 38q-104 30 -189 30q-86 -3 -182 -30q-107 -38 -221 -129l-5 -5
q-124 -110 -185 -258q-24 -71 -34 -127q-8 -52 -6 -125q13 -149 105 -262l2 -3q53 -59 103 -91l15 -8q25 -14 62 -30q91 -27 172 -31q76 0 198 31q30 11 66 27l24 10q69 38 124 87q-2 -2 -7 -2l14 7q188 161 224 390zM1759 1097l-1 1v8z" />
    <glyph glyph-name="p" unicode="p" horiz-adv-x="1337" 
d="M227 790l96 607l16 89l1 5q33 68 80 68h604q163 0 261.5 -84.5t127.5 -247.5q4 -72 -2 -128q-37 -221 -248 -365q-128 -67 -255 -67h-471l-85 -532q-7 -44 -32 -80.5t-65 -46.5q-4 -2 -11 -2q-16 -6 -29 -6h-3q-64 0 -92 80l-2 5v5q0 4 0.5 11t1.5 11v16l103 647z
M472 893h446q232 0 262 196l3 13q24 155 -106 218q-22 9 -65 9h-471z" />
    <glyph glyph-name="q" unicode="q" horiz-adv-x="1751" 
d="M1757 1097q35 -139 22 -296l-7 -46q-37 -155 -106 -281l-8 -13l-2 -4q-45 -76 -123 -166l93 -107l6 -11l4 -5h1q10 -37 6 -67q-6 -40 -43 -72l-6 -6q-10 -9 -28 -16q-31 -14 -62 -14q-41 0 -68 33l-96 110q-222 -133 -465 -133q-108 0 -188.5 20.5t-169.5 70.5l-10 7
q-41 25 -70 51q-131 97 -196 296l-1 3l2 9q-37 138 -22 295q2 15 6 22q-1 12 1 24q35 158 116 296v4q114 191 292 303q158 112 378 146q49 4 108 4q61 0 106 -4q81 -12 150 -40q47 -15 80 -37q60 -27 102 -69q139 -109 198 -294l1 -8zM1546 778q36 225 -96 387l-5 4
q-47 55 -101 90q-48 26 -78 38q-104 30 -189 30q-86 -3 -182 -30q-107 -38 -221 -129l-5 -5q-124 -110 -185 -258q-24 -71 -34 -127q-8 -52 -6 -125q13 -149 105 -262l2 -3q53 -59 103 -91l15 -8q25 -14 62 -30q91 -27 172 -31q76 0 198 31q30 11 66 27l24 10q69 38 124 87
q-2 -2 -7 -2l14 7q188 161 224 390zM1759 1097l-1 1v8z" />
    <glyph glyph-name="r" unicode="r" horiz-adv-x="1400" 
d="M1476 1227q2 -79 -2 -128q-39 -224 -249 -365q-28 -15 -98 -44q166 -514 171 -555q2 -12 2 -23q-12 -74 -106 -108l-5 -1l-25 -3q-85 2 -113 155l-163 512h-447l-85 -532q-7 -45 -33.5 -82t-67.5 -45q-4 -2 -5 -2q-20 -6 -32 -6h-6q-71 0 -88 80q-2 9 -3 10l1 21
q0 1 -0.5 3.5t-0.5 4.5l2 4l64 403l97 604l42 267l17 90q31 72 79 72h673q160 0 256.5 -87.5t124.5 -244.5zM1235 1116q23 144 -97 204q-24 9 -62 9h-531l-67 -423h532q162 0 219 171zM115 97q5 -6 6 -7v-1q-1 3 -6 8zM122 85q-1 -1 -1 -3v7q1 -1 1 -4z" />
    <glyph glyph-name="s" unicode="s" horiz-adv-x="1304" 
d="M1201 1557h65q96 0 112 -89q-1 -5 -1.5 -15t-0.5 -15q-12 -72 -109 -107q-1 -1 -4 -1l-28 -3l-490 2q-39 0 -67 -9q-149 -64 -173 -218l-3 -13q-15 -98 35 -147t165 -49h209q127 0 234 -67q166 -142 132 -365q-16 -71 -39 -130q-166 -331 -494 -331h-508q-29 0 -50 9
q-66 39 -62 101q2 1 2 2l3 9q5 13 6 16q40 91 137 91l534 2q33 0 68 10q148 60 172 217l2 11q31 199 -198 199h-209q-126 0 -235 67q-164 144 -132 365q21 83 39 128q167 332 495 332h393v-2z" />
    <glyph glyph-name="t" unicode="t" horiz-adv-x="1422" 
d="M1481 1542q82 -31 72 -96q-3 -11 -4 -14l-2 -6q-38 -82 -114 -82h-394l-196 -1235l-2 -8q-2 -4 -2 -7l-3 -4q-10 -33 -36 -54q-38 -36 -85 -36h-6q-47 0 -74 36q-19 20 -20 51l-1 3v11v8l196 1235h-393q-78 0 -88 82v6v14q11 66 99 96l-1 -1l6 1q6 1 15 1h1024q6 0 9 -1z
M1480 1543h-1h1zM1484 1542h-3l-1 1zM842 98l-5 -11l2 7z" />
    <glyph glyph-name="u" unicode="u" horiz-adv-x="1390" 
d="M697 0q-299 0 -455 234q-75 150 -49 334l135 874q9 49 47 80.5t88 36.5q73 -1 95 -94q1 0 1 2q0 -17 -1 -22l-132 -843q-29 -195 53 -275q99 -99 255 -99q212 0 349 171q52 74 64 152l136 856q18 113 114 149h3l19 1h7q72 0 93 -91l1 3q0 -20 -4 -39l-132 -836
q-65 -411 -478 -563q-118 -31 -205 -31h-4z" />
    <glyph glyph-name="v" unicode="v" horiz-adv-x="1606" 
d="M799 0q-89 5 -107 132q-362 1259 -359 1280q-6 10 -6 22l1 6q14 66 95 104q21 8 36 9h5q85 -3 108 -137l123 -430l29 -97q76 -257 138 -489q26 44 361 586q56 90 146 242l114 188q66 136 154 137q9 -1 36 -9v-1q72 -39 61 -105q-5 -15 -13 -31q-4 -17 -765 -1275
q-60 -127 -148 -132h-9z" />
    <glyph glyph-name="w" unicode="w" horiz-adv-x="2081" 
d="M2210 1447l-2 -8l1 5q-63 -139 -156 -338l-137 -295q-35 -85 -345 -746q0 -2 -2 -4q-54 -61 -112 -61h-5q-48 0 -84 52l-1 1q-18 78 -157 1011q-470 -1007 -479 -1013q-51 -51 -102 -51h-3q-61 0 -93 59l-3 9q-72 462 -109 743l-44 303q-44 294 -47 327v6v6q15 63 95 100
l13 2q20 4 21 4q77 0 98 -87l138 -957q7 27 40 100t108 224.5t133.5 267.5t182.5 359q47 93 124 93h11q76 0 94 -93q97 -641 151 -959l453 965q47 87 124 87q6 0 18 -3l11 -2h1v-1l6 -2q67 -39 58 -104z" />
    <glyph glyph-name="x" unicode="x" horiz-adv-x="1441" 
d="M1475 1557q78 0 96 -105q-1 0 -2 -7q-9 -54 -108 -151l-465 -512l302 -519q69 -99 60 -149q-3 -16 -5 -18q-46 -96 -125 -96h-7q-36 0 -70 34l-3 4l-326 552l-506 -555l-3 -2q-42 -33 -80 -33h-4q-80 0 -97 96v18v2q11 51 110 147l464 519l-301 512q-69 99 -62 149v3.5
t-1 2.5t-4 0.5t-9 -2.5l22 20q43 90 125 90h4q39 0 73 -37l38 -63q63 -108 291 -488q332 367 501 550l-4 -2l6 4l2 3l-1 -1v-1q49 35 82 35h7z" />
    <glyph glyph-name="y" unicode="y" horiz-adv-x="1418" 
d="M709 0q-74 0 -96 80l-2 9l1 13q0 12 1 15l97 615l-332 579q-57 88 -50 129l1 6l2 5q0 2 1.5 7.5t1.5 8.5l2 7q49 85 122 85q43 0 77 -37q23 -32 327 -564q475 536 503 564q44 37 91 37q71 0 92 -85l1 -10q-1 -2 -1 -5v-5l-2 -14q-7 -40 -87 -129l-519 -579l-97 -615
q-1 -2 -2 -7.5t-2.5 -11t-3.5 -10.5l-3 -8q-49 -80 -122 -80h-1z" />
    <glyph glyph-name="z" unicode="z" horiz-adv-x="1425" 
d="M220 6q-83 0 -99 81q-5 18 -2 30v2q9 55 105 145l968 1063h-749q-94 0 -112 87q-1 2 0 6q0 28 -1 32q15 58 88 94q23 11 51 11h984q78 0 98 -81q5 -18 3 -30v-1q-6 -37 -138 -186t-895 -979l-46 -46h754q94 0 112 -86v-3q0 -25 1 -33q-15 -60 -87 -95q-28 -11 -51 -11
h-984z" />
    <glyph glyph-name="braceleft" unicode="{" horiz-adv-x="733" 
d="M229 65q-51 0 -43 50l211 1334q9 51 60 51h290q51 0 42 -51l-21 -133q0 -2 -2 -2h-192l-169 -1065h192q2 0 2 -2l-21 -132q-8 -50 -59 -50h-290z" />
    <glyph glyph-name="bar" unicode="|" horiz-adv-x="582" 
d="M249 65q-62 0 -53 61l230 1455q11 61 73 61h103q30 0 43.5 -16t8.5 -45l-230 -1455q-9 -61 -72 -61h-103z" />
    <glyph glyph-name="braceright" unicode="}" horiz-adv-x="733" 
d="M229 65q-51 0 -43 50l21 134h192l169 1065h-190q-2 0 -2 2l21 133q9 51 60 51h290q51 0 42 -51l-211 -1334q-8 -50 -59 -50h-290z" />
    <glyph glyph-name="asciitilde" unicode="~" horiz-adv-x="1362" 
d="M1235 735l-879 2q-30 0 -44 16t-10 45l15 90q10 61 72 61l880 -2q29 0 43 -16.5t9 -45.5l-14 -89q-5 -29 -24 -45t-48 -16z" />
    <glyph glyph-name="exclamdown" unicode="&#xa1;" horiz-adv-x="478" 
d="M467 1443q-57 0 -93 30t-29 72q7 43 51 72t103 29t94.5 -29t28.5 -72q-7 -42 -51.5 -72t-103.5 -30zM205 55q-42 0 -65 27.5t-16 69.5l147 928q7 42 38 68.5t73 26.5h85q42 0 65 -26.5t16 -68.5l-147 -928q-7 -43 -38.5 -70t-72.5 -27h-85z" />
    <glyph glyph-name="cent" unicode="&#xa2;" horiz-adv-x="1384" 
d="M1338 1029v1h-1l-3 2q-6 3 -14 11q-1 1 -3 4t-3 4q-7 14 -19 40q-13 31 -28 52l-3 4q-3 7 -15 22l-18 24q-61 69 -187 115l-143 -903q158 57 225 119l21 20l3 2q21 18 23 21q4 4 7 8l1 1q14 16 31 39q32 40 40 48l11 11l18 11l6 4q24 7 43 7q43 0 59.5 -30t9.5 -75l-2 -4
q-66 -113 -153 -182l-9 -7q-44 -37 -79 -57q-114 -82 -283 -115q-24 -130 -121 -155q-8 -4 -25 -4h-3q-55 0 -97 84l-1 3q0 7 0.5 19.5t0.5 18.5l6 35q-220 48 -331.5 212.5t-89.5 398.5q2 15 4 19q0 11 2 19q53 240 213.5 399.5t401.5 211.5l11 71q14 86 109 120q22 4 26 4
h3q59 0 104 -93l-1 -3q1 -12 -2 -31l-10 -64q161 -40 247 -116q56 -42 107.5 -113t54.5 -128v-8l1 -3q-7 -44 -31.5 -73.5t-66.5 -29.5q-16 0 -47 9zM664 421l141 893l-48 -22q-85 -30 -173 -105l-5 -4q-105 -95 -157 -219q-24 -78 -28 -106q-4 -25 -6 -98v-7
q14 -133 89 -221l3 -3q55 -67 136 -103l-4 4q9 -9 52 -9zM1173 569l1 1v-1q-1 -1 -1 -2q-1 0 -1 -0.5t-1 -0.5z" />
    <glyph glyph-name="sterling" unicode="&#xa3;" horiz-adv-x="1530" 
d="M732 464l-42 -74q-8 -11 -11 -27q-5 -34 20.5 -57.5t68.5 -23.5h562q61 0 52 -61l-15 -95q-4 -29 -23.5 -45t-48.5 -16h-1039q-58 0 -53 63l14 149q235 113 313 272q7 15 8 26q5 34 -16.5 57.5t-58.5 23.5h-140q-36 0 -30 36l28 182h66q39 0 67.5 25.5t34.5 63.5
q2 18 -1 33q-11 85 -1 147q22 137 112 251.5t219.5 178.5t267.5 64q102 0 190.5 -37.5t152.5 -106.5q96 -118 104 -257l-1 -2q2 3 -12 3h-235q4 0 3 11q-16 51 -47 93q-77 79 -189 79q-119 0 -216 -78q-55 -49 -77 -94q-29 -45 -39 -104v-64q6 -52 34 -98l23 -66
q16 -42 63 -42h270q30 0 43.5 -16.5t8.5 -46.5l-14 -93q-10 -62 -72 -62h-200q-30 0 -54 -17t-35 -46l-21 -55z" />
    <glyph glyph-name="yen" unicode="&#xa5;" horiz-adv-x="1383" 
d="M698 1515l89 -288q1 -4 8.5 -30t12 -39.5t13 -33.5t18 -29.5t20.5 -9.5q8 0 16.5 5t18 16t18 21t19 26t16.5 26.5t15.5 26.5t12.5 21l222 356q23 35 61 35h128q59 0 56 -22q-3 -17 -22 -49l-287 -462q-14 -21 -17 -43q-6 -39 16.5 -65t64.5 -26h141q22 0 32 -12t6 -33
l-15 -99q-11 -62 -72 -62h-289q-36 0 -64 -24.5t-33 -60.5l-14 -84q-6 -37 14.5 -61t56.5 -24h289q61 0 52 -63l-13 -82q-11 -63 -72 -63h-289q-36 0 -64 -24.5t-34 -60.5l-18 -118q-3 -15 -19 -15h-192q-15 0 -12 15l19 119q5 37 -15 60.5t-56 23.5l-286 3q-30 0 -44 16.5
t-9 45.5l13 80q4 30 23.5 46.5t49.5 16.5h285q36 0 64 24t34 61l14 84q5 36 -15.5 60.5t-56.5 24.5h-285q-30 0 -44 16t-9 46l16 101q6 43 53 43h139q42 0 72.5 26t36.5 65q3 19 -2 43l-141 462q-9 31 -6 48q3 23 63 23h126q27 0 41 -19z" />
    <glyph glyph-name="copyright" unicode="&#xa9;" horiz-adv-x="1634" 
d="M817 39q-200 0 -370 99t-269 269t-99 370t99 370t269 269t370 99t370 -99t269 -269t99 -370t-99 -370t-269 -269t-370 -99zM817 154q169 0 312.5 83.5t227 227t83.5 312.5t-83.5 312.5t-227 227t-312.5 83.5t-312.5 -83.5t-227 -227t-83.5 -312.5t83.5 -312.5t227 -227
t312.5 -83.5zM803 344q-17 0 -27 1l-27 3q-124 14 -233 119q-113 110 -124 287q0 9 2 13q-2 5 -2 13q11 175 124 288q87 87 233 116l25 5h29q45 0 70 -1q62 -12 91 -24q69 -30 103 -56q25 -18 50 -43q23 -23 35.5 -36.5t27 -37t20.5 -46.5q2 -8 2 -11q0 -41 -22 -63
q-32 -32 -84 -14l-6 2q-1 2 -6 5l-4 2q-10 10 -11 12q-25 41 -36 55l-3 2l-2 4q-2 3 -6 7l-5 5l-13 14q-40 39 -97 59q-93 28 -166 6l-24 -7q-48 -18 -93 -62l-2 -3q-54 -54 -72 -128q-8 -44 -8 -63q0 -20 8 -62q18 -76 72 -130l2 -2q33 -33 93 -62q8 -4 24 -8q78 -20 166 6
q53 20 97 61l13 12q1 1 4.5 5t4.5 6l5 5l2 2q28 39 37 56q4 8 8 10l12 8q3 3 6 4q52 17 84 -15q22 -22 22 -65q0 -3 -2 -9q-21 -62 -83 -121q-32 -30 -50 -42q-40 -32 -103 -56q-46 -17 -91 -23q-25 -3 -70 -3z" />
    <glyph glyph-name="registered" unicode="&#xae;" horiz-adv-x="1634" 
d="M817 39q-200 0 -370 99t-269 269t-99 370t99 370t269 269t370 99t370 -99t269 -269t99 -370t-99 -370t-269 -269t-370 -99zM817 154q169 0 312.5 83.5t227 227t83.5 312.5t-83.5 312.5t-227 227t-312.5 83.5t-312.5 -83.5t-227 -227t-83.5 -312.5t83.5 -312.5t227 -227
t312.5 -83.5zM591 372q-44 0 -65 52v1l-1 1q-1 1 -1 2l-1 13l-1 3v4q0 3 1 4v198q-1 3 -1 12v277q0 3 0.5 9t0.5 9v133l1 45q0 5 1 8q15 44 48 44h339q26 0 57 -7q127 -26 176 -171q5 -37 8 -68q0 -121 -102 -197q-6 -4 -34 -17q75 -155 125 -267q3 -8 3 -16q0 -40 -54 -68
q-4 -2 -7 -2l-13 -2q-55 0 -84 88l-119 247h-199v-252q0 -53 -37 -73q-1 0 -6 -1.5t-8 -2.5q-2 -2 -5 -2q-10 -4 -19 -4h-3zM669 858h251q69 0 82 72v19q0 62 -55 88q-12 4 -27 4h-251v-183z" />
    <glyph glyph-name="degree" unicode="&#xb0;" horiz-adv-x="1269" 
d="M749 748q-184 0 -299 125t-87 309q30 184 183.5 310t340.5 126q186 0 303.5 -126t88.5 -310q-19 -120 -99.5 -221t-195 -157t-235.5 -56zM783 960q81 0 167 71.5t98 150.5q13 79 -50.5 151.5t-143.5 72.5q-78 0 -164 -73t-99 -151q-12 -78 50.5 -150t141.5 -72z" />
    <glyph glyph-name="periodcentered" unicode="&#xb7;" horiz-adv-x="463" 
d="M337 680q-42 0 -69 28.5t-20 70.5q7 44 40 67q36 32 80 32t77 -32q21 -24 14 -67q-6 -41 -43 -70t-79 -29z" />
    <glyph glyph-name="questiondown" unicode="&#xbf;" horiz-adv-x="1313" 
d="M761 1355q-25 28 -19 65q6 38 39 64q34 30 77 30q46 0 66 -23q14 -20 20 -36q4 -16 1 -35q-3 -18 -11 -31q-28 -38 -65 -57q-21 -6 -41 -6q-42 0 -67 29zM864 1004q-71 -177 -230 -280q-167 -107 -189 -236q-10 -65 21.5 -121t87.5 -92q50 -27 103 -27q25 0 48 6h2l84 25
q77 40 123 106q48 55 61 137l3 19h201l-3 -19q-25 -157 -141 -277.5t-277 -164.5q-70 -15 -122 -15q-87 0 -165 33.5t-133 90.5t-81 138t-12 169q17 107 100 207t194 171q77 49 129 146h203z" />
    <glyph glyph-name="multiply" unicode="&#xd7;" horiz-adv-x="1347" 
d="M386 363q-26 0 -40 18l-43 50q-13 17 -10 44q8 48 61 92l299 258l-222 265q-24 27 -19 68q7 41 40 68l7 6q35 30 72 30t65 -30l222 -263l300 258q54 46 100 46q25 0 40 -18l44 -50q15 -18 10 -43q-8 -46 -62 -94l-299 -258l223 -264q26 -32 21 -69q-6 -33 -41 -67l-9 -6
q-35 -30 -74 -30q-36 0 -62 28l-223 266l-299 -258q-55 -47 -101 -47z" />
    <glyph glyph-name="divide" unicode="&#xf7;" horiz-adv-x="1364" 
d="M851 1135q-59 0 -94.5 30.5t-28.5 75.5q7 43 51 71t104 28q58 0 93 -29t29 -70q-7 -45 -51.5 -75.5t-102.5 -30.5zM310 717q-41 0 -64.5 27.5t-16.5 69.5l1 8q7 42 38 69t73 27h973q41 0 63.5 -27t15.5 -69l-1 -8q-7 -42 -38 -69.5t-71 -27.5h-973zM721 315q-60 0 -95 30
t-28 76q7 43 51 71t104 28q58 0 93 -29t29 -70q-7 -46 -51.5 -76t-102.5 -30z" />
    <glyph glyph-name="endash" unicode="&#x2013;" horiz-adv-x="1274" 
d="M1147 686l-819 4q-51 0 -43 50l13 82q8 49 59 51l818 -2q51 0 43 -51l-13 -83q-8 -49 -58 -51z" />
    <glyph glyph-name="emdash" unicode="&#x2014;" horiz-adv-x="1274" 
d="M1147 686l-819 4q-51 0 -43 50l13 82q8 49 59 51l818 -2q51 0 43 -51l-13 -83q-8 -49 -58 -51z" />
    <glyph glyph-name="quoteleft" unicode="&#x2018;" horiz-adv-x="537" 
d="M394 1103q-51 0 -43 51l71 451q8 51 59 51h97q50 0 42 -51l-71 -451q-8 -51 -58 -51h-97z" />
    <glyph glyph-name="quoteright" unicode="&#x2019;" horiz-adv-x="537" 
d="M394 1103q-51 0 -43 51l71 451q8 51 59 51h97q50 0 42 -51l-71 -451q-8 -51 -58 -51h-97z" />
    <glyph glyph-name="quotesinglbase" unicode="&#x201a;" horiz-adv-x="508" 
d="M328 77q20 0 21 4q-1 -7 -12 -25l-113 -196q-21 -33 -55 -33h-67q-22 0 -23 -3q2 10 11 24l83 144q19 36 43 60.5t41 24.5h71zM79 -176v-1v1z" />
    <glyph glyph-name="quotedblleft" unicode="&#x201c;" horiz-adv-x="1033" 
d="M394 1103q-51 0 -43 51l71 451q8 51 59 51h97q50 0 42 -51l-71 -451q-8 -51 -58 -51h-97zM890 1103q-51 0 -43 51l71 451q8 51 59 51h97q50 0 42 -51l-71 -451q-8 -51 -58 -51h-97z" />
    <glyph glyph-name="quotedblright" unicode="&#x201d;" horiz-adv-x="1033" 
d="M394 1103q-51 0 -43 51l71 451q8 51 59 51h97q50 0 42 -51l-71 -451q-8 -51 -58 -51h-97zM890 1103q-51 0 -43 51l71 451q8 51 59 51h97q50 0 42 -51l-71 -451q-8 -51 -58 -51h-97z" />
    <glyph glyph-name="bullet" unicode="&#x2022;" horiz-adv-x="463" 
d="M337 680q-42 0 -69 28.5t-20 70.5q7 44 40 67q36 32 80 32t77 -32q21 -24 14 -67q-6 -41 -43 -70t-79 -29z" />
    <glyph glyph-name="guilsinglleft" unicode="&#x2039;" horiz-adv-x="1314" 
d="M1061 312q-10 0 -23 5l-732 336q-14 7 -21.5 21t-4.5 30l24 155q5 32 41 50l840 336q18 6 24 6q26 0 37 -35l24 -77q5 -15 2 -26q-3 -25 -40 -41l-728 -291l636 -291q31 -17 27 -43q-3 -19 -26 -52l-33 -52q-23 -31 -47 -31z" />
    <glyph glyph-name="guilsinglright" unicode="&#x203a;" horiz-adv-x="1314" 
d="M344 312q-26 0 -37 31l-15 52q-14 32 -11 52q4 26 42 43l728 291l-637 291q-31 15 -28 41q1 8 11 26l49 77q22 35 47 35q11 0 23 -6l734 -336q30 -18 25 -50l-24 -155q-7 -37 -44 -51l-838 -336q-13 -5 -25 -5z" />
    <glyph glyph-name="fraction" unicode="&#x2044;" horiz-adv-x="1219" 
d="M236 55q-57 0 -87 32t-23 80q7 36 32 70l972 1368q31 41 77 41h46q57 0 86.5 -32t21.5 -80q-5 -35 -30 -69l-976 -1368q-32 -42 -76 -42h-43z" />
    <glyph glyph-name="Euro" unicode="&#x20ac;" horiz-adv-x="1400" 
d="M1440 1404q-4 -36 -40 -36h-129q-82 0 -175 -24q-115 -38 -191 -96q-34 -27 -39 -61q-5 -35 19.5 -61.5t66.5 -26.5h1l189 4q25 0 38 -13.5t11 -35.5l-8 -66q-4 -26 -21 -40.5t-45 -14.5l-401 -3q-35 0 -62.5 -23.5t-33.5 -58.5l-10 -63q-5 -35 15 -59t55 -24l398 3
q25 0 38.5 -12.5t11.5 -34.5l-7 -66q-4 -27 -22 -42t-45 -15l-191 -2q-42 -1 -75.5 -27.5t-38.5 -61.5q-4 -28 14.5 -54.5t50.5 -45.5t61 -32t55 -20q75 -27 166 -27h129q35 0 29 -36l-20 -130q-6 -37 -41 -37h-129q-225 0 -395.5 114.5t-249.5 313.5q-15 41 -61 41h-98
l27 169h15q33 0 58 24t30 59l10 61q5 36 -15 59.5t-55 23.5h-11l31 171h98q48 0 77 44q119 184 338 314q218 114 440 114h129q35 0 29 -35zM1150 1163h1l-9 -60zM348 1098q2 0 2 2v-2h-2zM1244 989h-60l60 1v-1zM1181 593v-1h-60zM260 529q0 2 -2 2h2v-2z" />
    <glyph glyph-name="trademark" unicode="&#x2122;" horiz-adv-x="1079" 
d="M953 1045q-25 0 -43 32q-1 7 -1 16v278q-113 -148 -118 -154q-7 -9 -31 -12q-28 0 -53 42l-90 118h-1v-272q0 -30 -33 -44q-10 -2 -13 -2h-2q-18 0 -31.5 8.5t-13.5 26.5l-1 3v424q0 19 9 32.5t27 13.5h3q2 0 5 1h2q31 0 55 -42l137 -183q40 53 82.5 109t59.5 79t20 26
l2 2q9 9 28 9h1q18 0 31.5 -8.5t13.5 -25.5v-2q0 -2 1 -7.5t1 -8.5v-406q0 -32 -36 -50q-6 -3 -11 -3zM281 1047q-20 0 -32 13q-9 9 -12 21v2q-1 2 -1 7v380h-114q-34 0 -41 34q-2 4 -2 8q0 9 4 14.5t13.5 12.5t14.5 12q1 1 3 1h335h1l2 -1q16 0 24 -11.5t8 -27.5
q0 -6 -1 -8q-10 -34 -41 -34h-115v-380l-1 -7l-1 -2q-1 -11 -11 -21q-12 -13 -31 -13h-2z" />
    <glyph glyph-name="minus" unicode="&#x2212;" horiz-adv-x="1364" 
d="M310 717q-41 0 -64.5 27.5t-16.5 69.5l1 8q7 42 38 69t73 27h973q41 0 63.5 -27t15.5 -69l-1 -8q-7 -42 -38 -69.5t-71 -27.5h-973z" />
    <glyph glyph-name="NULL" horiz-adv-x="2069" 
 />
    <glyph glyph-name="_FSHallmark" horiz-adv-x="1985" 
d="M104 1331v211h1781v-211h-1781zM1503 333q-77 0 -147 19q-66 18 -124 59q-55 40 -91 101q-32 57 -32 141l205 -4q0 -10 11 -33q1 -30 30 -54q20 -24 54 -38q37 -20 100 -20q71 0 112 25q43 21 43 56q0 31 -42.5 57t-125.5 42q-163 42 -262 95q-106 55 -106 178
q0 102 71 160q66 55 156 84q67 18 148 18q111 0 200 -39q98 -41 143 -141q23 -62 23 -103h-214q0 16 -16 46q-13 18 -39 39q-4 2 -22.5 10t-29.5 10q-42 7 -50 7q-51 0 -103 -26q-43 -31 -43 -64q0 -67 39 -87q63 -29 95 -36l77 -19l66 -14q37 -12 62 -15q24 -4 52 -13
q8 -5 24 -12.5t22 -11.5q43 -26 67 -58q23 -37 26 -94q4 -52 -22 -107q-55 -94 -157 -126q-100 -32 -200 -32zM104 333v884h750v-202h-515v-199h428v-196h-428v-287h-235zM941 337q-41 0 -73 32q-35 32 -35 69q0 44 33 77q28 28 75 28t85 -31q35 -27 35 -74q0 -41 -35 -73
q-40 -28 -85 -28zM100 10v211h1782v-211h-1782z" />
    <glyph glyph-name="_Fontastica" horiz-adv-x="1542" 
d="M101 234q-1 4 -1 12v1293h969v-199h-747v-531h748v-202h-748v-373h-221zM463 238v198h750v533h-750v200h750v370h220v-1301h-970zM1232 27q-13 0 -41 12q-16 23 -17 42q-2 25 16 43q20 20 42 20q26 0 49 -20l-13 -16q-1 2 -5.5 5.5t-5.5 4.5q-2 3 -18 3h-7
q-17 -7 -19 -13q-13 -6 -13 -18q0 -20 9 -29q11 -12 23 -12q20 0 36 12l13 -12q-22 -22 -49 -22zM101 31v109h82v-19h-52v-30h51v-17h-51v-43h-30zM283 22q-15 0 -24 9q-34 12 -34 47q0 30 17 46q11 16 43 16q38 0 57 -28q15 -23 4 -51t-50 -34zM485 27q-3 0 -17 12l-12 17
q0 3 -5 7.5t-5 6.5l-22 28v-67h-26v109h21q9 -1 11 -15q6 -4 26 -27l21 -33v75h24v-109h-7q-5 -4 -9 -4zM584 31v90h-37v19h95v-19h-36v-90h-22zM876 27q-34 0 -50 19q1 2 1 3l2 4q0 3 4 8l37 -12h14q2 3 4 5t3 2h1q0 18 -25 22q-5 0 -6 3q-3 1 -9 1q-19 6 -19 26
q-6 18 15 29q9 3 26 3q29 0 45 -7l-9 -21q-5 4 -9 4h-5q-2 2 -8 2q-3 0 -4 3h-14q-9 0 -9 -5q-4 -5 9 -18q4 -1 10 -3t10 -3.5t6 -1.5q23 0 23 -28q2 -25 -21 -31q-2 -4 -22 -4zM992 31v90h-36v19h97v-19h-35v-90h-26zM1099 31v109h28v-109h-28zM1317 31q27 49 44 109h31
l25 -50q0 -5 12 -34q1 -2 3 -8t4.5 -10.5t5.5 -6.5h-25l-12 22h-53l-10 -22h-25zM668 31l46 106h26q0 -3 2.5 -7.5t6 -9.5t4.5 -8q1 -2 6 -11t7 -14q7 -21 9 -31l10 -25h-27q-1 2 -1 8l-1 2q-1 2 -2 5.5t-1 6.5h-54q-1 -4 -1 -14v-3l-8 -5h-22zM285 48q6 0 10 1q22 6 22 33
v5q0 16 -8 25q-9 9 -26 9q-3 -3 -9 -3q-2 0 -20 -19q-12 -12 -3 -25q9 -26 34 -26zM706 74h38q-2 1 -3 4l-1 4q-3 3 -4.5 6.5t-2.5 3.5q-2 3 -2 12q-1 1 -4 12zM1360 74h36q-4 1 -4 8q-2 8 -5 10q-1 2 -2 6t-2 6q-1 1 -2.5 5.5t-3.5 6.5z" />
    </font>
</defs>
</svg>
