<?xml version="1.0" standalone="no"?>
<!DOCTYPE svg PUBLIC "-//W3C//DTD SVG 1.1//EN" "http://www.w3.org/Graphics/SVG/1.1/DTD/svg11.dtd" >
<svg xmlns="http://www.w3.org/2000/svg" xmlns:xlink="http://www.w3.org/1999/xlink" version="1.1">
<metadata>
Created by FontForge 20170731 at Thu Aug  8 19:28:49 2019
 By Aleksey,,,
Copyright (c) 2019 by Fontastica. All rights reserved.
</metadata>
<defs>
<font id="Jaquel-Italic" horiz-adv-x="1260" >
  <font-face 
    font-family="Jaquel Italic"
    font-weight="400"
    font-style="italic"
    font-stretch="normal"
    units-per-em="2048"
    panose-1="0 0 5 0 0 0 0 0 0 0"
    ascent="1638"
    descent="-410"
    x-height="1553"
    cap-height="1557"
    bbox="70.2466 -575.658 2343.84 1750"
    underline-thickness="50"
    underline-position="-200"
    unicode-range="U+000D-2212"
  />
<missing-glyph horiz-adv-x="1630" 
 />
    <glyph glyph-name=".notdef" horiz-adv-x="1630" 
 />
    <glyph glyph-name=".null" horiz-adv-x="0" 
 />
    <glyph glyph-name="nonmarkingreturn" horiz-adv-x="682" 
 />
    <glyph glyph-name="CR" unicode="&#xd;" horiz-adv-x="1992" 
 />
    <glyph glyph-name="space" unicode=" " horiz-adv-x="1147" 
 />
    <glyph glyph-name="exclam" unicode="!" horiz-adv-x="480" 
d="M297 506q-50 0 -78 33t-20 83l131 829q8 51 47 84.5t89 33.5h45q50 0 78 -33.5t20 -84.5l-131 -829q-8 -50 -47 -83t-89 -33h-45zM250 69q-58 0 -94 30.5t-29 73.5t52.5 73.5t103.5 30.5q59 0 94.5 -30t28.5 -74q-6 -42 -52 -73t-104 -31z" />
    <glyph glyph-name="quotedbl" unicode="&#x22;" horiz-adv-x="859" 
d="M394 1275q-30 0 -47 28.5t-15 73.5l7 117q2 56 35.5 94.5t79.5 38.5q45 0 64.5 -39t3.5 -97l-32 -117q-13 -45 -39.5 -72t-56.5 -27zM867 1275q-30 0 -48 28.5t-16 73.5l6 116q4 57 37 95.5t78 38.5q46 0 66.5 -39.5t3.5 -96.5l-31 -117q-13 -45 -39.5 -72t-56.5 -27z
" />
    <glyph glyph-name="numbersign" unicode="#" horiz-adv-x="1619" 
d="M348 589q-85 8 -97 -65l-19 -123q-6 -40 30 -37h171l-64 -220q-27 -84 57 -84h93q31 0 53.5 17.5t31.5 48.5l68 238h274l-64 -220q-27 -84 57 -84h97q30 0 52.5 18t30.5 47v1l74 240h177q67 0 76 66l17 119q7 42 -35 42h-170l94 331l179 2q63 0 74 64l16 124q7 39 -32 39
h-168l72 245q26 86 -61 86h-92q-30 0 -52.5 -18t-30.5 -47v-1l-83 -267h-269l74 249q24 84 -60 84h-92q-30 0 -52.5 -18t-30.5 -47v-1l-83 -270h-175q-67 0 -76 -63l-18 -124q-6 -39 35 -39h168l-95 -332zM742 590l95 332l271 2l-94 -331z" />
    <glyph glyph-name="dollar" unicode="$" horiz-adv-x="1321" 
d="M643 -194q-86 0 -110 121q-2 25 2 57l3 16h-278q-34 0 -59 11q-81 44 -73 123q2 9 4 12q0 1 3 8t4 12q47 111 165 111h106v2h172l58 363q-131 3 -231 70q-173 146 -137 376q19 79 40 130q158 323 473 341l2 13q20 125 131 171q23 7 33 7h2q96 0 114 -133q0 -40 -3 -58
h161h2v-2h34q114 0 132 -107q0 -24 -2 -36q-15 -91 -127 -130q-6 -3 -14 -3l-27 -3h-204l-57 -361q103 -9 197 -69q173 -144 137 -376q-13 -57 -39 -132q-149 -303 -440 -337q-24 -153 -137 -189q-11 -8 -35 -8h-2zM684 919l57 361q-34 -4 -44 -7q-124 -53 -145 -183l-2 -12
q-24 -142 134 -159zM862 283l10 4q123 49 144 182l2 11q21 131 -100 156z" />
    <glyph glyph-name="percent" unicode="%" horiz-adv-x="1470" 
d="M433 1273q0 17 -1 21q0 33 -5 68l2 7q0 1 0.5 3.5t0.5 4.5q9 43 34 86q25 44 59 73q3 3 30 23q7 2 16 10l10 5h1q19 12 45 20q25 9 49 12h6h7q7 1 18 1q12 0 18 -1h9q24 -3 52 -12q7 -2 25 -12q19 -9 34 -23q20 -20 22 -23q24 -25 38 -73q9 -45 6 -89l-1 -7q-1 -1 -1 -4
q-11 -56 -52 -119q-3 -4 -9 -10l-39 -39q-17 -17 -31 -24q-5 -3 -13.5 -7t-13.5 -7q-1 -3 -5 -3q-27 -13 -37 -14l-2 -2l-10 -2.5t-14.5 -3t-13.5 -2.5h-8q-4 0 -14.5 -1t-15.5 -1q-6 0 -17 1t-14 1q-37 7 -47 11q-18 6 -32 16q-11 9 -21 13q-1 1 -5.5 4.5t-5.5 5.5l-13 15
q-26 24 -39 69q-1 2 -1.5 4.5t-0.5 4.5zM1339 1586q89 0 118 -66.5t-26 -143.5l-910 -1272q-36 -53 -95 -53h-42q-88 0 -117 66t26 145l908 1271q39 53 97 53h41zM579 1574l-1 -1q1 0 1 1zM609 1367q-1 -1 -1 -4q0 -26 10 -37l1 -2q5 -6 9 -7q0 -2 6 -4h2q6 -5 23 -6
q9 0 24 4l1 2q1 0 2.5 1l3 2t2.5 1l11 7v2q18 17 24 40l1 1v6q1 25 -10 37l-2 1q-6 8 -8 8l-10 5q-11 3 -23 3q-13 0 -17 -3q-7 -1 -14 -5q0 1 -3.5 -2t-4.5 -4q-2 -1 -4 -3t-3 -2h1l-1 -1q-15 -14 -20 -37v-3zM629 1408v-1v1zM427 1360q-1 -9 -1 -28l1 35v-5v-2zM426 1332
q0 -2 0.5 -7.5t0.5 -8.5q0 2 -0.5 8t-0.5 8zM433 1273v-6l-1 10v-3zM1310 468q25 -28 37 -73q11 -46 5 -89l-1 -7v-4q-9 -53 -52 -119q-1 -2 -9 -10l-33 -34l-6 -5q-19 -19 -31 -24q-6 -3 -14.5 -7.5t-11.5 -6.5q-3 -3 -6 -3q-25 -12 -37 -14l-2 -2q-5 -2 -38 -9h-7
q-4 0 -14.5 -0.5t-15.5 -0.5q-6 0 -17 0.5t-15 0.5q-32 6 -46 12q-16 5 -32 16q-11 9 -21 13q-6 2 -11 10l-14 15q-23 20 -39 69q0 2 -1 6t-1 7v17q0 10 -1 23.5t-2.5 27t-1.5 17.5l1 6q0 6 1 9q9 40 34 86q28 48 60 73q10 10 29 22q14 9 16 11q3 1 9 4q22 14 48 21
q24 9 49 12h6h7q5 1 17 1q11 0 19 -1h8q26 -3 52 -12q16 -6 24 -13q22 -9 36 -23q16 -13 22 -22zM1171 299q1 3 1 6q0 25 -10 37l-1 1l-9 7q-5 5 -11 6q-9 3 -22 3q-12 0 -18 -3q-4 -1 -14 -6q1 1 -3 -2q-3 -3 -4 -3l-5 -5v1q-16 -17 -22 -39l-1 -3v-4q0 -25 10 -38l1 -1
q4 -4 7 -6l1 -1q2 -2 8 -4h1q8 -5 23 -6q10 0 23 4l3 2q5 1 7 4q1 0 4 2q5 3 8 5v1q18 18 23 40v2zM1075 340l-1 -1q0 1 1 1zM870 267l1 34q0 -2 1 -7l-1 -2q0 -4 -0.5 -12.5t-0.5 -12.5zM871 247q-1 7 -1 20q0 -3 0.5 -9.5t0.5 -10.5z" />
    <glyph glyph-name="ampersand" unicode="&#x26;" horiz-adv-x="1492" 
d="M551 49q-1 0 -3.5 0.5t-4.5 0.5l-12 1q-161 22 -235 83q-88 73 -117 195q-17 99 2 167q19 82 58 137q55 75 108 125q102 94 185 146q-26 33 -30 37q-34 39 -44 61l-3 5q1 1 0 1q0 1 -3 4l-1 2l-3 7q-26 62 -27 67q-27 82 0 169q23 93 82 169q61 82 159 133q87 45 197 55
q117 14 217 -41q96 -56 134 -154q41 -94 23 -203q-21 -102 -101 -198q-25 -29 -59 -56l-121 -97l232 -302l105 79q40 31 82.5 29.5t70.5 -35.5l7 -10q36 -41 29 -89.5t-52 -80.5l-105 -74l79 -93q33 -39 19.5 -89.5t-65.5 -83.5l-43 -27q-38 -25 -70 -29.5t-46 12.5l-30 37
q-11 -3 -19 8l-3 3l-76 102q-129 -89 -261 -133q-124 -40 -233 -40h-22zM785 1074q70 35 117 84l32 36q30 40 5 96l-19 26q-28 28 -74 28h-7q-47 -4 -72 -26l-45 -34l-21 -53l-1 -44l29 -46zM594 322q74 -5 131 15q115 37 180 88l-212 276q-117 -72 -183 -143
q-59 -65 -45 -139q17 -42 37 -61q23 -26 92 -36z" />
    <glyph glyph-name="quotesingle" unicode="'" horiz-adv-x="579" 
d="M495 1589q-36 0 -59 -19.5t-28 -55.5l-67 -420q-11 -75 63 -75h90q36 0 59 19.5t28 55.5l67 420q11 75 -63 75h-90z" />
    <glyph glyph-name="parenleft" unicode="(" horiz-adv-x="1078" 
d="M854 66q-207 35 -359.5 142t-223.5 266.5t-42 342.5q22 137 98.5 264t190.5 225.5t263 168t312 95.5q57 10 90.5 -23t25.5 -86l-3 -24q-7 -42 -38.5 -72t-76.5 -38q-212 -42 -367 -184t-185 -326q-29 -183 81.5 -325.5t309.5 -184.5q42 -8 64 -37.5t15 -72.5l-3 -23
q-8 -52 -52.5 -84.5t-99.5 -23.5z" />
    <glyph glyph-name="parenright" unicode=")" horiz-adv-x="1078" 
d="M243 66q-57 -9 -89.5 27t-24.5 93l2 11q7 43 38 72.5t76 37.5q210 42 365 184.5t184 325.5q30 184 -79.5 326t-307.5 184q-42 8 -64 38t-15 72l2 14q9 58 53 93.5t99 25.5q206 -35 359 -143t224 -268t42 -342q-29 -183 -150.5 -342.5t-308 -266.5t-405.5 -142z" />
    <glyph glyph-name="asterisk" unicode="*" horiz-adv-x="1094" 
d="M1080 1170q-3 -26 -29 -43t-63 -17h-77l50 -61q19 -22 14.5 -49.5t-30.5 -49.5l-4 -4q-25 -21 -53 -22t-47 21l-56 67l-15 -94q-4 -32 -28 -54t-53 -17l-6 1q-30 3 -47 21.5t-13 48.5l14 87l-64 -55q-30 -26 -58 -31t-44 14l-24 28q-16 19 -7 46.5t38 53.5l58 50h-69
q-37 0 -57 16t-16 42l7 41q4 26 29 42.5t61 16.5h77l-50 61q-17 22 -12.5 48t27.5 51l4 4q23 24 51.5 23t48.5 -23l57 -67l15 95q5 31 28.5 51t54.5 20h4q31 0 47.5 -20t11.5 -51l-12 -85l63 54q30 25 58 29.5t44 -13.5l25 -27q16 -18 7 -46.5t-39 -54.5l-57 -49h69
q36 0 56 -16.5t17 -42.5z" />
    <glyph glyph-name="plus" unicode="+" horiz-adv-x="1338" 
d="M670 219q-43 0 -65 38t-13 98l49 311h-319q-50 0 -78 33.5t-20 84.5l1 7q8 51 47 84t89 33l319 1l50 314q9 59 43 97t77 37l67 2q44 0 65.5 -39t11.5 -99l-49 -312h319q52 0 79 -32.5t19 -84.5l-1 -8q-8 -51 -46.5 -84.5t-88.5 -33.5h-320l-49 -311q-9 -60 -42.5 -98
t-77.5 -38h-67z" />
    <glyph glyph-name="comma" unicode="," horiz-adv-x="508" 
d="M225 -136q-27 7 -35.5 40.5t4.5 76.5l15 50q-50 20 -72.5 61.5t-5.5 83.5q22 49 81 73.5t118 7.5q57 -16 84 -63.5t6 -97.5q-5 -21 -19 -47l-61 -110q-22 -42 -54 -62.5t-61 -12.5z" />
    <glyph glyph-name="hyphen" unicode="-" horiz-adv-x="1131" 
d="M343 798q-50 0 -78 33.5t-20 83.5l1 9q8 50 47 83t89 33h698q50 0 77.5 -33t19.5 -83l-1 -9q-8 -50 -46.5 -83.5t-88.5 -33.5h-698z" />
    <glyph glyph-name="period" unicode="." horiz-adv-x="514" 
d="M267 51q-67 0 -107 36.5t-32 89.5q8 52 58.5 86t119.5 34q65 0 104 -34.5t31 -85.5q-8 -53 -58.5 -89.5t-115.5 -36.5z" />
    <glyph glyph-name="slash" unicode="/" horiz-adv-x="1203" 
d="M254 51q-89 0 -118 67t27 144l905 1271q39 53 97 53h43q88 0 117 -66.5t-26 -143.5l-908 -1272q-40 -53 -97 -53h-40z" />
    <glyph glyph-name="zero" unicode="0" horiz-adv-x="1383" 
d="M697 51q-121 0 -224 38t-171.5 103t-100.5 155t-16 189l90 568q21 130 117.5 241.5t242.5 176t305 64.5q161 0 288 -65t188.5 -176.5t40.5 -243.5l-89 -565q-21 -133 -117.5 -244.5t-243.5 -176t-310 -64.5zM735 293q117 0 211 71.5t110 171.5l89 562q16 101 -55.5 172
t-188.5 71t-210 -70t-109 -170l-89 -565q-16 -101 54.5 -172t187.5 -71z" />
    <glyph glyph-name="one" unicode="1" horiz-adv-x="480" 
d="M236 0q-82 0 -111 92l-3 11q-2 23 1 40l201 1271q16 100 126 138q22 5 33 5h3q95 0 117 -100q3 -6 2 -11q0 -24 -4 -47l-197 -1240q-20 -123 -131 -153q-13 -6 -34 -6h-3z" />
    <glyph glyph-name="two" unicode="2" horiz-adv-x="1442" 
d="M279 43q-54 0 -92 27.5t-51 67t2.5 85.5t61.5 79l796 589v1l55 49l75 103l10 60q15 95 -59.5 167.5t-187.5 72.5q-80 0 -152 -36t-116 -97q-45 -61 -102 -61h-85q-71 0 -101.5 50t11.5 110q95 125 256 200.5t345 75.5q117 0 218.5 -40t169.5 -106.5t100.5 -158
t17.5 -190.5q-22 -138 -190 -294q-135 -126 -481 -363q-67 -46 -217 -147l708 8q51 1 78.5 -32t19.5 -84l-1 -10q-8 -52 -46 -85t-90 -33z" />
    <glyph glyph-name="three" unicode="3" horiz-adv-x="1304" 
d="M162 0q-25 0 -39 15.5t-10 38.5l27 171q3 23 21.5 38.5t42.5 15.5h606q134 0 179 133q4 7 10 34q21 135 -85 186q-23 10 -73 10h-377q-25 0 -38.5 16t-9.5 40l26 164q4 25 22 40.5t43 15.5h343q130 0 178 66q34 47 41 87l4 27q19 119 -80 175q-6 0 -7 1q-32 7 -51 7h-575
q-23 0 -36.5 15.5t-9.5 40.5l25 169q3 23 21.5 38.5t42.5 15.5h549q339 0 399 -333q8 -86 -1 -142q-25 -151 -143 -286l-11 -12q109 -151 81 -327l-4 -27q-34 -212 -239 -353q-128 -80 -306 -80h-566z" />
    <glyph glyph-name="four" unicode="4" horiz-adv-x="1667" 
d="M1123 51q-50 0 -77 33t-19 85l36 229h-784q-50 0 -77.5 33.5t-19.5 83.5l20 129q5 35 32 61l849 847q34 34 77 34h284q50 0 77.5 -33t19.5 -84l-124 -783h141q51 0 78.5 -33t19.5 -84l-1 -10q-9 -55 -52.5 -108t-90.5 -53h-141l-36 -229q-8 -52 -46 -85t-88 -33h-78z
M554 686h555l97 615z" />
    <glyph glyph-name="five" unicode="5" horiz-adv-x="1452" 
d="M920 1018q120 0 223.5 -38t173 -102.5t102 -154t17.5 -187.5q-32 -200 -227.5 -342.5t-441.5 -142.5q-200 0 -340.5 98.5t-170.5 252.5q-7 37 20.5 65t67.5 28h154q54 0 80 -60q27 -59 88 -94t141 -35q117 0 209 70.5t109 171.5q16 100 -54.5 170t-186.5 70h-474
q-51 0 -78.5 33t-19.5 84l90 564q8 50 45.5 83.5t88.5 33.5h903q51 0 79.5 -33.5t20.5 -83.5l-2 -10q-8 -51 -47 -84.5t-90 -33.5h-635q-31 0 -55.5 -21t-28.5 -52l-28 -177q-5 -31 12.5 -52t48.5 -21h206z" />
    <glyph glyph-name="six" unicode="6" horiz-adv-x="1391" 
d="M704 51q-161 0 -288 66t-189.5 178.5t-41.5 243.5q21 136 131 262l634 742q38 43 89 43h19q64 0 100.5 -35.5t33.5 -91t-48 -108.5l-277 -324q158 -2 283 -69.5t186 -179t40 -239.5q-21 -132 -118 -244.5t-244.5 -178t-309.5 -65.5zM743 295q117 0 210.5 71t109.5 173
q16 100 -55.5 172.5t-187.5 72.5t-210 -72t-110 -173q-16 -102 55 -173t188 -71z" />
    <glyph glyph-name="seven" unicode="7" horiz-adv-x="1617" 
d="M593 51q-64 0 -101 35.5t-33.5 90.5t48.5 108l899 1055h-977q-50 0 -78 33t-20 83l2 13q7 50 46 83.5t89 33.5h1183q50 0 78.5 -33.5t20.5 -83.5l-22 -138q-5 -30 -24 -53l-1008 -1184q-37 -43 -89 -43h-14z" />
    <glyph glyph-name="eight" unicode="8" horiz-adv-x="1390" 
d="M575 0q-179 0 -279 80q-161 142 -127 353l4 27q28 176 184 327v1q-84 146 -59 297q9 58 42 142q169 333 505 333h194q335 0 398 -333q6 -88 -2 -142q-25 -156 -153 -297v-1q109 -155 81 -327l-4 -27q-34 -211 -239 -353q-127 -80 -305 -80h-240zM743 918h194
q126 0 177 66q32 46 40 87l4 27q19 123 -84 175q-29 8 -53 8h-246q-28 0 -55 -8q-122 -53 -141 -175l-4 -27q-8 -41 13 -87q26 -66 155 -66zM582 279h313q132 0 180 133q5 10 10 34q21 134 -84 186q-26 10 -74 10h-262q-53 0 -76 -10q-121 -52 -142 -186q-2 -9 -2 -34
q3 -133 137 -133z" />
    <glyph glyph-name="nine" unicode="9" horiz-adv-x="1383" 
d="M584 51q-63 0 -100 35.5t-33.5 90t47.5 106.5l284 336q-158 1 -282.5 67t-185 177.5t-39.5 240.5q21 131 118 242t243.5 175.5t306.5 64.5t286 -64.5t188 -175.5t41 -242q-21 -133 -121 -246l-650 -764q-35 -43 -88 -43h-15zM827 854q120 0 212 69.5t108 171.5t-55 173.5
t-188 71.5q-118 0 -211.5 -71t-109.5 -174q-16 -101 54.5 -171t189.5 -70z" />
    <glyph glyph-name="colon" unicode=":" horiz-adv-x="517" 
d="M349 565q-65 0 -106.5 37t-33.5 87q8 51 61 87t119 36q65 0 105.5 -36.5t32.5 -86.5q-8 -51 -60.5 -87.5t-117.5 -36.5zM268 51q-66 0 -107 36t-33 87q7 51 60 87t119 36q65 0 105.5 -35.5t33.5 -87.5q-8 -50 -60.5 -86.5t-117.5 -36.5z" />
    <glyph glyph-name="semicolon" unicode=";" horiz-adv-x="533" 
d="M365 565q-65 0 -106.5 37t-33.5 87q8 52 60.5 87.5t119.5 35.5q65 0 105 -36.5t32 -86.5q-8 -51 -60 -87.5t-117 -36.5zM231 -103q-28 7 -36.5 40.5t4.5 76.5l15 50q-50 20 -73.5 62t-4.5 83q22 49 80.5 73.5t116.5 7.5q59 -16 86 -63.5t6 -97.5q-6 -26 -19 -47l-61 -111
q-23 -41 -54.5 -61t-59.5 -13z" />
    <glyph glyph-name="less" unicode="&#x3c;" horiz-adv-x="1404" 
d="M1352 1186q11 -38 -5.5 -68t-56.5 -45h3q-1 0 -7 -2l-483 -195q-51 -20 -58 -65t37 -65l432 -199q50 -29 32 -83q-9 -30 4 -44q-2 1 -5 4q-7 1 -21 -12.5t-27 -35.5l-12 -19q-23 -34 -54 -44.5t-64 4.5l-735 335q-22 13 -33 35t-7 47l25 155q4 25 22 47t44 35l841 335
q38 16 65.5 5t38.5 -47zM1296 1074h2l-5 -1zM1256 414l-6 6l11 -8l-1 -1z" />
    <glyph glyph-name="equal" unicode="=" horiz-adv-x="1131" 
d="M366 941q-50 0 -78 33.5t-20 83.5l1 7q8 52 46.5 85t88.5 33h698q50 0 78 -33t20 -85l-1 -7q-8 -50 -46.5 -83.5t-88.5 -33.5h-698zM282 413q-50 0 -78 33t-20 83l1 9q8 50 47 83t89 33h698q50 0 77.5 -33t19.5 -83l-1 -9q-8 -50 -46.5 -83t-88.5 -33h-698z" />
    <glyph glyph-name="greater" unicode="&#x3e;" horiz-adv-x="1404" 
d="M1322 971q48 -27 40 -82l-25 -155q-4 -25 -21.5 -47t-44.5 -35l-840 -335q-39 -16 -67.5 -5t-39.5 47l-17 58q-2 8 -11 21q1 4 1.5 15.5t0.5 17.5q5 51 62 75l8 3l484 197q49 20 56 65t-36 65l-428 198h-1q-33 17 -39 46t17 66l57 88q19 30 48.5 38t61.5 -6zM355 546l9 2
l-2 -1l-2 -1h-2h-3zM286 450q1 1 3.5 -2t6.5 -10q0 -7 -4 -8q-2 -1 -4 1.5t-2.5 7.5t0.5 11z" />
    <glyph glyph-name="question" unicode="?" horiz-adv-x="1382" 
d="M706 472q-52 0 -80 33t-20 83l22 138q8 51 39 84.5t69 33.5h90q117 0 210 71.5t109 174.5q16 102 -54 171t-188 69q-97 0 -180.5 -53.5t-122.5 -133.5q-24 -56 -75 -56h-176q-34 0 -52.5 22.5t-8.5 54.5q58 179 244.5 300.5t410.5 121.5q120 0 223 -38t171.5 -103
t101 -154t17.5 -187q-27 -170 -177.5 -303.5t-356.5 -169.5l-7 -43q-8 -50 -45.5 -83t-89.5 -33h-74zM676 51q-69 0 -108.5 34.5t-31.5 87.5q8 51 57.5 84t120.5 33q67 0 103.5 -32t28.5 -85t-56 -87.5t-114 -34.5z" />
    <glyph glyph-name="at" unicode="@" horiz-adv-x="2353" 
d="M937 -575q-153 22 -285 87t-229.5 163.5t-163 227.5t-85 277.5t3.5 314.5q35 220 151.5 421t282 346t376.5 231t427 86q223 0 411 -85.5t310 -230t175.5 -345.5t18.5 -423q-30 -191 -122 -367t-237 -321q-24 -25 -52.5 -29t-51.5 15l-409 321q-137 -84 -279 -84
q-130 0 -229 63t-144.5 172t-24.5 240q31 196 190 333t357 137q95 0 171 -31.5t120 -89.5q7 42 38.5 69.5t73.5 27.5h23q40 0 61.5 -33.5t13.5 -83.5l-102 -644l171 -117q144 182 182 422q27 172 -14 328t-135 268.5t-238.5 179t-315.5 66.5q-166 0 -327.5 -66.5
t-288.5 -179t-216.5 -268.5t-116.5 -328q-32 -208 30 -386.5t203 -294t334 -146.5q37 -6 56.5 -37t12.5 -76l-3 -17q-8 -52 -44 -85t-80 -28zM1212 235q106 0 192.5 79t104.5 191t-43.5 191t-167.5 79q-104 0 -190 -79t-104 -191q-18 -113 42.5 -191.5t165.5 -78.5z" />
    <glyph glyph-name="A" unicode="A" horiz-adv-x="1706" 
d="M239 0q-89 0 -114 96q0 2 -1 4.5t-1 3.5v26q-4 7 2 17q12 41 124 211q150 234 427 669q31 46 106.5 166t123.5 194q83 170 192 170h4q107 0 138 -170q205 -645 202 -658q1 0 1 -5q58 -169 128 -366q57 -172 56 -211q2 -9 -2 -17l-10 -26q0 -2 -4 -8q-58 -96 -144 -96
q-57 0 -94 46l-5 8q-11 24 -116 339q-33 -7 -64 -7h-569q-10 0 -42 4q-171 -266 -221 -336q-2 -3 -9 -8q-52 -46 -108 -46zM754 664h408q-8 18 -9 40q-17 49 -26 83q-11 34 -44.5 139t-54.5 168h-4q-27 -43 -95 -149.5t-100 -157.5q-9 -14 -26.5 -41.5t-25.5 -41.5
q-9 -18 -23 -40z" />
    <glyph glyph-name="B" unicode="B" horiz-adv-x="1320" 
d="M236 0q-85 0 -112 97q-4 26 -1 46l202 1280q13 79 112 127q7 3 12 4q24 6 53 6h466q339 0 399 -333q8 -86 -1 -142q-25 -155 -154 -297v-1q109 -153 81 -327l-4 -27q-34 -211 -239 -353q-128 -80 -306 -80h-508zM524 918h342q130 0 178 66q34 47 41 87l4 27
q19 122 -85 175q-29 8 -53 8h-369zM423 279h403q134 0 179 133q5 10 10 34q21 135 -86 186q-23 10 -72 10h-376z" />
    <glyph glyph-name="C" unicode="C" horiz-adv-x="1687" 
d="M855 3q-33 0 -49 1l-49 7q-247 38 -394 216q-174 208 -143 528q2 15 5 23q0 9 2 23q70 320 311 529q203 178 462 214l47 8q2 0 4.5 0.5t3.5 0.5h46q62 1 126 -3q89 -15 162 -43q102 -42 171 -103q44 -34 81 -78q78 -91 116 -222q2 -12 1 -19q-8 -73 -59 -117
q-72 -61 -158 -24q-2 1 -5.5 2.5t-4.5 1.5q-8 8 -18 13q-13 13 -16 21q-27 66 -49 101l-5 4q-3 3 -4 7q-2 5 -9 14l-7 9l-19 24q-64 72 -161 109q-160 50 -302 11l-47 -13q-92 -33 -189 -114l-4 -4q-116 -102 -170 -236q-25 -70 -32 -116q-5 -31 -5 -114q14 -139 95 -238
l3 -3q67 -79 153 -114q18 -8 43 -14q132 -38 305 11q112 39 196 110l27 24q1 1 9 8t12 12q6 7 10 10l4 3q30 33 83 102q10 14 19 18l23 15q4 3 12 7q98 34 151 -27q37 -45 21 -118q-1 -8 -6 -18q-82 -133 -187 -222q-68 -56 -105 -78q-84 -58 -204 -102q-90 -30 -175 -43
q-74 -7 -128 -4z" />
    <glyph glyph-name="D" unicode="D" horiz-adv-x="1557" 
d="M236 0q-47 0 -77 30q-22 19 -32 53l-3 14q-2 6 -2 27q-1 7 1 19l201 1271q15 96 121 138l11 2q15 3 27 3h435q570 0 665 -525q15 -140 -2 -248q-52 -329 -320 -574q-239 -210 -593 -210h-432zM423 277h333q314 0 489 321q41 88 56 177l2 17q50 305 -186 445
q-88 41 -200 41h-336z" />
    <glyph glyph-name="E" unicode="E" 
d="M236 0q-53 0 -83 37q-24 24 -33 67q0 3 0.5 6.5t0.5 5.5q0 4 0.5 14t1.5 13l202 1278q8 47 42 81q27 30 77 48q3 2 12 4q15 3 27 3h771q106 0 128 -90l2 -13v-8q3 -12 1 -25l-1 -7q-10 -66 -79 -107q-18 -13 -28 -17h-3q-12 -5 -16 -6l-8 -3l-34 -3h-635l-57 -360h409
q78 0 108 -81q4 -22 5 -28q0 -1 0.5 -3.5t1.5 -3.5q-3 -22 -3 -23v-4q-12 -76 -93 -116l-20 -10q-4 -2 -12 -5h-6q-12 -3 -24 -3h-409l-58 -364h628q58 0 89.5 -25.5t40.5 -79.5q0 -8 -1 -12q0 -4 0.5 -8.5t1 -7t0.5 -4.5q-14 -84 -112 -129q-30 -11 -63 -11h-771z" />
    <glyph glyph-name="F" unicode="F" 
d="M236 0q-85 0 -112 97l-2 6l1 3q-2 27 0 37l202 1277q5 30 24 61q27 41 95 69q7 3 14 4q12 3 25 3h771q115 0 131 -107q2 -19 -1 -36q-15 -91 -127 -130q-6 -3 -14 -3l-27 -3h-635l-57 -360h356q96 0 115 -111q0 -6 -1 -9q0 -9 -2 -23q-14 -89 -115 -126q-22 -8 -40 -8
h-356l-77 -482q-18 -115 -115 -149q-3 -1 -6 -1q-2 -1 -6.5 -2.5t-6.5 -2.5q-9 -4 -31 -4h-3z" />
    <glyph glyph-name="G" unicode="G" horiz-adv-x="1689" 
d="M855 3q-33 0 -49 1l-49 7q-247 38 -394 216q-174 208 -143 528q2 15 5 23q0 9 2 23q70 320 311 529q203 178 462 214l47 8q2 0 4.5 0.5t3.5 0.5h46q62 1 126 -3q89 -15 162 -43q102 -42 171 -103q44 -34 81 -78q78 -91 116 -222q2 -12 1 -19q-8 -73 -59 -117
q-72 -61 -158 -24q-2 1 -5.5 2.5t-4.5 1.5q-8 8 -18 13q-13 13 -16 21q-27 66 -49 101l-5 4q-3 3 -4 7q-2 5 -9 14l-7 9l-19 24q-64 72 -161 109q-160 50 -302 11l-47 -13q-92 -33 -189 -114l-4 -4q-116 -102 -170 -236q-25 -70 -32 -116q-5 -31 -5 -114q14 -139 95 -238
l3 -3q67 -79 153 -114q18 -8 43 -14q132 -38 305 11q112 39 196 110l27 24q1 1 9 8t12 12q6 7 10 10l4 3q3 3 5.5 6t3.5 4l18 109h-386q-102 0 -122 99q-1 4 0 8v22q14 85 128 118q3 2 9 2q24 3 25 3h552q92 0 118 -93q0 -5 2 -15q-1 -5 -1.5 -12t-0.5 -9l-28 -176l-13 -73
h-1l-1 -6q-85 -140 -192 -230q-68 -56 -105 -78q-84 -58 -204 -102q-90 -30 -175 -43q-74 -7 -128 -4z" />
    <glyph glyph-name="H" unicode="H" horiz-adv-x="1390" 
d="M236 0q-90 0 -113 102q0 1 -0.5 3.5t-1.5 4.5q0 2 1 17.5t2 24.5l199 1255q17 108 120 145q2 0 5 1t4 1q35 5 38 5q90 0 113 -108q3 -23 -2 -47l-76 -485h632l78 497q15 94 119 136q23 7 40 7h3q97 0 118 -103q1 -3 1 -9q-1 -8 -2 -24t-2 -24l-197 -1239
q-17 -118 -129 -156q-5 -1 -12 -1l-14 -3h-9h-4q-86 0 -112 97q-4 26 -1 46l79 499h-632l-78 -488q-17 -113 -127 -150q-6 -1 -13 -1l-20 -3h-7z" />
    <glyph glyph-name="I" unicode="I" horiz-adv-x="480" 
d="M236 0q-82 0 -111 92l-3 11q-2 23 1 40l201 1271q16 100 126 138q22 5 33 5h3q95 0 117 -100q3 -6 2 -11q0 -24 -4 -47l-197 -1240q-20 -123 -131 -153q-13 -6 -34 -6h-3z" />
    <glyph glyph-name="J" unicode="J" horiz-adv-x="1401" 
d="M701 0q-305 0 -459 237q-81 151 -51 339l32 200q15 96 121 135q12 5 40 7q91 0 117 -104q3 -7 2 -12q0 -14 -1 -21l-28 -172q-28 -177 44 -243q86 -89 228 -89q189 0 309 151q45 67 55 131l130 825q21 129 130 169q4 3 16 3l18 1h8q89 0 114 -103q1 -3 1 -8q0 -18 -3 -40
l-128 -805q-68 -422 -484 -570q-121 -31 -207 -31h-4z" />
    <glyph glyph-name="K" unicode="K" horiz-adv-x="1361" 
d="M237 0q-86 0 -113 97q-4 26 -1 46l201 1271q15 96 120 136q3 2 12 4q15 3 28 3h2q98 0 117 -103q1 -2 1.5 -4.5t0.5 -3.5q-3 -46 -3 -47l-89 -561q39 53 105 104q588 525 670 591q7 5 14 9q34 15 69 15q90 0 115 -107q0 -30 -1 -34q-10 -66 -136 -165
q-465 -411 -529 -470q2 -12 443 -555q5 -7 5 -10q21 -43 15 -80q-13 -84 -118 -127q-23 -9 -41 -9h-3q-76 0 -140 106q-455 555 -483 600q-3 2 -3 6l-2 3l-88 -556q-20 -123 -132 -153q-14 -6 -34 -6h-2z" />
    <glyph glyph-name="L" unicode="L" 
d="M236 0q-63 0 -95 53q-26 37 -19 87l200 1263q17 110 128 150q5 1 12 1q16 3 28 3q94 0 113 -107q3 -13 -1 -44l-179 -1129h629q32 0 43 -4q102 -36 88 -130q-1 -3 -4 -12.5t-4 -14.5q0 -5 -4 -12q-54 -104 -164 -104h-771z" />
    <glyph glyph-name="M" unicode="M" horiz-adv-x="1659" 
d="M1416 -3q-85 0 -114 97q-4 24 0 48l135 850q-317 -353 -430 -471q-30 -29 -102 -38q-89 0 -144 129l-217 360h-2l-132 -830q-13 -94 -123 -133q-21 -9 -41 -9h-4q-94 0 -121 109v11q0 4 0.5 12t1.5 11l200 1268q16 99 132 141q4 1 11 1q9 1 23 1q94 0 146 -127l332 -558
q547 605 597 653q2 4 6 4q45 28 90 28h3q96 0 119 -101v-4t1 -5q0 -5 -0.5 -14.5t-1 -17.5t-1.5 -15l-196 -1240q-20 -123 -133 -154q-16 -6 -34 -6h-1z" />
    <glyph glyph-name="N" unicode="N" horiz-adv-x="1602" 
d="M236 0q-85 0 -112 97q-4 26 -1 46l202 1277q9 58 57 94q21 20 60 36l16 4q15 3 25 3h10q68 -5 94 -58q19 -20 45 -65l669 -922h4l144 909q13 88 120 129q15 6 41 7q89 0 116 -103q3 -12 2 -15l-2 -22l-202 -1277q-14 -93 -124 -133l-9 -3l-24 -3q-2 0 -4.5 -0.5
t-3.5 -0.5q-70 4 -130 104q-642 886 -680 943h-4l-141 -888q-19 -123 -131 -153q-20 -6 -34 -6h-3z" />
    <glyph glyph-name="O" unicode="O" horiz-adv-x="1752" 
d="M875 3q-70 0 -105 4q-70 10 -142 36q-46 15 -111 51q-62 41 -80 58q-35 27 -81 78q-75 91 -115 219l-2 14l1 3q-34 136 -20 289q2 15 5 23q0 9 2 23q36 157 112 290v4q79 133 191 231q45 40 105 78q48 34 98 57q66 34 128 52q70 24 153 37q49 4 107 4q61 0 106 -4
q81 -12 150 -40q47 -15 80 -37q59 -26 103 -69q44 -34 81 -78q75 -88 116 -219q0 -4 0.5 -7t0.5 -4l1 -2v-3q36 -136 20 -290l-4 -23l-3 -23q-33 -148 -109 -286l-3 -3v-2q-1 -3 -1 -4q-85 -140 -192 -230q-68 -56 -105 -78q-44 -30 -99 -58q-69 -34 -125 -51
q-83 -26 -155 -36q-36 -4 -108 -4zM912 277q70 0 181 29q8 3 82 34q59 32 112 79l8 6l2 1q115 99 171 238q19 49 29 114q9 58 8 116q-13 136 -96 236l-3 4q-41 47 -92 82q-49 25 -71 34q-93 28 -173 28q-80 -3 -166 -28q-39 -13 -80 -34q-46 -24 -119 -82l-4 -4
q-116 -102 -170 -236q-25 -70 -32 -116q-5 -31 -5 -114q14 -139 95 -238l3 -3q48 -55 93 -83q52 -27 69 -34q83 -25 158 -29z" />
    <glyph glyph-name="P" unicode="P" horiz-adv-x="1353" 
d="M237 0q-49 0 -79 33q-20 23 -34 61l-3 16q1 8 1.5 22.5t1.5 19.5l99 623q2 13 5 19l92 580l15 86q1 7 4 14q41 85 107 85h582q342 0 399 -341q5 -62 -2 -130q-36 -231 -255 -376q-131 -70 -263 -70h-425l-77 -483q-15 -98 -90 -139q-14 -8 -27 -11q-6 -3 -14 -3
q-16 -6 -34 -6h-3zM525 918h401q194 0 219 160l2 12q21 130 -87 183q-20 7 -52 7h-425z" />
    <glyph glyph-name="Q" unicode="Q" horiz-adv-x="1752" 
d="M875 3q-70 0 -105 4q-70 10 -142 36q-46 15 -111 51q-62 41 -80 58q-35 27 -81 78q-75 91 -115 219l-2 14l1 3q-34 136 -20 289q2 15 5 23q0 9 2 23q36 157 112 290v4q79 133 191 231q45 40 105 78q48 34 98 57q66 34 128 52q70 24 153 37q49 4 107 4q61 0 106 -4
q81 -12 150 -40q47 -15 80 -37q59 -26 103 -69q44 -34 81 -78q75 -88 116 -219q0 -4 0.5 -7t0.5 -4l1 -2v-3q36 -136 20 -290l-4 -23l-3 -23q-33 -148 -109 -286l-3 -3v-2q-1 -3 -1 -4q-45 -75 -107 -147l73 -84q1 -1 4.5 -7t6.5 -9q0 -2 2 -5.5t3 -5.5q32 -99 -46 -166
l-6 -5q-14 -12 -36 -22q-102 -41 -157 24l-79 90q-23 -14 -54 -29q-69 -34 -125 -51q-83 -26 -155 -36q-36 -4 -108 -4zM912 277q70 0 181 29q8 3 82 34q59 32 112 79l8 6l2 1q115 99 171 238q19 49 29 114q9 58 8 116q-13 136 -96 236l-3 4q-41 47 -92 82q-49 25 -71 34
q-93 28 -173 28q-80 -3 -166 -28q-39 -13 -80 -34q-46 -24 -119 -82l-4 -4q-116 -102 -170 -236q-25 -70 -32 -116q-5 -31 -5 -114q14 -139 95 -238l3 -3q48 -55 93 -83q52 -27 69 -34q83 -25 158 -29z" />
    <glyph glyph-name="R" unicode="R" horiz-adv-x="1412" 
d="M235 0q-89 0 -110 99l-1 1q-1 1 -1 2v1q-1 1 0 3v26v11q0 5 3 11l60 377q-1 10 2 22l84 532q1 8 8 33l41 256l14 86q3 11 5 14q40 85 106 85h648q50 0 108 -12q234 -51 284 -329q2 -70 -3 -130q-36 -231 -255 -376q-28 -16 -70 -33q152 -478 156 -512q4 -18 2 -30
q-15 -91 -124 -131q-6 -3 -15 -3l-24 -3q-102 0 -135 167l-151 475h-383l-77 -483q-15 -98 -92 -139q-15 -9 -28 -11q-5 -3 -11 -3q-20 -6 -36 -6h-5zM529 930h483q131 0 177 138l6 36q19 119 -79 169q-21 7 -49 7h-482z" />
    <glyph glyph-name="S" unicode="S" horiz-adv-x="1321" 
d="M260 0q-34 0 -59 11q-81 44 -73 123q2 9 4 12q0 1 3 8t4 12q47 111 165 111h106v2h408q30 0 54 8q123 49 144 182l2 11q13 81 -28.5 121.5t-138.5 40.5h-201q-131 0 -241 70q-173 146 -137 376q19 79 40 130q166 341 508 341h405h2v-2h34q114 0 132 -107q0 -24 -2 -36
q-15 -91 -127 -130q-6 -3 -14 -3l-27 -3h-359l1 2h-114q-32 0 -54 -7q-124 -53 -145 -183l-2 -12q-13 -80 29.5 -120t138.5 -40h201q133 0 240 -70q173 -144 137 -376q-13 -57 -39 -132q-167 -340 -508 -340h-489z" />
    <glyph glyph-name="T" unicode="T" horiz-adv-x="1435" 
d="M715 0q-59 0 -90 43q-22 23 -25 63l-1 4q1 5 1 12.5v11.5l184 1160h-350q-97 0 -110 102q0 17 1 25q14 85 116 119q3 2 9 2q18 2 24 2h978q4 0 10 -0.5t10 -0.5q9 -2 10 -3q93 -34 79 -119q-1 -5 -3.5 -14t-3.5 -11q-46 -102 -142 -102h-350l-184 -1160q0 -1 -7 -24
l-2 -4q-13 -37 -44 -63q-46 -43 -104 -43h-6z" />
    <glyph glyph-name="U" unicode="U" horiz-adv-x="1404" 
d="M704 0q-304 0 -459 237q-79 151 -51 339l130 841q15 94 122 135q9 4 40 7q90 0 116 -105q3 -4 3 -11q0 -9 -2 -23l-127 -811q-26 -177 45 -243q86 -89 228 -89q189 0 309 151q45 67 55 131l130 825q21 129 130 169q4 3 16 3l18 1h8q89 0 113 -103q2 -3 2 -8q0 -18 -3 -40
l-128 -805q-68 -422 -485 -570q-120 -31 -206 -31h-4z" />
    <glyph glyph-name="V" unicode="V" horiz-adv-x="1612" 
d="M801 0q-105 5 -126 146q-350 1214 -348 1233q-4 9 -4 28q0 1 0.5 4t0.5 5q17 81 112 126q29 10 47 11h6q102 -1 128 -150l118 -413q8 -30 56.5 -194t89.5 -308h4q205 341 306 502q40 65 126 208t123 205q72 150 179 150q15 -1 45 -11q85 -45 71 -131q-5 -20 -13 -32
q-2 -16 -739 -1233q-66 -141 -172 -146h-10z" />
    <glyph glyph-name="W" unicode="W" horiz-adv-x="2070" 
d="M635 0q-72 0 -111 70q-2 6 -5 13q-83 541 -105 719q-86 587 -88 608v4q-1 1 0 8v7q18 77 109 120q3 2 13 4q30 6 36 6q93 0 119 -103l127 -835q27 101 398 829q52 109 149 109h11q93 0 115 -109q116 -771 129 -841l398 847q55 103 149 103q3 0 35 -6q2 -1 5 -2t5 -2
q83 -45 70 -128l-2 -8l-3 -6q-8 -20 -280 -605q-41 -100 -332 -718q-2 -8 -10 -15q-60 -69 -131 -69h-5q-60 0 -101 59q-5 6 -6 13q-20 91 -138 883q-313 -676 -416 -882q-6 -12 -12 -16q-58 -57 -120 -57h-3z" />
    <glyph glyph-name="X" unicode="X" horiz-adv-x="1439" 
d="M239 0q-98 0 -116 106q-3 3 -1 33q9 58 115 161l430 482l-279 475q-72 103 -63 163q8 29 11 30q51 107 150 107h4q49 0 90 -44q0 -1 12 -21t37.5 -63t59 -99t85 -142t107.5 -178q425 469 455 500l4 4q57 43 102 43h6q97 0 115 -107q4 -2 0 -30q-9 -61 -113 -163
l-431 -475l280 -482q70 -99 61 -161q-4 -27 -10 -33q-51 -106 -149 -106h-6q-46 0 -86 40q-1 1 -2 3q-3 4 -4 6l-295 500q-118 -129 -231 -253t-164 -180t-62 -67q-3 -5 -9 -9q-50 -40 -99 -40h-4z" />
    <glyph glyph-name="Y" unicode="Y" horiz-adv-x="1431" 
d="M715 0q-89 0 -117 96q0 1 -2 13q0 6 0.5 17t1.5 16l93 582l-316 550q-58 92 -51 142l1 5q0 3 2.5 10.5t3.5 12.5q1 4 4 12q58 103 148 103q55 0 94 -45q26 -37 297 -514q435 489 460 514q54 45 110 45q88 0 114 -103q0 -10 1 -12q-1 -5 -2 -13t-1 -10l-1 -5
q-7 -48 -93 -142l-492 -550l-93 -582q-1 -11 -8 -33q-1 -3 -6 -13q-58 -96 -147 -96h-1z" />
    <glyph glyph-name="Z" unicode="Z" horiz-adv-x="1438" 
d="M244 6q-98 0 -119 96q-5 26 -3 40l1 1q9 63 111 159l885 971v5h-660q-109 0 -132 101q-2 7 0 15q0 23 -3 23q13 80 107 127q30 13 62 13h948q95 0 118 -96q6 -22 3 -40v-1q-7 -43 -134 -187.5t-861 -943.5l-1 -6h659q113 0 132 -99q3 -7 1 -14q-2 -24 2 -24
q-12 -82 -106 -127q-32 -13 -62 -13h-948z" />
    <glyph glyph-name="bracketleft" unicode="[" horiz-adv-x="716" 
d="M224 51q-50 0 -77.5 33t-19.5 85l206 1300q8 50 46 83.5t88 33.5h285q50 0 77.5 -33t19.5 -84l-1 -3q-8 -50 -42.5 -84t-79.5 -34h-103l-167 -1051h92q50 0 77 -32.5t20 -84.5l-2 -11q-8 -52 -46 -85t-88 -33h-285z" />
    <glyph glyph-name="backslash" unicode="\" horiz-adv-x="1219" 
d="M933 51q-28 0 -49 14.5t-30 38.5l-506 1272q-31 77 -2.5 143.5t91.5 66.5h111q60 0 81 -53l502 -1271q31 -77 3.5 -144t-89.5 -67h-112z" />
    <glyph glyph-name="bracketright" unicode="]" horiz-adv-x="716" 
d="M224 51q-50 0 -77.5 33t-19.5 85l2 11q7 51 41.5 84t79.5 33h103l167 1051h-90q-50 0 -78 34t-20 84l1 3q8 50 46 83.5t88 33.5h285q50 0 77.5 -33t19.5 -84l-206 -1300q-8 -52 -46 -85t-88 -33h-285z" />
    <glyph glyph-name="asciicircum" unicode="^" horiz-adv-x="1500" 
d="M1382 765q24 -78 -58 -112l-8 -3l-92 -38q-38 -16 -65.5 -4.5t-38.5 47.5l-137 449q-13 44 -55 44t-69 -44l-279 -449q-48 -75 -120 -43l-90 44q-62 34 -16 108l465 747q33 49 84 49h180q52 0 68 -50zM1328 653l-8 -2q0 1 2 1t2 1h2h2z" />
    <glyph glyph-name="underscore" unicode="_" horiz-adv-x="1131" 
d="M171 -293q-50 0 -78.5 33.5t-20.5 83.5l1 7q8 51 46.5 84.5t89.5 33.5h698q50 0 77.5 -33t19.5 -85l-1 -7q-8 -50 -46 -83.5t-88 -33.5h-698z" />
    <glyph glyph-name="a" unicode="a" horiz-adv-x="1706" 
d="M239 0q-89 0 -114 96q0 2 -1 4.5t-1 3.5v26q-4 7 2 17q12 41 124 211q150 234 427 669q31 46 106.5 166t123.5 194q83 170 192 170h4q107 0 138 -170q205 -645 202 -658q1 0 1 -5q58 -169 128 -366q57 -172 56 -211q2 -9 -2 -17l-10 -26q0 -2 -4 -8q-58 -96 -144 -96
q-57 0 -94 46l-5 8q-11 24 -116 339q-33 -7 -64 -7h-569q-10 0 -42 4q-171 -266 -221 -336q-2 -3 -9 -8q-52 -46 -108 -46zM754 664h408q-8 18 -9 40q-17 49 -26 83q-11 34 -44.5 139t-54.5 168h-4q-27 -43 -95 -149.5t-100 -157.5q-9 -14 -26.5 -41.5t-25.5 -41.5
q-9 -18 -23 -40z" />
    <glyph glyph-name="b" unicode="b" horiz-adv-x="1320" 
d="M236 0q-85 0 -112 97q-4 26 -1 46l202 1280q13 79 112 127q7 3 12 4q24 6 53 6h466q339 0 399 -333q8 -86 -1 -142q-25 -155 -154 -297v-1q109 -153 81 -327l-4 -27q-34 -211 -239 -353q-128 -80 -306 -80h-508zM524 918h342q130 0 178 66q34 47 41 87l4 27
q19 122 -85 175q-29 8 -53 8h-369zM423 279h403q134 0 179 133q5 10 10 34q21 135 -86 186q-23 10 -72 10h-376z" />
    <glyph glyph-name="c" unicode="c" horiz-adv-x="1687" 
d="M855 3q-33 0 -49 1l-49 7q-247 38 -394 216q-174 208 -143 528q2 15 5 23q0 9 2 23q70 320 311 529q203 178 462 214l47 8q2 0 4.5 0.5t3.5 0.5h46q62 1 126 -3q89 -15 162 -43q102 -42 171 -103q44 -34 81 -78q78 -91 116 -222q2 -12 1 -19q-8 -73 -59 -117
q-72 -61 -158 -24q-2 1 -5.5 2.5t-4.5 1.5q-8 8 -18 13q-13 13 -16 21q-27 66 -49 101l-5 4q-3 3 -4 7q-2 5 -9 14l-7 9l-19 24q-64 72 -161 109q-160 50 -302 11l-47 -13q-92 -33 -189 -114l-4 -4q-116 -102 -170 -236q-25 -70 -32 -116q-5 -31 -5 -114q14 -139 95 -238
l3 -3q67 -79 153 -114q18 -8 43 -14q132 -38 305 11q112 39 196 110l27 24q1 1 9 8t12 12q6 7 10 10l4 3q30 33 83 102q10 14 19 18l23 15q4 3 12 7q98 34 151 -27q37 -45 21 -118q-1 -8 -6 -18q-82 -133 -187 -222q-68 -56 -105 -78q-84 -58 -204 -102q-90 -30 -175 -43
q-74 -7 -128 -4z" />
    <glyph glyph-name="d" unicode="d" horiz-adv-x="1557" 
d="M236 0q-47 0 -77 30q-22 19 -32 53l-3 14q-2 6 -2 27q-1 7 1 19l201 1271q15 96 121 138l11 2q15 3 27 3h435q570 0 665 -525q15 -140 -2 -248q-52 -329 -320 -574q-239 -210 -593 -210h-432zM423 277h333q314 0 489 321q41 88 56 177l2 17q50 305 -186 445
q-88 41 -200 41h-336z" />
    <glyph glyph-name="e" unicode="e" 
d="M236 0q-53 0 -83 37q-24 24 -33 67q0 3 0.5 6.5t0.5 5.5q0 4 0.5 14t1.5 13l202 1278q8 47 42 81q27 30 77 48q3 2 12 4q15 3 27 3h771q106 0 128 -90l2 -13v-8q3 -12 1 -25l-1 -7q-10 -66 -79 -107q-18 -13 -28 -17h-3q-12 -5 -16 -6l-8 -3l-34 -3h-635l-57 -360h409
q78 0 108 -81q4 -22 5 -28q0 -1 0.5 -3.5t1.5 -3.5q-3 -22 -3 -23v-4q-12 -76 -93 -116l-20 -10q-4 -2 -12 -5h-6q-12 -3 -24 -3h-409l-58 -364h628q58 0 89.5 -25.5t40.5 -79.5q0 -8 -1 -12q0 -4 0.5 -8.5t1 -7t0.5 -4.5q-14 -84 -112 -129q-30 -11 -63 -11h-771z" />
    <glyph glyph-name="f" unicode="f" 
d="M236 0q-85 0 -112 97l-2 6l1 3q-2 27 0 37l202 1277q5 30 24 61q27 41 95 69q7 3 14 4q12 3 25 3h771q115 0 131 -107q2 -19 -1 -36q-15 -91 -127 -130q-6 -3 -14 -3l-27 -3h-635l-57 -360h356q96 0 115 -111q0 -6 -1 -9q0 -9 -2 -23q-14 -89 -115 -126q-22 -8 -40 -8
h-356l-77 -482q-18 -115 -115 -149q-3 -1 -6 -1q-2 -1 -6.5 -2.5t-6.5 -2.5q-9 -4 -31 -4h-3z" />
    <glyph glyph-name="g" unicode="g" horiz-adv-x="1689" 
d="M855 3q-33 0 -49 1l-49 7q-247 38 -394 216q-174 208 -143 528q2 15 5 23q0 9 2 23q70 320 311 529q203 178 462 214l47 8q2 0 4.5 0.5t3.5 0.5h46q62 1 126 -3q89 -15 162 -43q102 -42 171 -103q44 -34 81 -78q78 -91 116 -222q2 -12 1 -19q-8 -73 -59 -117
q-72 -61 -158 -24q-2 1 -5.5 2.5t-4.5 1.5q-8 8 -18 13q-13 13 -16 21q-27 66 -49 101l-5 4q-3 3 -4 7q-2 5 -9 14l-7 9l-19 24q-64 72 -161 109q-160 50 -302 11l-47 -13q-92 -33 -189 -114l-4 -4q-116 -102 -170 -236q-25 -70 -32 -116q-5 -31 -5 -114q14 -139 95 -238
l3 -3q67 -79 153 -114q18 -8 43 -14q132 -38 305 11q112 39 196 110l27 24q1 1 9 8t12 12q6 7 10 10l4 3q3 3 5.5 6t3.5 4l18 109h-386q-102 0 -122 99q-1 4 0 8v22q14 85 128 118q3 2 9 2q24 3 25 3h552q92 0 118 -93q0 -5 2 -15q-1 -5 -1.5 -12t-0.5 -9l-28 -176l-13 -73
h-1l-1 -6q-85 -140 -192 -230q-68 -56 -105 -78q-84 -58 -204 -102q-90 -30 -175 -43q-74 -7 -128 -4z" />
    <glyph glyph-name="h" unicode="h" horiz-adv-x="1390" 
d="M236 0q-90 0 -113 102q0 1 -0.5 3.5t-1.5 4.5q0 2 1 17.5t2 24.5l199 1255q17 108 120 145q2 0 5 1t4 1q35 5 38 5q90 0 113 -108q3 -23 -2 -47l-76 -485h632l78 497q15 94 119 136q23 7 40 7h3q97 0 118 -103q1 -3 1 -9q-1 -8 -2 -24t-2 -24l-197 -1239
q-17 -118 -129 -156q-5 -1 -12 -1l-14 -3h-9h-4q-86 0 -112 97q-4 26 -1 46l79 499h-632l-78 -488q-17 -113 -127 -150q-6 -1 -13 -1l-20 -3h-7z" />
    <glyph glyph-name="i" unicode="i" horiz-adv-x="480" 
d="M236 0q-82 0 -111 92l-3 11q-2 23 1 40l201 1271q16 100 126 138q22 5 33 5h3q95 0 117 -100q3 -6 2 -11q0 -24 -4 -47l-197 -1240q-20 -123 -131 -153q-13 -6 -34 -6h-3z" />
    <glyph glyph-name="j" unicode="j" horiz-adv-x="1401" 
d="M701 0q-305 0 -459 237q-81 151 -51 339l32 200q15 96 121 135q12 5 40 7q91 0 117 -104q3 -7 2 -12q0 -14 -1 -21l-28 -172q-28 -177 44 -243q86 -89 228 -89q189 0 309 151q45 67 55 131l130 825q21 129 130 169q4 3 16 3l18 1h8q89 0 114 -103q1 -3 1 -8q0 -18 -3 -40
l-128 -805q-68 -422 -484 -570q-121 -31 -207 -31h-4z" />
    <glyph glyph-name="k" unicode="k" horiz-adv-x="1361" 
d="M237 0q-86 0 -113 97q-4 26 -1 46l201 1271q15 96 120 136q3 2 12 4q15 3 28 3h2q98 0 117 -103q1 -2 1.5 -4.5t0.5 -3.5q-3 -46 -3 -47l-89 -561q39 53 105 104q588 525 670 591q7 5 14 9q34 15 69 15q90 0 115 -107q0 -30 -1 -34q-10 -66 -136 -165
q-465 -411 -529 -470q2 -12 443 -555q5 -7 5 -10q21 -43 15 -80q-13 -84 -118 -127q-23 -9 -41 -9h-3q-76 0 -140 106q-455 555 -483 600q-3 2 -3 6l-2 3l-88 -556q-20 -123 -132 -153q-14 -6 -34 -6h-2z" />
    <glyph glyph-name="l" unicode="l" 
d="M236 0q-63 0 -95 53q-26 37 -19 87l200 1263q17 110 128 150q5 1 12 1q16 3 28 3q94 0 113 -107q3 -13 -1 -44l-179 -1129h629q32 0 43 -4q102 -36 88 -130q-1 -3 -4 -12.5t-4 -14.5q0 -5 -4 -12q-54 -104 -164 -104h-771z" />
    <glyph glyph-name="m" unicode="m" horiz-adv-x="1659" 
d="M1416 -3q-85 0 -114 97q-4 24 0 48l135 850q-317 -353 -430 -471q-30 -29 -102 -38q-89 0 -144 129l-217 360h-2l-132 -830q-13 -94 -123 -133q-21 -9 -41 -9h-4q-94 0 -121 109v11q0 4 0.5 12t1.5 11l200 1268q16 99 132 141q4 1 11 1q9 1 23 1q94 0 146 -127l332 -558
q547 605 597 653q2 4 6 4q45 28 90 28h3q96 0 119 -101v-4t1 -5q0 -5 -0.5 -14.5t-1 -17.5t-1.5 -15l-196 -1240q-20 -123 -133 -154q-16 -6 -34 -6h-1z" />
    <glyph glyph-name="n" unicode="n" horiz-adv-x="1602" 
d="M236 0q-85 0 -112 97q-4 26 -1 46l202 1277q9 58 57 94q21 20 60 36l16 4q15 3 25 3h10q68 -5 94 -58q19 -20 45 -65l669 -922h4l144 909q13 88 120 129q15 6 41 7q89 0 116 -103q3 -12 2 -15l-2 -22l-202 -1277q-14 -93 -124 -133l-9 -3l-24 -3q-2 0 -4.5 -0.5
t-3.5 -0.5q-70 4 -130 104q-642 886 -680 943h-4l-141 -888q-19 -123 -131 -153q-20 -6 -34 -6h-3z" />
    <glyph glyph-name="o" unicode="o" horiz-adv-x="1752" 
d="M875 3q-70 0 -105 4q-70 10 -142 36q-46 15 -111 51q-62 41 -80 58q-35 27 -81 78q-75 91 -115 219l-2 14l1 3q-34 136 -20 289q2 15 5 23q0 9 2 23q36 157 112 290v4q79 133 191 231q45 40 105 78q48 34 98 57q66 34 128 52q70 24 153 37q49 4 107 4q61 0 106 -4
q81 -12 150 -40q47 -15 80 -37q59 -26 103 -69q44 -34 81 -78q75 -88 116 -219q0 -4 0.5 -7t0.5 -4l1 -2v-3q36 -136 20 -290l-4 -23l-3 -23q-33 -148 -109 -286l-3 -3v-2q-1 -3 -1 -4q-85 -140 -192 -230q-68 -56 -105 -78q-44 -30 -99 -58q-69 -34 -125 -51
q-83 -26 -155 -36q-36 -4 -108 -4zM912 277q70 0 181 29q8 3 82 34q59 32 112 79l8 6l2 1q115 99 171 238q19 49 29 114q9 58 8 116q-13 136 -96 236l-3 4q-41 47 -92 82q-49 25 -71 34q-93 28 -173 28q-80 -3 -166 -28q-39 -13 -80 -34q-46 -24 -119 -82l-4 -4
q-116 -102 -170 -236q-25 -70 -32 -116q-5 -31 -5 -114q14 -139 95 -238l3 -3q48 -55 93 -83q52 -27 69 -34q83 -25 158 -29z" />
    <glyph glyph-name="p" unicode="p" horiz-adv-x="1353" 
d="M237 0q-49 0 -79 33q-20 23 -34 61l-3 16q1 8 1.5 22.5t1.5 19.5l99 623q2 13 5 19l92 580l15 86q1 7 4 14q41 85 107 85h582q342 0 399 -341q5 -62 -2 -130q-36 -231 -255 -376q-131 -70 -263 -70h-425l-77 -483q-15 -98 -90 -139q-14 -8 -27 -11q-6 -3 -14 -3
q-16 -6 -34 -6h-3zM525 918h401q194 0 219 160l2 12q21 130 -87 183q-20 7 -52 7h-425z" />
    <glyph glyph-name="q" unicode="q" horiz-adv-x="1752" 
d="M875 3q-70 0 -105 4q-70 10 -142 36q-46 15 -111 51q-62 41 -80 58q-35 27 -81 78q-75 91 -115 219l-2 14l1 3q-34 136 -20 289q2 15 5 23q0 9 2 23q36 157 112 290v4q79 133 191 231q45 40 105 78q48 34 98 57q66 34 128 52q70 24 153 37q49 4 107 4q61 0 106 -4
q81 -12 150 -40q47 -15 80 -37q59 -26 103 -69q44 -34 81 -78q75 -88 116 -219q0 -4 0.5 -7t0.5 -4l1 -2v-3q36 -136 20 -290l-4 -23l-3 -23q-33 -148 -109 -286l-3 -3v-2q-1 -3 -1 -4q-45 -75 -107 -147l73 -84q1 -1 4.5 -7t6.5 -9q0 -2 2 -5.5t3 -5.5q32 -99 -46 -166
l-6 -5q-14 -12 -36 -22q-102 -41 -157 24l-79 90q-23 -14 -54 -29q-69 -34 -125 -51q-83 -26 -155 -36q-36 -4 -108 -4zM912 277q70 0 181 29q8 3 82 34q59 32 112 79l8 6l2 1q115 99 171 238q19 49 29 114q9 58 8 116q-13 136 -96 236l-3 4q-41 47 -92 82q-49 25 -71 34
q-93 28 -173 28q-80 -3 -166 -28q-39 -13 -80 -34q-46 -24 -119 -82l-4 -4q-116 -102 -170 -236q-25 -70 -32 -116q-5 -31 -5 -114q14 -139 95 -238l3 -3q48 -55 93 -83q52 -27 69 -34q83 -25 158 -29z" />
    <glyph glyph-name="r" unicode="r" horiz-adv-x="1412" 
d="M235 0q-89 0 -110 99l-1 1q-1 1 -1 2v1q-1 1 0 3v26v11q0 5 3 11l60 377q-1 10 2 22l84 532q1 8 8 33l41 256l14 86q3 11 5 14q40 85 106 85h648q50 0 108 -12q234 -51 284 -329q2 -70 -3 -130q-36 -231 -255 -376q-28 -16 -70 -33q152 -478 156 -512q4 -18 2 -30
q-15 -91 -124 -131q-6 -3 -15 -3l-24 -3q-102 0 -135 167l-151 475h-383l-77 -483q-15 -98 -92 -139q-15 -9 -28 -11q-5 -3 -11 -3q-20 -6 -36 -6h-5zM529 930h483q131 0 177 138l6 36q19 119 -79 169q-21 7 -49 7h-482z" />
    <glyph glyph-name="s" unicode="s" horiz-adv-x="1321" 
d="M260 0q-34 0 -59 11q-81 44 -73 123q2 9 4 12q0 1 3 8t4 12q47 111 165 111h106v2h408q30 0 54 8q123 49 144 182l2 11q13 81 -28.5 121.5t-138.5 40.5h-201q-131 0 -241 70q-173 146 -137 376q19 79 40 130q166 341 508 341h405h2v-2h34q114 0 132 -107q0 -24 -2 -36
q-15 -91 -127 -130q-6 -3 -14 -3l-27 -3h-359l1 2h-114q-32 0 -54 -7q-124 -53 -145 -183l-2 -12q-13 -80 29.5 -120t138.5 -40h201q133 0 240 -70q173 -144 137 -376q-13 -57 -39 -132q-167 -340 -508 -340h-489z" />
    <glyph glyph-name="t" unicode="t" horiz-adv-x="1435" 
d="M715 0q-59 0 -90 43q-22 23 -25 63l-1 4q1 5 1 12.5v11.5l184 1160h-350q-97 0 -110 102q0 17 1 25q14 85 116 119q3 2 9 2q18 2 24 2h978q4 0 10 -0.5t10 -0.5q9 -2 10 -3q93 -34 79 -119q-1 -5 -3.5 -14t-3.5 -11q-46 -102 -142 -102h-350l-184 -1160q0 -1 -7 -24
l-2 -4q-13 -37 -44 -63q-46 -43 -104 -43h-6z" />
    <glyph glyph-name="u" unicode="u" horiz-adv-x="1404" 
d="M704 0q-304 0 -459 237q-79 151 -51 339l130 841q15 94 122 135q9 4 40 7q90 0 116 -105q3 -4 3 -11q0 -9 -2 -23l-127 -811q-26 -177 45 -243q86 -89 228 -89q189 0 309 151q45 67 55 131l130 825q21 129 130 169q4 3 16 3l18 1h8q89 0 113 -103q2 -3 2 -8q0 -18 -3 -40
l-128 -805q-68 -422 -485 -570q-120 -31 -206 -31h-4z" />
    <glyph glyph-name="v" unicode="v" horiz-adv-x="1612" 
d="M801 0q-105 5 -126 146q-350 1214 -348 1233q-4 9 -4 28q0 1 0.5 4t0.5 5q17 81 112 126q29 10 47 11h6q102 -1 128 -150l118 -413q8 -30 56.5 -194t89.5 -308h4q205 341 306 502q40 65 126 208t123 205q72 150 179 150q15 -1 45 -11q85 -45 71 -131q-5 -20 -13 -32
q-2 -16 -739 -1233q-66 -141 -172 -146h-10z" />
    <glyph glyph-name="w" unicode="w" horiz-adv-x="2070" 
d="M635 0q-72 0 -111 70q-2 6 -5 13q-83 541 -105 719q-86 587 -88 608v4q-1 1 0 8v7q18 77 109 120q3 2 13 4q30 6 36 6q93 0 119 -103l127 -835q27 101 398 829q52 109 149 109h11q93 0 115 -109q116 -771 129 -841l398 847q55 103 149 103q3 0 35 -6q2 -1 5 -2t5 -2
q83 -45 70 -128l-2 -8l-3 -6q-8 -20 -280 -605q-41 -100 -332 -718q-2 -8 -10 -15q-60 -69 -131 -69h-5q-60 0 -101 59q-5 6 -6 13q-20 91 -138 883q-313 -676 -416 -882q-6 -12 -12 -16q-58 -57 -120 -57h-3z" />
    <glyph glyph-name="x" unicode="x" horiz-adv-x="1439" 
d="M239 0q-98 0 -116 106q-3 3 -1 33q9 58 115 161l430 482l-279 475q-72 103 -63 163q8 29 11 30q51 107 150 107h4q49 0 90 -44q0 -1 12 -21t37.5 -63t59 -99t85 -142t107.5 -178q425 469 455 500l4 4q57 43 102 43h6q97 0 115 -107q4 -2 0 -30q-9 -61 -113 -163
l-431 -475l280 -482q70 -99 61 -161q-4 -27 -10 -33q-51 -106 -149 -106h-6q-46 0 -86 40q-1 1 -2 3q-3 4 -4 6l-295 500q-118 -129 -231 -253t-164 -180t-62 -67q-3 -5 -9 -9q-50 -40 -99 -40h-4z" />
    <glyph glyph-name="y" unicode="y" horiz-adv-x="1431" 
d="M715 0q-89 0 -117 96q0 1 -2 13q0 6 0.5 17t1.5 16l93 582l-316 550q-58 92 -51 142l1 5q0 3 2.5 10.5t3.5 12.5q1 4 4 12q58 103 148 103q55 0 94 -45q26 -37 297 -514q435 489 460 514q54 45 110 45q88 0 114 -103q0 -10 1 -12q-1 -5 -2 -13t-1 -10l-1 -5
q-7 -48 -93 -142l-492 -550l-93 -582q-1 -11 -8 -33q-1 -3 -6 -13q-58 -96 -147 -96h-1z" />
    <glyph glyph-name="z" unicode="z" horiz-adv-x="1438" 
d="M244 6q-98 0 -119 96q-5 26 -3 40l1 1q9 63 111 159l885 971v5h-660q-109 0 -132 101q-2 7 0 15q0 23 -3 23q13 80 107 127q30 13 62 13h948q95 0 118 -96q6 -22 3 -40v-1q-7 -43 -134 -187.5t-861 -943.5l-1 -6h659q113 0 132 -99q3 -7 1 -14q-2 -24 2 -24
q-12 -82 -106 -127q-32 -13 -62 -13h-948z" />
    <glyph glyph-name="braceleft" unicode="{" horiz-adv-x="761" 
d="M523 60q75 0 86 75l20 122q4 30 -26 30h-150l148 934h150q31 0 35 30l20 124q11 75 -63 75h-270q-36 0 -59 -19.5t-28 -55.5l-197 -1240q-5 -36 11.5 -55.5t52.5 -19.5h270z" />
    <glyph glyph-name="bar" unicode="|" horiz-adv-x="622" 
d="M368 60q41 0 66.5 22t32.5 63l214 1352q7 41 -12 63t-60 22h-96q-41 0 -67 -22t-33 -63l-214 -1352q-7 -40 12.5 -62.5t60.5 -22.5h96z" />
    <glyph glyph-name="braceright" unicode="}" horiz-adv-x="761" 
d="M523 60q75 0 86 75l197 1240q11 75 -63 75h-270q-36 0 -59 -19.5t-28 -55.5l-20 -124q-4 -30 25 -30h148l-148 -934h-148q-30 0 -34 -28l-20 -124q-5 -36 11.5 -55.5t52.5 -19.5h270z" />
    <glyph glyph-name="asciitilde" unicode="~" horiz-adv-x="1347" 
d="M1188 683q41 0 67 22.5t33 62.5l13 82q6 41 -13.5 63.5t-59.5 22.5l-817 2q-41 0 -67 -22t-33 -63l-13 -83q-7 -41 12 -63t60 -22z" />
    <glyph glyph-name="exclamdown" unicode="&#xa1;" horiz-adv-x="514" 
d="M468 1341q-64 0 -104 36.5t-32 86.5q8 51 58.5 86.5t116.5 35.5q67 0 106.5 -35t31.5 -87q-8 -51 -59.5 -87t-117.5 -36zM225 51q-50 0 -78 33t-20 85l136 863q8 51 46.5 83.5t89.5 32.5h79q51 0 78.5 -32.5t19.5 -83.5l-136 -863q-8 -51 -46.5 -84.5t-89.5 -33.5h-79z
" />
    <glyph glyph-name="cent" unicode="&#xa2;" horiz-adv-x="1353" 
d="M1227 694q82 26 121 -22q28 -32 17 -95q0 -6 -5 -14q-61 -108 -150 -179q-63 -50 -85 -62q-68 -48 -164 -82q-51 -18 -88 -25q-21 -118 -130 -147q-13 -6 -34 -6h-3q-65 0 -112 92q-2 4 -2 11q-1 21 0 40l2 11q-163 35 -272 166q-142 167 -115 424q1 11 4 19q0 8 2 18
q56 260 249 426q142 123 325 163l7 44q15 100 126 138q22 5 32 5h3q70 0 118 -100q1 -2 1.5 -6t0.5 -5q0 -26 -5 -47l-4 -25q47 -12 80 -25q84 -35 138 -83q34 -26 66 -62q32 -39 44.5 -55.5t30 -53t18.5 -70.5q0 -2 1 -7t0 -8q-10 -62 -47 -94q-53 -46 -128 -20l-8 4
q-12 7 -14 10q-11 13 -13 17q-6 11 -19.5 40.5t-21.5 40.5l-3 3l-3 6q-1 2 -13 18l-15 20q-53 59 -129 87l-121 -759q99 35 158 89l21 19l8 6q7 6 9 10q2 2 5 4.5t3 3.5l3 3q9 9 30 37t37 45q12 12 15 14l19 12q8 5 10 6zM629 448q1 0 1 -0.5t1 -0.5l120 757l-2 -1
q-75 -27 -152 -92l-4 -3q-91 -82 -137 -190q-20 -65 -24 -93q-5 -30 -5 -92q11 -113 77 -191l2 -3q50 -58 123 -91z" />
    <glyph glyph-name="sterling" unicode="&#xa3;" horiz-adv-x="1496" 
d="M1490 1183q2 -16 -9 -24.5t-35 -8.5h-218q-8 0 -12.5 5.5t-8.5 21.5q-11 40 -38 77q-66 66 -158 66q-49 0 -95 -17q-50 -20 -85 -48q-44 -39 -64 -78q-25 -40 -32 -93v-46q5 -41 29 -81q1 -2 1.5 -4t0.5 -3l1 -2l-3 6l23 -62q10 -24 36 -24h251q41 0 60.5 -22.5
t12.5 -63.5l-14 -87q-6 -41 -32 -63t-67 -22h-186q-17 0 -31.5 -10t-20.5 -27l-19 -48v-1l-11 -29q-1 -1 -1 -3l-1 -2l-21 -41l-4 -7l-36 -62q-13 -24 3 -43t50 -19h522q40 0 59 -22t13 -63l-14 -88q-7 -41 -32.5 -63t-65.5 -22h-966q-81 0 -73 85l14 157q221 101 293 245
q12 25 -1.5 44t-40.5 19h-130q-61 0 -52 61l30 186q1 11 12 11h78q30 0 48.5 23.5t13.5 54.5q-12 78 -1 144q14 97 71 189q51 85 132 156q79 64 180 104q99 38 206 38q103 0 191 -38q87 -39 146 -104q59 -71 86 -156q12 -46 15 -96zM767 948l1 -3q-1 2 -1 3z" />
    <glyph glyph-name="yen" unicode="&#xa5;" horiz-adv-x="1362" 
d="M1385 1454l-267 -429q-20 -33 -7 -59t48 -26h131q34 0 49.5 -19t10.5 -51l-15 -92q-13 -86 -99 -86h-268q-22 0 -39 -14.5t-20 -36.5l-13 -78q-3 -22 9 -36.5t34 -14.5h268q41 0 60 -22.5t12 -63.5l-12 -77q-6 -40 -32 -63t-67 -23h-268q-22 0 -39 -14.5t-20 -36.5
l-18 -110q-6 -42 -48 -42h-179q-42 0 -36 42l18 111q3 22 -8.5 36t-33.5 14l-266 3q-41 0 -60 22t-12 63l11 75q7 41 33 63.5t67 22.5h265q22 0 39 14.5t20 36.5l13 78q3 22 -9 36.5t-34 14.5h-265q-41 0 -60 22.5t-13 63.5l15 94q11 68 82 68h129q35 0 56 26t11 59
l-131 429q-16 56 4 81t82 25h117q35 0 57 -27q13 -18 32 -18h1q-2 0 -2 -1q-16 -7 0 -66l83 -268q13 -44 55 -44t69 44l206 331q33 49 85 49h119q60 0 72 -25t-22 -81zM738 1518l-9 -2q-3 -1 -9 -1l19 4z" />
    <glyph glyph-name="copyright" unicode="&#xa9;" horiz-adv-x="1634" 
d="M817 39q-200 0 -370 99t-269 269t-99 370t99 370t269 269t370 99t370 -99t269 -269t99 -370t-99 -370t-269 -269t-370 -99zM817 154q169 0 312.5 83.5t227 227t83.5 312.5t-83.5 312.5t-227 227t-312.5 83.5t-312.5 -83.5t-227 -227t-83.5 -312.5t83.5 -312.5t227 -227
t312.5 -83.5zM803 344q-17 0 -27 1l-27 3q-124 14 -233 119q-113 110 -124 287q0 9 2 13q-2 5 -2 13q11 175 124 288q87 87 233 116l25 5h5h24q45 0 70 -1q62 -12 91 -24q69 -30 103 -56q25 -18 50 -43q23 -23 35.5 -36.5t27 -37t20.5 -46.5q2 -8 2 -11q0 -41 -22 -63
q-32 -32 -84 -14l-6 2q-1 2 -6 5l-4 2q-10 10 -11 12q-25 41 -36 55l-3 2l-2 4q-2 3 -6 7l-5 5l-13 14q-40 39 -97 59q-93 28 -166 6l-24 -7q-48 -18 -93 -62l-2 -3q-54 -54 -72 -128q-8 -44 -8 -63q0 -20 8 -62q18 -76 72 -130l2 -2q33 -33 93 -62q8 -4 24 -8q78 -20 166 6
q53 20 97 61l13 12q1 1 4.5 5t4.5 6l5 5l2 2q28 39 37 56q4 8 8 10l12 8q3 3 6 4q52 17 84 -15q22 -22 22 -65q0 -3 -2 -9q-21 -62 -83 -121q-32 -30 -50 -42q-40 -32 -103 -56q-46 -17 -91 -23q-25 -3 -70 -3z" />
    <glyph glyph-name="registered" unicode="&#xae;" horiz-adv-x="1634" 
d="M817 39q-200 0 -370 99t-269 269t-99 370t99 370t269 269t370 99t370 -99t269 -269t99 -370t-99 -370t-269 -269t-370 -99zM817 154q169 0 312.5 83.5t227 227t83.5 312.5t-83.5 312.5t-227 227t-312.5 83.5t-312.5 -83.5t-227 -227t-83.5 -312.5t83.5 -312.5t227 -227
t312.5 -83.5zM591 372q-44 0 -65 52v1l-1 1q-1 1 -1 2l-1 13l-1 3v4q0 3 1 4v198q-1 3 -1 12v277q0 3 0.5 9t0.5 9v133l1 45q0 5 1 8q15 44 48 44h339q26 0 57 -7q127 -26 176 -171q5 -37 8 -68q0 -121 -102 -197q-6 -4 -34 -17q75 -155 125 -267q3 -8 3 -16q0 -40 -54 -68
q-4 -2 -7 -2l-13 -2q-55 0 -84 88l-119 247h-199v-252q0 -53 -37 -73q-1 0 -6 -1.5t-8 -2.5q-2 -2 -5 -2q-10 -4 -19 -4h-3zM669 858h251q69 0 82 72v19q0 62 -55 88q-12 4 -27 4h-251v-183z" />
    <glyph glyph-name="degree" unicode="&#xb0;" 
d="M874 1560q-98 0 -179 -33q-96 -40 -160 -95q-70 -57 -120 -138q-47 -78 -61 -168t8 -167q21 -77 76 -136q46 -54 130 -95q72 -33 169 -33t182 33q95 39 160 95q76 64 120 136q49 80 62 167q14 85 -8 168q-22 73 -77 139q-49 56 -130 94q-76 33 -172 33zM777 948
q-64 0 -114.5 58t-40.5 120q10 63 79.5 122t132.5 59q65 0 116 -59t41 -122t-79.5 -120.5t-134.5 -57.5z" />
    <glyph glyph-name="periodcentered" unicode="&#xb7;" horiz-adv-x="504" 
d="M350 632q51 0 98 39q39 30 48 81q9 53 -20 83q-37 37 -88 37q-52 0 -95 -37q-41 -31 -49 -83q-8 -47 23 -84q32 -36 83 -36z" />
    <glyph glyph-name="questiondown" unicode="&#xbf;" horiz-adv-x="1251" 
d="M809 1232q-49 0 -80 35q-32 33 -23 81q7 47 48 79q42 36 92 36q28 0 47 -9q23 -10 33 -21q15 -22 23 -41q5 -23 2 -44q-4 -20 -15 -41q-14 -21 -37 -42q-9 -9 -41 -25q-24 -8 -49 -8zM892 1008q2 4 4 0q1 -4 -3 -4h-2zM641 1004q6 -2 8 3q0 -1 -1 -3h-7zM922 513l8 46
h242l-8 -46q-19 -125 -96 -223q-79 -106 -197 -169q-52 -28 -120 -46q-71 -15 -120 -15q-56 0 -107 13q-57 14 -97 40q-97 54 -145 145q-50 99 -41 200q6 102 85 214q71 104 207 191q42 27 85 87q20 28 30 54h243q-1 -4 -10 -29l-3 -9q-1 -3 0 -2l-5 -10q-23 -60 -57 -108
q-33 -49 -76 -94q-41 -39 -95 -74q-150 -97 -161 -208q-3 -101 92 -162q62 -33 124 -16h1l72 21q63 33 99 87q41 47 50 113zM924 559q-6 0 3 7q4 3 4 1l-1 -8h-6zM1173 567q0 3 5 -5q3 -3 2 -3h-8z" />
    <glyph glyph-name="multiply" unicode="&#xd7;" horiz-adv-x="1338" 
d="M307 409q-26 30 -11 77t64 89l255 220l-190 226q-30 35 -22.5 83t48.5 83l7 6q42 36 88 35.5t78 -35.5l190 -225l256 220q49 42 97 49.5t72 -23.5l41 -46q26 -31 11 -77.5t-64 -89.5l-255 -220l190 -226q31 -38 23.5 -83.5t-49.5 -82.5l-8 -6q-41 -35 -88 -35.5t-77 34.5
l-192 227l-254 -220q-49 -43 -97 -50.5t-74 23.5z" />
    <glyph glyph-name="divide" unicode="&#xf7;" horiz-adv-x="1338" 
d="M826 1055q-67 0 -106.5 36.5t-31.5 89.5q8 52 58.5 86t118.5 34q65 0 104.5 -35t31.5 -85q-8 -53 -59 -89.5t-116 -36.5zM322 666q-50 0 -78 33.5t-20 84.5l1 8q8 51 46.5 84t89.5 33h904q50 0 77.5 -32.5t19.5 -84.5l-1 -8q-8 -51 -46.5 -84.5t-88.5 -33.5h-904z
M705 293q-67 0 -106.5 36t-31.5 90q8 52 58.5 86t118.5 34q65 0 104.5 -35t31.5 -85q-8 -54 -58.5 -90t-116.5 -36z" />
    <glyph glyph-name="endash" unicode="&#x2013;" horiz-adv-x="1265" 
d="M1105 638q36 0 58.5 19.5t28.5 55.5l12 77q6 36 -10.5 55.5t-52.5 19.5l-761 2q-74 0 -87 -75l-12 -76q-5 -36 11.5 -55.5t52.5 -19.5z" />
    <glyph glyph-name="emdash" unicode="&#x2014;" horiz-adv-x="1265" 
d="M1105 638q36 0 58.5 19.5t28.5 55.5l12 77q6 36 -10.5 55.5t-52.5 19.5l-761 2q-74 0 -87 -75l-12 -76q-5 -36 11.5 -55.5t52.5 -19.5z" />
    <glyph glyph-name="quoteleft" unicode="&#x2018;" horiz-adv-x="579" 
d="M496 1595q-36 0 -59 -19.5t-28 -55.5l-67 -420q-11 -75 63 -75h90q36 0 59 19.5t28 55.5l67 420q11 75 -63 75h-90z" />
    <glyph glyph-name="quoteright" unicode="&#x2019;" horiz-adv-x="579" 
d="M496 1595q-36 0 -59 -19.5t-28 -55.5l-67 -420q-11 -75 63 -75h90q36 0 59 19.5t28 55.5l67 420q11 75 -63 75h-90z" />
    <glyph glyph-name="quotesinglbase" unicode="&#x201a;" horiz-adv-x="548" 
d="M100 -103q-19 -34 -13 -46t43 -12h63q23 0 44.5 13t34.5 35l105 182q19 34 13 46t-41 12h-66q-27 0 -52 -18.5t-38 -49.5l-8 5l-4 -24z" />
    <glyph glyph-name="quotedblleft" unicode="&#x201c;" horiz-adv-x="1040" 
d="M342 1100q-11 -75 63 -75h90q36 0 59 19.5t28 55.5l67 420q11 75 -63 75h-90q-36 0 -59 -19.5t-28 -55.5zM957 1595q-36 0 -59 -19.5t-28 -55.5l-67 -420q-11 -75 63 -75h90q36 0 59 19.5t28 55.5l67 420q11 75 -63 75h-90z" />
    <glyph glyph-name="quotedblright" unicode="&#x201d;" horiz-adv-x="1040" 
d="M342 1100q-11 -75 63 -75h90q36 0 59 19.5t28 55.5l67 420q11 75 -63 75h-90q-36 0 -59 -19.5t-28 -55.5zM957 1595q-36 0 -59 -19.5t-28 -55.5l-67 -420q-11 -75 63 -75h90q36 0 59 19.5t28 55.5l67 420q11 75 -63 75h-90z" />
    <glyph glyph-name="bullet" unicode="&#x2022;" horiz-adv-x="504" 
d="M350 632q51 0 98 39q39 30 48 81q9 53 -20 83q-37 37 -88 37q-52 0 -95 -37q-41 -31 -49 -83q-8 -47 23 -84q32 -36 83 -36z" />
    <glyph glyph-name="guilsinglleft" unicode="&#x2039;" horiz-adv-x="1304" 
d="M1127 382q67 89 -8 127l-536 245l613 245q75 31 56 99l-23 72q-21 67 -90 41l-783 -313q-23 -11 -38.5 -30.5t-18.5 -41.5l-23 -144q-4 -23 6.5 -43t30.5 -30l681 -312q61 -27 103 38z" />
    <glyph glyph-name="guilsinglright" unicode="&#x203a;" horiz-adv-x="1304" 
d="M292 382l14 -47q10 -31 34 -41t57 3l779 312q24 10 40.5 29.5t20.5 43.5l23 144q7 48 -35 72l-683 313q-60 28 -104 -41l-45 -72q-20 -32 -14 -58.5t38 -40.5l535 -245l-612 -245q-88 -38 -48 -127z" />
    <glyph glyph-name="fraction" unicode="&#x2044;" horiz-adv-x="1203" 
d="M254 51q-89 0 -118 67t27 144l905 1271q39 53 97 53h43q88 0 117 -66.5t-26 -143.5l-908 -1272q-40 -53 -97 -53h-40z" />
    <glyph glyph-name="Euro" unicode="&#x20ac;" horiz-adv-x="1420" 
d="M1424 1570q62 0 53 -63l-20 -126q-11 -64 -73 -64h-124q-77 0 -160 -22q-103 -33 -173 -86q-34 -28 -20.5 -61t56.5 -32l181 4q38 0 57 -19.5t16 -54.5l-8 -65l1 1q-7 -40 -33 -62t-66 -22l-385 -2q-22 0 -39 -14.5t-20 -36.5l-10 -60q-3 -22 9 -36.5t34 -14.5l383 3
q38 0 57 -19t16 -54l-7 -65v1q-7 -40 -32.5 -62.5t-65.5 -22.5l-184 -2q-44 -1 -67 -34.5t5 -61.5q58 -56 144 -79q68 -25 152 -25h124q62 0 52 -64l-19 -125q-10 -64 -73 -64h-124q-112 0 -217 31q-111 34 -183 86q-92 63 -143 132q-66 89 -102 178q-8 24 -35 24h-97
q-15 0 -20 6t-3 21l31 194h44q19 0 33 14.5t18 36.5l9 59q4 22 -8.5 36.5t-34.5 14.5h-40l35 195q4 27 32 27h97q27 0 45 26q67 104 151 179q78 71 187 136q106 56 214 86q112 28 226 28h124zM1143 1120h1h-1z" />
    <glyph glyph-name="trademark" unicode="&#x2122;" horiz-adv-x="1079" 
d="M953 1045q-25 0 -43 32q-1 7 -1 16v278q-113 -148 -118 -154q-7 -9 -31 -12q-28 0 -53 42l-90 118h-1v-272q0 -30 -33 -44q-10 -2 -13 -2h-2q-18 0 -31.5 8.5t-13.5 26.5l-1 3v8v416q0 19 9 32.5t27 13.5h3q2 0 5 1h2q31 0 55 -42l137 -183q40 53 82.5 109t59.5 79t20 26
l2 2q9 9 28 9h1q18 0 31.5 -8.5t13.5 -25.5v-2q0 -2 1 -7.5t1 -8.5v-406q0 -32 -36 -50q-6 -3 -11 -3zM281 1047q-20 0 -32 13q-9 9 -12 21v2q-1 2 -1 7v380h-114q-34 0 -41 34q-2 4 -2 8q0 9 4 14.5t13.5 12.5t14.5 12q1 1 3 1h8h320h7h1l2 -1q16 0 24 -11.5t8 -27.5
q0 -6 -1 -8q-10 -34 -41 -34h-115v-380l-1 -7l-1 -2q-1 -11 -11 -21q-12 -13 -31 -13h-2z" />
    <glyph glyph-name="minus" unicode="&#x2212;" horiz-adv-x="1338" 
d="M322 666q-50 0 -78 33.5t-20 84.5l1 8q8 51 46.5 84t89.5 33h904q50 0 77.5 -32.5t19.5 -84.5l-1 -8q-8 -51 -46.5 -84.5t-88.5 -33.5h-904z" />
    <glyph glyph-name="NULL" horiz-adv-x="1992" 
 />
    <glyph glyph-name="_FSHallmark" horiz-adv-x="1985" 
d="M104 1542h1781v-211h-1781v211zM1655 936q0 16 -16 46q-13 18 -39 39q-4 2 -22.5 10t-29.5 10q-42 7 -50 7q-51 0 -103 -26q-43 -31 -43 -64q0 -67 39 -87q63 -29 95 -36l77 -19l66 -14q37 -12 62 -15q24 -4 52 -13q8 -5 24 -12.5t22 -11.5q43 -26 67 -58q23 -37 26 -94
q4 -52 -22 -107q-55 -94 -157 -126q-100 -32 -200 -32q-77 0 -147 19q-66 18 -124 59q-55 40 -91 101q-32 57 -32 141l205 -4q0 -10 11 -33q1 -30 30 -54q20 -24 54 -38q37 -20 100 -20q71 0 112 25q43 21 43 56q0 31 -42.5 57t-125.5 42q-163 42 -262 95q-106 55 -106 178
q0 102 71 160q66 55 156 84q67 18 148 18q111 0 200 -39q98 -41 143 -141q23 -62 23 -103h-214zM339 333h-235v884h750v-202h-515v-199h428v-196h-428v-287zM833 438q0 44 33 77q28 28 75 28t85 -31q35 -27 35 -74q0 -41 -35 -73q-40 -28 -85 -28q-41 0 -73 32
q-35 32 -35 69zM100 221h1782v-211h-1782v211z" />
    <glyph glyph-name="_Fontastica" horiz-adv-x="1542" 
d="M322 234h-221q-1 4 -1 12v1293h969v-199h-747v-531h748v-202h-748v-373zM463 1169h750v370h220v-1301h-970v198h750v533h-750v200zM1213 108q-13 -6 -13 -18q0 -20 9 -29q11 -12 23 -12q20 0 36 12l13 -12q-22 -22 -49 -22q-13 0 -41 12q-16 23 -17 42q-2 25 16 43
q20 20 42 20q26 0 49 -20l-13 -16q-1 2 -5.5 5.5t-5.5 4.5q-2 3 -18 3h-7q-17 -7 -19 -13zM101 140h82v-19h-52v-30h51v-17h-51v-43h-30v109zM285 140q38 0 57 -28q15 -23 4 -51t-50 -34l-13 -5q-15 0 -24 9q-34 12 -34 47q0 30 17 46q11 16 43 16zM501 31h-7q-5 -4 -9 -4
q-3 0 -17 12l-12 17q0 3 -5 7.5t-5 6.5l-22 28v-67h-26v109h21q9 -1 11 -15q6 -4 26 -27l21 -33v75h24v-109zM547 140h95v-19h-36v-90h-22v90h-37v19zM896 90q23 0 23 -28q2 -25 -21 -31q-2 -4 -22 -4q-34 0 -50 19q1 2 1 3l2 4q0 3 4 8l37 -12h14q2 3 4 5t3 2h1
q0 18 -25 22q-5 0 -6 3q-3 1 -9 1q-19 6 -19 26q-6 18 15 29q9 3 26 3q29 0 45 -7l-9 -21q-5 4 -9 4h-5q-2 2 -8 2q-3 0 -4 3h-14q-9 0 -9 -5q-4 -5 9 -18q4 -1 10 -3t10 -3.5t6 -1.5zM956 140h97v-19h-35v-90h-26v90h-36v19zM1099 140h28v-109h-28v109zM1392 140l25 -50
q0 -5 12 -34q1 -2 3 -8t4.5 -10.5t5.5 -6.5h-25l-12 22h-53l-10 -22h-25q27 49 44 109h31zM740 137q0 -3 2.5 -7.5t6 -9.5t4.5 -8q1 -2 6 -11t7 -14q7 -21 9 -31l10 -25h-27q-1 2 -1 8l-1 2q-1 2 -2 5.5t-1 6.5h-54q-1 -4 -1 -14v-3l-8 -5h-22l46 106h26zM317 87q0 16 -8 25
q-9 9 -26 9q-3 -3 -9 -3q-2 0 -20 -19q-12 -12 -3 -25q9 -26 34 -26q6 0 10 1q22 6 22 33v5zM744 74q-2 1 -3 4l-1 4q-3 3 -4.5 6.5t-2.5 3.5q-2 3 -2 12q-1 1 -4 12l-21 -42h38zM1396 74q-4 1 -4 8q-2 8 -5 10q-1 2 -2 6t-2 6q-1 1 -2.5 5.5t-3.5 6.5l-17 -42h36z" />
    </font>
</defs>
</svg>
